<?xml version="1.0" standalone="no"?>
<!DOCTYPE svg PUBLIC "-//W3C//DTD SVG 1.1//EN"
"http://www.w3.org/Graphics/SVG/1.1/DTD/svg11.dtd">

<svg height="41" transform="translate(0.5,0.5)" version="1.1" width="44" xmlns="http://www.w3.org/2000/svg" xmlns:nch="http://www.nchsoftware.com/drawpad/" xmlns:xlink="http://www.w3.org/1999/xlink"><rect fill="rgb(5,5,5)" fill-opacity="1.000" height="41" id="background" width="44" x="0" y="0"/><g class="Layer"><path d="M1,38 C1,38 1,39 1,39 C1,39 2,39 2,39 C2,40 2,40 2,40 C2,40 42,40 42,40 C42,40 42,40 42,39 C42,39 43,39 43,39 C43,39 43,39 43,39 C43,39 43,38 43,38 C43,38 1,38 1,38 " fill="rgb(255,255,255)" fill-opacity="1.000" fill-rule="evenodd" nch:accessory="pathfill" nch:path="1.5,38.1,1.5,38.1,1.5,38.9 1.5,38.9,1.5,39.1,1.5,39.2 1.7,39.4,1.8,39.5,2.0,39.6 2.2,39.6,2.2,39.6,41.8,39.6 41.8,39.6,42.0,39.6,42.2,39.5 42.3,39.4,42.5,39.2,42.5,39.1 42.5,38.9,42.5,38.9,42.5,38.9 42.5,38.9,42.5,38.9,42.5,38.1 42.5,38.1,42.5,38.1,1.5,38.1 1.5,38.1," stroke="rgb(255,255,255)" stroke-width="0"/><path d="M1,38 C1,38 1,39 1,39 C1,39 2,39 2,39 C2,40 2,40 2,40 C2,40 42,40 42,40 C42,40 42,40 42,39 C42,39 43,39 43,39 C43,39 43,39 43,39 C43,39 43,38 43,38 C43,38 1,38 1,38 " fill="none" nch:path="1.5,38.1,1.5,38.1,1.5,38.9 1.5,38.9,1.5,39.1,1.5,39.2 1.7,39.4,1.8,39.5,2.0,39.6 2.2,39.6,2.2,39.6,41.8,39.6 41.8,39.6,42.0,39.6,42.2,39.5 42.3,39.4,42.5,39.2,42.5,39.1 42.5,38.9,42.5,38.9,42.5,38.9 42.5,38.9,42.5,38.9,42.5,38.1 42.5,38.1,42.5,38.1,1.5,38.1 1.5,38.1," nch:path-opacity="0" nch:penfill="rgba(255,255,255,255)" nch:stamp="pen" stroke="rgb(255,255,255)" stroke-linecap="round" stroke-linejoin="round" stroke-opacity="0.000" stroke-width="1"/><path d="M1,18 C1,18 1,37 1,37 C1,37 43,37 43,37 C43,37 43,18 43,18 C43,18 34,18 34,18 C34,18 34,23 34,23 C34,23 34,23 34,23 C34,23 34,23 34,23 C34,23 34,23 34,23 C34,23 33,27 33,27 C33,27 33,27 32,28 C32,28 32,28 32,28 C32,28 32,29 32,29 C32,30 32,31 31,32 C30,33 29,33 28,33 C27,33 26,33 25,32 C25,31 24,30 24,29 C24,29 24,25 24,25 C24,25 24,24 23,23 C23,23 22,23 22,23 C21,23 20,23 20,23 C19,24 19,25 19,25 C19,26 19,27 18,28 C17,28 17,29 16,29 C16,29 15,29 15,29 C15,29 15,27 15,27 C15,27 16,27 16,27 C16,27 17,27 17,27 C17,26 18,26 18,25 C18,24 18,23 19,22 C20,22 21,21 22,21 C23,21 24,22 24,22 C25,23 26,24 26,25 C26,25 26,29 26,29 C26,30 26,30 26,31 C27,31 28,32 28,32 C29,32 30,31 30,31 C31,30 31,30 31,29 C31,29 31,28 31,28 C30,28 30,27 30,27 C30,27 30,27 30,27 C30,27 29,23 29,23 C29,23 29,23 29,23 C29,23 29,23 29,23 C29,23 29,23 29,23 C29,23 29,18 29,18 C29,18 1,18 1,18 " fill="rgb(255,255,255)" fill-opacity="1.000" fill-rule="evenodd" nch:accessory="pathfill" nch:path="1.5,18.3,1.5,18.3,1.5,36.7 1.5,36.7,1.5,36.7,42.5,36.7 42.5,36.7,42.5,36.7,42.5,18.3 42.5,18.3,42.5,18.3,34.5,18.3 34.5,18.3,34.5,18.3,34.5,22.7 34.5,22.7,34.5,22.7,34.5,22.7 34.5,22.7,34.5,22.7,34.5,22.7 34.5,22.8,34.5,22.8,34.5,22.9 34.4,23.0,34.4,23.0,33.2,26.7 33.2,26.7,33.0,27.1,32.7,27.5 32.3,27.7,32.3,27.7,32.3,27.7 32.3,27.7,32.3,27.7,32.3,29.0 32.3,29.0,32.3,30.0,31.8,31.1 31.1,31.8,30.3,32.6,29.3,33.0 28.2,33.0,27.2,33.0,26.1,32.6 25.4,31.8,24.6,31.1,24.2,30.0 24.2,29.0,24.2,29.0,24.2,25.3 24.2,25.3,24.2,24.6,23.9,24.0 23.5,23.5,23.0,23.0,22.3,22.7 21.6,22.7,21.0,22.7,20.3,23.0 19.8,23.5,19.3,24.0,19.1,24.6 19.1,25.3,19.1,26.2,18.7,27.0 18.1,27.6,17.5,28.3,16.6,28.6 15.8,28.6,15.8,28.6,14.7,28.6 14.7,28.6,14.7,28.6,14.7,27.1 14.7,27.1,14.7,27.1,15.8,27.1 15.8,27.1,16.3,27.1,16.7,26.9 17.1,26.6,17.4,26.2,17.6,25.8 17.6,25.3,17.6,24.2,18.0,23.2 18.8,22.4,19.5,21.7,20.6,21.3 21.6,21.3,22.7,21.3,23.7,21.7 24.5,22.4,25.2,23.2,25.7,24.2 25.7,25.3,25.7,25.3,25.7,29.0 25.7,29.0,25.7,29.6,25.9,30.3 26.4,30.8,26.9,31.3,27.6,31.5 28.2,31.5,28.9,31.5,29.6,31.3 30.0,30.8,30.5,30.3,30.8,29.6 30.8,29.0,30.8,29.0,30.8,27.7 30.8,27.7,30.4,27.5,30.0,27.2 29.9,26.7,29.9,26.7,29.9,26.7 29.9,26.7,29.9,26.7,28.6,23.0 28.6,23.0,28.6,22.9,28.6,22.8 28.6,22.8,28.6,22.8,28.6,22.7 28.6,22.7,28.6,22.7,28.6,22.7 28.6,22.7,28.6,22.7,28.6,18.3 28.6,18.3,28.6,18.3,1.5,18.3 1.5,18.3," stroke="rgb(255,255,255)" stroke-width="0"/><path d="M1,18 C1,18 1,37 1,37 C1,37 43,37 43,37 C43,37 43,18 43,18 C43,18 34,18 34,18 C34,18 34,23 34,23 C34,23 34,23 34,23 C34,23 34,23 34,23 C34,23 34,23 34,23 C34,23 33,27 33,27 C33,27 33,27 32,28 C32,28 32,28 32,28 C32,28 32,29 32,29 C32,30 32,31 31,32 C30,33 29,33 28,33 C27,33 26,33 25,32 C25,31 24,30 24,29 C24,29 24,25 24,25 C24,25 24,24 23,23 C23,23 22,23 22,23 C21,23 20,23 20,23 C19,24 19,25 19,25 C19,26 19,27 18,28 C17,28 17,29 16,29 C16,29 15,29 15,29 C15,29 15,27 15,27 C15,27 16,27 16,27 C16,27 17,27 17,27 C17,26 18,26 18,25 C18,24 18,23 19,22 C20,22 21,21 22,21 C23,21 24,22 24,22 C25,23 26,24 26,25 C26,25 26,29 26,29 C26,30 26,30 26,31 C27,31 28,32 28,32 C29,32 30,31 30,31 C31,30 31,30 31,29 C31,29 31,28 31,28 C30,28 30,27 30,27 C30,27 30,27 30,27 C30,27 29,23 29,23 C29,23 29,23 29,23 C29,23 29,23 29,23 C29,23 29,23 29,23 C29,23 29,18 29,18 C29,18 1,18 1,18 " fill="none" nch:path="1.5,18.3,1.5,18.3,1.5,36.7 1.5,36.7,1.5,36.7,42.5,36.7 42.5,36.7,42.5,36.7,42.5,18.3 42.5,18.3,42.5,18.3,34.5,18.3 34.5,18.3,34.5,18.3,34.5,22.7 34.5,22.7,34.5,22.7,34.5,22.7 34.5,22.7,34.5,22.7,34.5,22.7 34.5,22.8,34.5,22.8,34.5,22.9 34.4,23.0,34.4,23.0,33.2,26.7 33.2,26.7,33.0,27.1,32.7,27.5 32.3,27.7,32.3,27.7,32.3,27.7 32.3,27.7,32.3,27.7,32.3,29.0 32.3,29.0,32.3,30.0,31.8,31.1 31.1,31.8,30.3,32.6,29.3,33.0 28.2,33.0,27.2,33.0,26.1,32.6 25.4,31.8,24.6,31.1,24.2,30.0 24.2,29.0,24.2,29.0,24.2,25.3 24.2,25.3,24.2,24.6,23.9,24.0 23.5,23.5,23.0,23.0,22.3,22.7 21.6,22.7,21.0,22.7,20.3,23.0 19.8,23.5,19.3,24.0,19.1,24.6 19.1,25.3,19.1,26.2,18.7,27.0 18.1,27.6,17.5,28.3,16.6,28.6 15.8,28.6,15.8,28.6,14.7,28.6 14.7,28.6,14.7,28.6,14.7,27.1 14.7,27.1,14.7,27.1,15.8,27.1 15.8,27.1,16.3,27.1,16.7,26.9 17.1,26.6,17.4,26.2,17.6,25.8 17.6,25.3,17.6,24.2,18.0,23.2 18.8,22.4,19.5,21.7,20.6,21.3 21.6,21.3,22.7,21.3,23.7,21.7 24.5,22.4,25.2,23.2,25.7,24.2 25.7,25.3,25.7,25.3,25.7,29.0 25.7,29.0,25.7,29.6,25.9,30.3 26.4,30.8,26.9,31.3,27.6,31.5 28.2,31.5,28.9,31.5,29.6,31.3 30.0,30.8,30.5,30.3,30.8,29.6 30.8,29.0,30.8,29.0,30.8,27.7 30.8,27.7,30.4,27.5,30.0,27.2 29.9,26.7,29.9,26.7,29.9,26.7 29.9,26.7,29.9,26.7,28.6,23.0 28.6,23.0,28.6,22.9,28.6,22.8 28.6,22.8,28.6,22.8,28.6,22.7 28.6,22.7,28.6,22.7,28.6,22.7 28.6,22.7,28.6,22.7,28.6,18.3 28.6,18.3,28.6,18.3,1.5,18.3 1.5,18.3," nch:path-opacity="0" nch:penfill="rgba(255,255,255,255)" nch:stamp="pen" stroke="rgb(255,255,255)" stroke-linecap="round" stroke-linejoin="round" stroke-opacity="0.000" stroke-width="1"/><path d="M30,23 C30,23 31,26 31,26 C31,26 31,26 31,26 C31,26 32,26 32,26 C32,26 32,26 32,26 C32,26 33,23 33,23 C33,23 30,23 30,23 " fill="rgb(5,5,5)" fill-opacity="1.000" fill-rule="evenodd" nch:accessory="pathfill" nch:path="30.4,23.5,30.4,23.5,31.3,26.2 31.3,26.2,31.3,26.3,31.4,26.3 31.4,26.4,31.5,26.4,31.6,26.4 31.7,26.4,31.7,26.3,31.8,26.3 31.8,26.2,31.8,26.2,32.7,23.5 32.7,23.5,32.7,23.5,30.4,23.5 30.4,23.5," stroke="rgb(255,255,255)" stroke-width="0"/><path d="M30,23 C30,23 31,26 31,26 C31,26 31,26 31,26 C31,26 32,26 32,26 C32,26 32,26 32,26 C32,26 33,23 33,23 C33,23 30,23 30,23 " fill="none" nch:path="30.4,23.5,30.4,23.5,31.3,26.2 31.3,26.2,31.3,26.3,31.4,26.3 31.4,26.4,31.5,26.4,31.6,26.4 31.7,26.4,31.7,26.3,31.8,26.3 31.8,26.2,31.8,26.2,32.7,23.5 32.7,23.5,32.7,23.5,30.4,23.5 30.4,23.5," nch:path-opacity="0" nch:penfill="rgba(5,5,5,255)" nch:stamp="pen" stroke="rgb(255,255,255)" stroke-linecap="round" stroke-linejoin="round" stroke-opacity="0.000" stroke-width="1"/><path d="M30,15 C30,15 30,22 30,22 C30,22 33,22 33,22 C33,22 33,15 33,15 C33,15 30,15 30,15 " fill="rgb(255,255,255)" fill-opacity="1.000" fill-rule="evenodd" nch:accessory="pathfill" nch:path="30.1,14.7,30.1,14.7,30.1,22.0 30.1,22.0,30.1,22.0,33.0,22.0 33.0,22.0,33.0,22.0,33.0,14.7 33.0,14.7,33.0,14.7,30.1,14.7 30.1,14.7," stroke="rgb(255,255,255)" stroke-width="0"/><path d="M30,15 C30,15 30,22 30,22 C30,22 33,22 33,22 C33,22 33,15 33,15 C33,15 30,15 30,15 " fill="none" nch:path="30.1,14.7,30.1,14.7,30.1,22.0 30.1,22.0,30.1,22.0,33.0,22.0 33.0,22.0,33.0,22.0,33.0,14.7 33.0,14.7,33.0,14.7,30.1,14.7 30.1,14.7," nch:path-opacity="0" nch:penfill="rgba(255,255,255,255)" nch:stamp="pen" stroke="rgb(255,255,255)" stroke-linecap="round" stroke-linejoin="round" stroke-opacity="0.000" stroke-width="1"/><path d="M34,12 C34,12 34,17 34,17 C34,17 43,17 43,17 C43,17 43,15 43,15 C43,15 39,15 39,15 C39,15 39,14 39,14 C39,14 43,14 43,14 C43,14 43,13 43,13 C43,13 42,13 42,13 C42,13 42,12 42,12 C42,12 42,12 42,12 C42,12 34,12 34,12 " fill="rgb(255,255,255)" fill-opacity="1.000" fill-rule="evenodd" nch:accessory="pathfill" nch:path="34.5,12.5,34.5,12.5,34.5,16.9 34.5,16.9,34.5,16.9,42.5,16.9 42.5,16.9,42.5,16.9,42.5,15.4 42.5,15.4,42.5,15.4,38.9,15.4 38.9,15.4,38.9,15.4,38.9,13.9 38.9,13.9,38.9,13.9,42.5,13.9 42.5,13.9,42.5,13.9,42.5,13.2 42.5,13.2,42.5,13.0,42.5,12.8 42.3,12.7,42.2,12.5,42.0,12.5 41.8,12.5,41.8,12.5,41.8,12.5 41.8,12.5,41.8,12.5,34.5,12.5 34.5,12.5," stroke="rgb(255,255,255)" stroke-width="0"/><path d="M34,12 C34,12 34,17 34,17 C34,17 43,17 43,17 C43,17 43,15 43,15 C43,15 39,15 39,15 C39,15 39,14 39,14 C39,14 43,14 43,14 C43,14 43,13 43,13 C43,13 42,13 42,13 C42,13 42,12 42,12 C42,12 42,12 42,12 C42,12 34,12 34,12 " fill="none" nch:path="34.5,12.5,34.5,12.5,34.5,16.9 34.5,16.9,34.5,16.9,42.5,16.9 42.5,16.9,42.5,16.9,42.5,15.4 42.5,15.4,42.5,15.4,38.9,15.4 38.9,15.4,38.9,15.4,38.9,13.9 38.9,13.9,38.9,13.9,42.5,13.9 42.5,13.9,42.5,13.9,42.5,13.2 42.5,13.2,42.5,13.0,42.5,12.8 42.3,12.7,42.2,12.5,42.0,12.5 41.8,12.5,41.8,12.5,41.8,12.5 41.8,12.5,41.8,12.5,34.5,12.5 34.5,12.5," nch:path-opacity="0" nch:penfill="rgba(255,255,255,255)" nch:stamp="pen" stroke="rgb(255,255,255)" stroke-linecap="round" stroke-linejoin="round" stroke-opacity="0.000" stroke-width="1"/><path d="M1,15 C1,15 1,17 1,17 C1,17 29,17 29,17 C29,17 29,12 29,12 C29,12 2,12 2,12 C2,12 2,13 2,13 C2,13 1,13 1,13 C1,13 1,14 1,14 C1,14 5,14 5,14 C5,14 5,15 5,15 C5,15 1,15 1,15 " fill="rgb(255,255,255)" fill-opacity="1.000" fill-rule="evenodd" nch:accessory="pathfill" nch:path="1.5,15.4,1.5,15.4,1.5,16.9 1.5,16.9,1.5,16.9,28.6,16.9 28.6,16.9,28.6,16.9,28.6,12.5 28.6,12.5,28.6,12.5,2.2,12.5 2.2,12.5,2.0,12.5,1.8,12.5 1.7,12.7,1.5,12.8,1.5,13.0 1.5,13.2,1.5,13.2,1.5,13.9 1.5,13.9,1.5,13.9,5.1,13.9 5.1,13.9,5.1,13.9,5.1,15.4 5.1,15.4,5.1,15.4,1.5,15.4 1.5,15.4," stroke="rgb(255,255,255)" stroke-width="0"/><path d="M1,15 C1,15 1,17 1,17 C1,17 29,17 29,17 C29,17 29,12 29,12 C29,12 2,12 2,12 C2,12 2,13 2,13 C2,13 1,13 1,13 C1,13 1,14 1,14 C1,14 5,14 5,14 C5,14 5,15 5,15 C5,15 1,15 1,15 " fill="none" nch:path="1.5,15.4,1.5,15.4,1.5,16.9 1.5,16.9,1.5,16.9,28.6,16.9 28.6,16.9,28.6,16.9,28.6,12.5 28.6,12.5,28.6,12.5,2.2,12.5 2.2,12.5,2.0,12.5,1.8,12.5 1.7,12.7,1.5,12.8,1.5,13.0 1.5,13.2,1.5,13.2,1.5,13.9 1.5,13.9,1.5,13.9,5.1,13.9 5.1,13.9,5.1,13.9,5.1,15.4 5.1,15.4,5.1,15.4,1.5,15.4 1.5,15.4," nch:path-opacity="0" nch:penfill="rgba(255,255,255,255)" nch:stamp="pen" stroke="rgb(255,255,255)" stroke-linecap="round" stroke-linejoin="round" stroke-opacity="0.000" stroke-width="1"/><path d="M30,6 C30,6 30,13 30,13 C30,13 33,13 33,13 C33,13 33,6 33,6 C33,6 30,6 30,6 " fill="rgb(255,255,255)" fill-opacity="1.000" fill-rule="evenodd" nch:accessory="pathfill" nch:path="30.1,5.9,30.1,5.9,30.1,13.2 30.1,13.2,30.1,13.2,33.0,13.2 33.0,13.2,33.0,13.2,33.0,5.9 33.0,5.9,33.0,5.9,30.1,5.9 30.1,5.9," stroke="rgb(255,255,255)" stroke-width="0"/><path d="M30,6 C30,6 30,13 30,13 C30,13 33,13 33,13 C33,13 33,6 33,6 C33,6 30,6 30,6 " fill="none" nch:path="30.1,5.9,30.1,5.9,30.1,13.2 30.1,13.2,30.1,13.2,33.0,13.2 33.0,13.2,33.0,13.2,33.0,5.9 33.0,5.9,33.0,5.9,30.1,5.9 30.1,5.9," nch:path-opacity="0" nch:penfill="rgba(255,255,255,255)" nch:stamp="pen" stroke="rgb(255,255,255)" stroke-linecap="round" stroke-linejoin="round" stroke-opacity="0.000" stroke-width="1"/><path d="M22,10 C22,10 22,10 21,10 C21,10 21,10 21,10 C21,10 21,11 21,11 C21,11 23,11 23,11 C23,11 23,10 23,10 C23,10 23,10 23,10 C22,10 22,10 22,10 " fill="rgb(255,255,255)" fill-opacity="1.000" fill-rule="evenodd" nch:accessory="pathfill" nch:path="22.0,9.5,21.8,9.5,21.6,9.6 21.5,9.7,21.3,9.9,21.3,10.1 21.3,10.3,21.3,10.3,21.3,11.0 21.3,11.0,21.3,11.0,22.7,11.0 22.7,11.0,22.7,11.0,22.7,10.3 22.7,10.3,22.7,10.1,22.7,9.9 22.5,9.7,22.4,9.6,22.2,9.5 22.0,9.5,22.0,9.5,22.0,9.5 22.0,9.5," stroke="rgb(255,255,255)" stroke-width="0"/><path d="M22,10 C22,10 22,10 21,10 C21,10 21,10 21,10 C21,10 21,11 21,11 C21,11 23,11 23,11 C23,11 23,10 23,10 C23,10 23,10 23,10 C22,10 22,10 22,10 " fill="none" nch:path="22.0,9.5,21.8,9.5,21.6,9.6 21.5,9.7,21.3,9.9,21.3,10.1 21.3,10.3,21.3,10.3,21.3,11.0 21.3,11.0,21.3,11.0,22.7,11.0 22.7,11.0,22.7,11.0,22.7,10.3 22.7,10.3,22.7,10.1,22.7,9.9 22.5,9.7,22.4,9.6,22.2,9.5 22.0,9.5,22.0,9.5,22.0,9.5 22.0,9.5," nch:path-opacity="0" nch:penfill="rgba(255,255,255,255)" nch:stamp="pen" stroke="rgb(255,255,255)" stroke-linecap="round" stroke-linejoin="round" stroke-opacity="0.000" stroke-width="1"/><path d="M32,3 C31,3 31,3 30,3 C30,4 30,4 30,4 C30,4 33,4 33,4 C33,4 33,4 33,3 C32,3 32,3 32,3 C32,3 32,3 32,3 " fill="rgb(255,255,255)" fill-opacity="1.000" fill-rule="evenodd" nch:accessory="pathfill" nch:path="31.5,2.9,31.1,2.9,30.8,3.1 30.5,3.4,30.2,3.6,30.1,4.0 30.1,4.4,30.1,4.4,33.0,4.4 33.0,4.4,33.0,4.0,32.8,3.6 32.6,3.4,32.3,3.1,31.9,2.9 31.5,2.9,31.5,2.9,31.5,2.9 31.5,2.9," stroke="rgb(255,255,255)" stroke-width="0"/><path d="M32,3 C31,3 31,3 30,3 C30,4 30,4 30,4 C30,4 33,4 33,4 C33,4 33,4 33,3 C32,3 32,3 32,3 C32,3 32,3 32,3 " fill="none" nch:path="31.5,2.9,31.1,2.9,30.8,3.1 30.5,3.4,30.2,3.6,30.1,4.0 30.1,4.4,30.1,4.4,33.0,4.4 33.0,4.4,33.0,4.0,32.8,3.6 32.6,3.4,32.3,3.1,31.9,2.9 31.5,2.9,31.5,2.9,31.5,2.9 31.5,2.9," nch:path-opacity="0" nch:penfill="rgba(255,255,255,255)" nch:stamp="pen" stroke="rgb(255,255,255)" stroke-linecap="round" stroke-linejoin="round" stroke-opacity="0.000" stroke-width="1"/><path d="M12,27 C12,27 13,27 13,27 C13,27 13,29 13,29 C13,29 12,29 12,29 C12,29 12,27 12,27 " fill="rgb(5,5,5)" fill-opacity="1.000" fill-rule="evenodd" nch:accessory="pathfill" nch:path="11.7,27.1,11.7,27.1,13.2,27.1 13.2,27.1,13.2,27.1,13.2,28.6 13.2,28.6,13.2,28.6,11.7,28.6 11.7,28.6,11.7,28.6,11.7,27.1 11.7,27.1," stroke="rgb(255,255,255)" stroke-width="0"/><path d="M12,27 C12,27 13,27 13,27 C13,27 13,29 13,29 C13,29 12,29 12,29 C12,29 12,27 12,27 " fill="none" nch:path="11.7,27.1,11.7,27.1,13.2,27.1 13.2,27.1,13.2,27.1,13.2,28.6 13.2,28.6,13.2,28.6,11.7,28.6 11.7,28.6,11.7,28.6,11.7,27.1 11.7,27.1," nch:path-opacity="0" nch:penfill="rgba(5,5,5,255)" nch:stamp="pen" stroke="rgb(255,255,255)" stroke-linecap="round" stroke-linejoin="round" stroke-opacity="0.000" stroke-width="1"/><path d="M9,27 C9,27 10,27 10,27 C10,27 10,29 10,29 C10,29 9,29 9,29 C9,29 9,27 9,27 " fill="rgb(5,5,5)" fill-opacity="1.000" fill-rule="evenodd" nch:accessory="pathfill" nch:path="8.8,27.1,8.8,27.1,10.3,27.1 10.3,27.1,10.3,27.1,10.3,28.6 10.3,28.6,10.3,28.6,8.8,28.6 8.8,28.6,8.8,28.6,8.8,27.1 8.8,27.1," stroke="rgb(255,255,255)" stroke-width="0"/><path d="M9,27 C9,27 10,27 10,27 C10,27 10,29 10,29 C10,29 9,29 9,29 C9,29 9,27 9,27 " fill="none" nch:path="8.8,27.1,8.8,27.1,10.3,27.1 10.3,27.1,10.3,27.1,10.3,28.6 10.3,28.6,10.3,28.6,8.8,28.6 8.8,28.6,8.8,28.6,8.8,27.1 8.8,27.1," nch:path-opacity="0" nch:penfill="rgba(5,5,5,255)" nch:stamp="pen" stroke="rgb(255,255,255)" stroke-linecap="round" stroke-linejoin="round" stroke-opacity="0.000" stroke-width="1"/><path d="M6,27 C6,27 7,27 7,27 C7,27 7,29 7,29 C7,29 6,29 6,29 C6,29 6,27 6,27 " fill="rgb(5,5,5)" fill-opacity="1.000" fill-rule="evenodd" nch:accessory="pathfill" nch:path="5.9,27.1,5.9,27.1,7.3,27.1 7.3,27.1,7.3,27.1,7.3,28.6 7.3,28.6,7.3,28.6,5.9,28.6 5.9,28.6,5.9,28.6,5.9,27.1 5.9,27.1," stroke="rgb(255,255,255)" stroke-width="0"/><path d="M6,27 C6,27 7,27 7,27 C7,27 7,29 7,29 C7,29 6,29 6,29 C6,29 6,27 6,27 " fill="none" nch:path="5.9,27.1,5.9,27.1,7.3,27.1 7.3,27.1,7.3,27.1,7.3,28.6 7.3,28.6,7.3,28.6,5.9,28.6 5.9,28.6,5.9,28.6,5.9,27.1 5.9,27.1," nch:path-opacity="0" nch:penfill="rgba(5,5,5,255)" nch:stamp="pen" stroke="rgb(255,255,255)" stroke-linecap="round" stroke-linejoin="round" stroke-opacity="0.000" stroke-width="1"/><path d="M7,14 C7,14 8,14 8,14 C8,14 8,15 8,15 C8,15 7,15 7,15 C7,15 7,14 7,14 " fill="rgb(5,5,5)" fill-opacity="1.000" fill-rule="evenodd" nch:accessory="pathfill" nch:path="6.6,13.9,6.6,13.9,8.1,13.9 8.1,13.9,8.1,13.9,8.1,15.4 8.1,15.4,8.1,15.4,6.6,15.4 6.6,15.4,6.6,15.4,6.6,13.9 6.6,13.9," stroke="rgb(255,255,255)" stroke-width="0"/><path d="M7,14 C7,14 8,14 8,14 C8,14 8,15 8,15 C8,15 7,15 7,15 C7,15 7,14 7,14 " fill="none" nch:path="6.6,13.9,6.6,13.9,8.1,13.9 8.1,13.9,8.1,13.9,8.1,15.4 8.1,15.4,8.1,15.4,6.6,15.4 6.6,15.4,6.6,15.4,6.6,13.9 6.6,13.9," nch:path-opacity="0" nch:penfill="rgba(5,5,5,255)" nch:stamp="pen" stroke="rgb(255,255,255)" stroke-linecap="round" stroke-linejoin="round" stroke-opacity="0.000" stroke-width="1"/><path d="M36,14 C36,14 37,14 37,14 C37,14 37,15 37,15 C37,15 36,15 36,15 C36,15 36,14 36,14 " fill="rgb(5,5,5)" fill-opacity="1.000" fill-rule="evenodd" nch:accessory="pathfill" nch:path="35.9,13.9,35.9,13.9,37.4,13.9 37.4,13.9,37.4,13.9,37.4,15.4 37.4,15.4,37.4,15.4,35.9,15.4 35.9,15.4,35.9,15.4,35.9,13.9 35.9,13.9," stroke="rgb(255,255,255)" stroke-width="0"/><path d="M36,14 C36,14 37,14 37,14 C37,14 37,15 37,15 C37,15 36,15 36,15 C36,15 36,14 36,14 " fill="none" nch:path="35.9,13.9,35.9,13.9,37.4,13.9 37.4,13.9,37.4,13.9,37.4,15.4 37.4,15.4,37.4,15.4,35.9,15.4 35.9,15.4,35.9,15.4,35.9,13.9 35.9,13.9," nch:path-opacity="0" nch:penfill="rgba(5,5,5,255)" nch:stamp="pen" stroke="rgb(255,255,255)" stroke-linecap="round" stroke-linejoin="round" stroke-opacity="0.000" stroke-width="1"/></g></svg>