<?xml version="1.0" standalone="no"?>
<!DOCTYPE svg PUBLIC "-//W3C//DTD SVG 1.1//EN"
"http://www.w3.org/Graphics/SVG/1.1/DTD/svg11.dtd">

<svg height="45" transform="translate(0.5,0.5)" version="1.1" width="44" xmlns="http://www.w3.org/2000/svg" xmlns:nch="http://www.nchsoftware.com/drawpad/" xmlns:xlink="http://www.w3.org/1999/xlink"><rect fill="rgb(255,255,255)" fill-opacity="1.000" height="45" id="background" width="44" x="0" y="0"/><g class="Layer"><linearGradient id="grad0" spreadMethod="reflect" x1="-456%" x2="-442%" y1="-490%" y2="-490%"><stop offset="0%" stop-color="rgb(106,155,244)" stop-opacity="1.000"/><stop offset="67%" stop-color="rgb(118,109,244)" stop-opacity="1.000"/><stop offset="100%" stop-color="rgb(0,0,0)" stop-opacity="1.000"/></linearGradient><path d="M33,17 C33,18 33,18 33,18 C34,19 34,19 35,19 C35,19 35,19 35,19 C35,19 36,19 36,18 C36,18 36,18 36,17 C36,17 38,17 38,17 C38,19 36,20 35,20 C33,20 31,19 31,17 C31,17 33,17 33,17 " fill="url(#grad0)" nch:path="32.6,17.1,32.6,17.6,32.8,18.1 33.2,18.4,33.5,18.8,34.0,19.0 34.5,19.0,34.5,19.0,34.5,19.0 34.5,19.0,35.0,19.0,35.5,18.8 35.9,18.4,36.2,18.1,36.4,17.6 36.4,17.1,36.4,17.1,37.9,17.1 37.9,17.1,37.9,19.0,36.4,20.5 34.5,20.5,32.6,20.5,31.1,19.0 31.1,17.1,31.1,17.1,32.6,17.1 32.6,17.1,"/><path d="M33,17 C33,18 33,18 33,18 C34,19 34,19 35,19 C35,19 35,19 35,19 C35,19 36,19 36,18 C36,18 36,18 36,17 C36,17 38,17 38,17 C38,19 36,20 35,20 C33,20 31,19 31,17 C31,17 33,17 33,17 " fill="none" nch:path="32.6,17.1,32.6,17.6,32.8,18.1 33.2,18.4,33.5,18.8,34.0,19.0 34.5,19.0,34.5,19.0,34.5,19.0 34.5,19.0,35.0,19.0,35.5,18.8 35.9,18.4,36.2,18.1,36.4,17.6 36.4,17.1,36.4,17.1,37.9,17.1 37.9,17.1,37.9,19.0,36.4,20.5 34.5,20.5,32.6,20.5,31.1,19.0 31.1,17.1,31.1,17.1,32.6,17.1 32.6,17.1," nch:path-opacity="0" nch:stamp="pen" stroke="rgb(255,255,255)" stroke-linecap="round" stroke-linejoin="round" stroke-opacity="0.000" stroke-width="1"/><path d="M10,47 C10,47 28,47 28,47 C28,47 28,46 29,46 C29,46 29,46 29,46 C29,46 29,38 29,38 C29,38 34,38 34,38 C36,38 37,38 38,37 C39,36 39,34 39,33 C39,33 39,28 39,28 C39,28 43,28 43,28 C43,28 43,28 43,28 C44,27 44,27 44,27 C44,27 44,27 44,27 C44,27 40,15 40,15 C40,15 40,15 40,15 C40,15 40,15 39,15 C39,15 27,15 27,15 C27,15 27,7 27,7 C27,7 28,7 28,7 C28,7 28,11 28,11 C28,11 30,11 30,11 C30,11 30,6 30,6 C30,6 29,6 29,6 C29,6 29,6 29,6 C29,6 27,6 27,6 C27,6 27,4 27,4 C27,4 27,4 27,3 C27,3 27,3 27,3 C27,3 24,3 24,3 C23,3 23,3 23,3 C23,4 23,4 23,4 C23,4 23,15 23,15 C23,15 20,15 20,15 C20,15 20,5 20,5 C20,5 20,5 20,4 C20,4 19,1 19,1 C19,1 19,1 19,1 C18,1 18,1 18,1 C18,1 18,1 18,1 C18,1 16,4 16,4 C16,5 16,5 16,5 C16,5 16,15 16,15 C16,15 14,15 14,15 C14,15 14,2 14,2 C14,2 14,1 13,1 C13,1 13,1 13,1 C13,1 13,1 13,1 C13,1 7,1 7,1 C7,1 6,1 6,1 C6,1 6,2 6,2 C6,2 6,15 6,15 C6,15 2,15 2,15 C2,15 2,15 2,15 C2,15 2,15 2,15 C2,15 2,30 2,30 C2,32 2,34 4,36 C5,37 7,38 9,38 C9,38 9,46 9,46 C9,46 9,46 9,46 C9,46 10,47 10,47 C10,47 10,47 10,47 C10,47 10,47 10,47 " fill="rgb(196,8,8)" fill-opacity="1.000" fill-rule="evenodd" nch:accessory="pathfill" nch:path="9.9,46.5,9.9,46.5,28.1,46.5 28.1,46.5,28.3,46.5,28.5,46.4 28.6,46.3,28.7,46.2,28.8,46.0 28.8,45.8,28.8,45.8,28.8,38.2 28.8,38.2,28.8,38.2,34.1,38.2 34.1,38.2,35.6,38.2,36.9,37.6 37.9,36.6,38.9,35.6,39.4,34.3 39.4,32.9,39.4,32.9,39.4,27.6 39.4,27.6,39.4,27.6,43.2,27.6 43.2,27.6,43.3,27.6,43.4,27.5 43.5,27.5,43.7,27.5,43.8,27.3 43.9,27.1,44.0,27.0,44.0,26.8 44.0,26.6,44.0,26.6,40.2,15.2 40.2,15.2,40.1,15.0,40.0,14.8 39.8,14.7,39.7,14.7,39.6,14.7 39.5,14.7,39.5,14.7,27.3,14.7 27.3,14.7,27.3,14.7,27.3,7.1 27.3,7.1,27.3,7.1,28.1,7.1 28.1,7.1,28.1,7.1,28.1,10.9 28.1,10.9,28.1,10.9,29.6,10.9 29.6,10.9,29.6,10.9,29.6,6.3 29.6,6.3,29.6,6.1,29.5,5.9 29.4,5.8,29.2,5.6,29.0,5.5 28.8,5.5,28.8,5.5,27.3,5.5 27.3,5.5,27.3,5.5,27.3,4.0 27.3,4.0,27.3,3.8,27.2,3.6 27.1,3.5,26.9,3.4,26.7,3.3 26.5,3.3,26.5,3.3,23.5,3.3 23.5,3.3,23.3,3.3,23.1,3.4 23.0,3.5,22.8,3.6,22.7,3.8 22.7,4.0,22.7,4.0,22.7,14.7 22.7,14.7,22.7,14.7,20.5,14.7 20.5,14.7,20.5,14.7,20.5,4.8 20.5,4.8,20.5,4.7,20.4,4.6 20.4,4.5,20.4,4.5,18.9,1.4 18.9,1.4,18.8,1.3,18.7,1.2 18.6,1.1,18.5,1.1,18.3,1.0 18.2,1.0,17.9,1.0,17.7,1.2 17.5,1.4,17.5,1.4,16.0,4.5 16.0,4.5,16.0,4.6,15.9,4.7 15.9,4.8,15.9,4.8,15.9,14.7 15.9,14.7,15.9,14.7,13.7,14.7 13.7,14.7,13.7,14.7,13.7,1.8 13.7,1.8,13.7,1.6,13.6,1.4 13.4,1.2,13.3,1.1,13.1,1.0 12.9,1.0,12.9,1.0,12.9,1.0 12.9,1.0,12.9,1.0,6.8,1.0 6.8,1.0,6.6,1.0,6.4,1.1 6.3,1.2,6.2,1.4,6.1,1.6 6.1,1.8,6.1,1.8,6.1,14.7 6.1,14.7,6.1,14.7,2.3,14.7 2.3,14.7,2.1,14.7,1.9,14.7 1.7,14.9,1.6,15.0,1.5,15.2 1.5,15.4,1.5,15.4,1.5,29.8 1.5,29.8,1.5,32.0,2.4,34.2 4.0,35.7,5.3,37.1,7.2,38.0 9.1,38.1,9.1,38.1,9.1,45.7 9.1,45.7,9.1,45.9,9.2,46.1 9.3,46.3,9.5,46.4,9.7,46.5 9.9,46.5,9.9,46.5,9.9,46.5 9.9,46.5,9.9,46.5,9.9,46.5 9.9,46.5," stroke="rgb(255,255,255)" stroke-width="0"/><path d="M10,47 C10,47 28,47 28,47 C28,47 28,46 29,46 C29,46 29,46 29,46 C29,46 29,38 29,38 C29,38 34,38 34,38 C36,38 37,38 38,37 C39,36 39,34 39,33 C39,33 39,28 39,28 C39,28 43,28 43,28 C43,28 43,28 43,28 C44,27 44,27 44,27 C44,27 44,27 44,27 C44,27 40,15 40,15 C40,15 40,15 40,15 C40,15 40,15 39,15 C39,15 27,15 27,15 C27,15 27,7 27,7 C27,7 28,7 28,7 C28,7 28,11 28,11 C28,11 30,11 30,11 C30,11 30,6 30,6 C30,6 29,6 29,6 C29,6 29,6 29,6 C29,6 27,6 27,6 C27,6 27,4 27,4 C27,4 27,4 27,3 C27,3 27,3 27,3 C27,3 24,3 24,3 C23,3 23,3 23,3 C23,4 23,4 23,4 C23,4 23,15 23,15 C23,15 20,15 20,15 C20,15 20,5 20,5 C20,5 20,5 20,4 C20,4 19,1 19,1 C19,1 19,1 19,1 C18,1 18,1 18,1 C18,1 18,1 18,1 C18,1 16,4 16,4 C16,5 16,5 16,5 C16,5 16,15 16,15 C16,15 14,15 14,15 C14,15 14,2 14,2 C14,2 14,1 13,1 C13,1 13,1 13,1 C13,1 13,1 13,1 C13,1 7,1 7,1 C7,1 6,1 6,1 C6,1 6,2 6,2 C6,2 6,15 6,15 C6,15 2,15 2,15 C2,15 2,15 2,15 C2,15 2,15 2,15 C2,15 2,30 2,30 C2,32 2,34 4,36 C5,37 7,38 9,38 C9,38 9,46 9,46 C9,46 9,46 9,46 C9,46 10,47 10,47 C10,47 10,47 10,47 C10,47 10,47 10,47 " fill="none" nch:path="9.9,46.5,9.9,46.5,28.1,46.5 28.1,46.5,28.3,46.5,28.5,46.4 28.6,46.3,28.7,46.2,28.8,46.0 28.8,45.8,28.8,45.8,28.8,38.2 28.8,38.2,28.8,38.2,34.1,38.2 34.1,38.2,35.6,38.2,36.9,37.6 37.9,36.6,38.9,35.6,39.4,34.3 39.4,32.9,39.4,32.9,39.4,27.6 39.4,27.6,39.4,27.6,43.2,27.6 43.2,27.6,43.3,27.6,43.4,27.5 43.5,27.5,43.7,27.5,43.8,27.3 43.9,27.1,44.0,27.0,44.0,26.8 44.0,26.6,44.0,26.6,40.2,15.2 40.2,15.2,40.1,15.0,40.0,14.8 39.8,14.7,39.7,14.7,39.6,14.7 39.5,14.7,39.5,14.7,27.3,14.7 27.3,14.7,27.3,14.7,27.3,7.1 27.3,7.1,27.3,7.1,28.1,7.1 28.1,7.1,28.1,7.1,28.1,10.9 28.1,10.9,28.1,10.9,29.6,10.9 29.6,10.9,29.6,10.9,29.6,6.3 29.6,6.3,29.6,6.1,29.5,5.9 29.4,5.8,29.2,5.6,29.0,5.5 28.8,5.5,28.8,5.5,27.3,5.5 27.3,5.5,27.3,5.5,27.3,4.0 27.3,4.0,27.3,3.8,27.2,3.6 27.1,3.5,26.9,3.4,26.7,3.3 26.5,3.3,26.5,3.3,23.5,3.3 23.5,3.3,23.3,3.3,23.1,3.4 23.0,3.5,22.8,3.6,22.7,3.8 22.7,4.0,22.7,4.0,22.7,14.7 22.7,14.7,22.7,14.7,20.5,14.7 20.5,14.7,20.5,14.7,20.5,4.8 20.5,4.8,20.5,4.7,20.4,4.6 20.4,4.5,20.4,4.5,18.9,1.4 18.9,1.4,18.8,1.3,18.7,1.2 18.6,1.1,18.5,1.1,18.3,1.0 18.2,1.0,17.9,1.0,17.7,1.2 17.5,1.4,17.5,1.4,16.0,4.5 16.0,4.5,16.0,4.6,15.9,4.7 15.9,4.8,15.9,4.8,15.9,14.7 15.9,14.7,15.9,14.7,13.7,14.7 13.7,14.7,13.7,14.7,13.7,1.8 13.7,1.8,13.7,1.6,13.6,1.4 13.4,1.2,13.3,1.1,13.1,1.0 12.9,1.0,12.9,1.0,12.9,1.0 12.9,1.0,12.9,1.0,6.8,1.0 6.8,1.0,6.6,1.0,6.4,1.1 6.3,1.2,6.2,1.4,6.1,1.6 6.1,1.8,6.1,1.8,6.1,14.7 6.1,14.7,6.1,14.7,2.3,14.7 2.3,14.7,2.1,14.7,1.9,14.7 1.7,14.9,1.6,15.0,1.5,15.2 1.5,15.4,1.5,15.4,1.5,29.8 1.5,29.8,1.5,32.0,2.4,34.2 4.0,35.7,5.3,37.1,7.2,38.0 9.1,38.1,9.1,38.1,9.1,45.7 9.1,45.7,9.1,45.9,9.2,46.1 9.3,46.3,9.5,46.4,9.7,46.5 9.9,46.5,9.9,46.5,9.9,46.5 9.9,46.5,9.9,46.5,9.9,46.5 9.9,46.5," nch:path-opacity="0" nch:penfill="rgba(196,8,8,255)" nch:stamp="pen" stroke="rgb(255,255,255)" stroke-linecap="round" stroke-linejoin="round" stroke-opacity="0.000" stroke-width="1"/><path d="M27,37 C27,37 27,44 27,44 C27,44 11,44 11,44 C11,44 11,36 11,36 C11,36 11,36 10,36 C10,36 10,36 10,36 C8,36 6,35 5,34 C4,32 3,31 3,29 C3,29 3,15 3,15 C3,15 39,15 39,15 C39,15 42,25 42,25 C42,25 39,25 39,25 C38,25 38,25 38,25 C38,25 38,26 38,26 C38,26 38,32 38,32 C38,33 38,34 37,35 C36,35 35,36 34,36 C34,36 24,36 24,36 C24,36 24,37 24,37 C24,37 27,37 27,37 " fill="rgb(5,5,5)" fill-opacity="1.000" fill-rule="evenodd" nch:accessory="pathfill" nch:path="27.3,37.2,27.3,37.2,27.3,44.0 27.3,44.0,27.3,44.0,10.6,44.0 10.6,44.0,10.6,44.0,10.6,36.4 10.6,36.4,10.6,36.2,10.5,36.0 10.4,35.9,10.2,35.7,10.0,35.7 9.8,35.7,8.0,35.6,6.3,34.9 5.0,33.6,3.7,32.4,3.0,30.6 3.0,28.8,3.0,28.8,3.0,15.2 3.0,15.2,3.0,15.2,38.9,15.2 38.9,15.2,38.9,15.2,42.2,25.0 42.2,25.0,42.2,25.0,38.7,25.0 38.7,25.0,38.5,25.0,38.3,25.1 38.2,25.3,38.0,25.4,37.9,25.6 37.9,25.8,37.9,25.8,37.9,31.9 37.9,31.9,37.9,32.9,37.5,33.8 36.8,34.5,36.1,35.3,35.1,35.7 34.1,35.7,34.1,35.7,23.5,35.7 23.5,35.7,23.5,35.7,23.5,37.2 23.5,37.2,23.5,37.2,27.3,37.2 27.3,37.2," stroke="rgb(255,255,255)" stroke-width="0"/><path d="M27,37 C27,37 27,44 27,44 C27,44 11,44 11,44 C11,44 11,36 11,36 C11,36 11,36 10,36 C10,36 10,36 10,36 C8,36 6,35 5,34 C4,32 3,31 3,29 C3,29 3,15 3,15 C3,15 39,15 39,15 C39,15 42,25 42,25 C42,25 39,25 39,25 C38,25 38,25 38,25 C38,25 38,26 38,26 C38,26 38,32 38,32 C38,33 38,34 37,35 C36,35 35,36 34,36 C34,36 24,36 24,36 C24,36 24,37 24,37 C24,37 27,37 27,37 " fill="none" nch:path="27.3,37.2,27.3,37.2,27.3,44.0 27.3,44.0,27.3,44.0,10.6,44.0 10.6,44.0,10.6,44.0,10.6,36.4 10.6,36.4,10.6,36.2,10.5,36.0 10.4,35.9,10.2,35.7,10.0,35.7 9.8,35.7,8.0,35.6,6.3,34.9 5.0,33.6,3.7,32.4,3.0,30.6 3.0,28.8,3.0,28.8,3.0,15.2 3.0,15.2,3.0,15.2,38.9,15.2 38.9,15.2,38.9,15.2,42.2,25.0 42.2,25.0,42.2,25.0,38.7,25.0 38.7,25.0,38.5,25.0,38.3,25.1 38.2,25.3,38.0,25.4,37.9,25.6 37.9,25.8,37.9,25.8,37.9,31.9 37.9,31.9,37.9,32.9,37.5,33.8 36.8,34.5,36.1,35.3,35.1,35.7 34.1,35.7,34.1,35.7,23.5,35.7 23.5,35.7,23.5,35.7,23.5,37.2 23.5,37.2,23.5,37.2,27.3,37.2 27.3,37.2," nch:path-opacity="0" nch:penfill="rgba(5,5,5,255)" nch:stamp="pen" stroke="rgb(255,255,255)" stroke-linecap="round" stroke-linejoin="round" stroke-opacity="0.000" stroke-width="1"/><path d="M12,10 C12,10 12,13 12,13 C12,13 10,13 10,13 C10,13 10,14 10,14 C10,14 8,14 8,14 C8,14 8,2 8,2 C8,2 12,2 12,2 C12,2 12,4 12,4 C12,4 11,4 11,4 C11,4 11,5 11,5 C11,5 12,5 12,5 C12,5 12,8 12,8 C12,8 11,8 11,8 C11,8 11,10 11,10 C11,10 12,10 12,10 " fill="rgb(5,5,5)" fill-opacity="1.000" fill-rule="evenodd" nch:accessory="pathfill" nch:path="12.1,9.9,12.1,9.9,12.1,12.9 12.1,12.9,12.1,12.9,9.9,12.9 9.9,12.9,9.9,12.9,9.9,13.7 9.9,13.7,9.9,13.7,7.6,13.7 7.6,13.7,7.6,13.7,7.6,1.5 7.6,1.5,7.6,1.5,12.1,1.5 12.1,1.5,12.1,1.5,12.1,3.8 12.1,3.8,12.1,3.8,11.4,3.8 11.4,3.8,11.4,3.8,11.4,5.3 11.4,5.3,11.4,5.3,12.1,5.3 12.1,5.3,12.1,5.3,12.1,8.3 12.1,8.3,12.1,8.3,11.4,8.3 11.4,8.3,11.4,8.3,11.4,9.9 11.4,9.9,11.4,9.9,12.1,9.9 12.1,9.9," stroke="rgb(255,255,255)" stroke-width="0"/><path d="M12,10 C12,10 12,13 12,13 C12,13 10,13 10,13 C10,13 10,14 10,14 C10,14 8,14 8,14 C8,14 8,2 8,2 C8,2 12,2 12,2 C12,2 12,4 12,4 C12,4 11,4 11,4 C11,4 11,5 11,5 C11,5 12,5 12,5 C12,5 12,8 12,8 C12,8 11,8 11,8 C11,8 11,10 11,10 C11,10 12,10 12,10 " fill="none" nch:path="12.1,9.9,12.1,9.9,12.1,12.9 12.1,12.9,12.1,12.9,9.9,12.9 9.9,12.9,9.9,12.9,9.9,13.7 9.9,13.7,9.9,13.7,7.6,13.7 7.6,13.7,7.6,13.7,7.6,1.5 7.6,1.5,7.6,1.5,12.1,1.5 12.1,1.5,12.1,1.5,12.1,3.8 12.1,3.8,12.1,3.8,11.4,3.8 11.4,3.8,11.4,3.8,11.4,5.3 11.4,5.3,11.4,5.3,12.1,5.3 12.1,5.3,12.1,5.3,12.1,8.3 12.1,8.3,12.1,8.3,11.4,8.3 11.4,8.3,11.4,8.3,11.4,9.9 11.4,9.9,11.4,9.9,12.1,9.9 12.1,9.9," nch:path-opacity="0" nch:penfill="rgba(5,5,5,255)" nch:stamp="pen" stroke="rgb(255,255,255)" stroke-linecap="round" stroke-linejoin="round" stroke-opacity="0.000" stroke-width="1"/><path d="M18,2 C18,2 19,4 19,4 C19,4 19,14 19,14 C19,14 17,14 17,14 C17,14 17,4 17,4 C17,4 18,2 18,2 C18,2 18,2 18,2 " fill="rgb(5,5,5)" fill-opacity="1.000" fill-rule="evenodd" nch:accessory="pathfill" nch:path="18.2,2.5,18.2,2.5,19.0,4.0 19.0,4.0,19.0,4.0,19.0,13.7 19.0,13.7,19.0,13.7,17.5,13.7 17.5,13.7,17.5,13.7,17.5,4.0 17.5,4.0,17.5,4.0,18.2,2.5 18.2,2.5,18.2,2.5,18.2,2.5 18.2,2.5," stroke="rgb(255,255,255)" stroke-width="0"/><path d="M18,2 C18,2 19,4 19,4 C19,4 19,14 19,14 C19,14 17,14 17,14 C17,14 17,4 17,4 C17,4 18,2 18,2 C18,2 18,2 18,2 " fill="none" nch:path="18.2,2.5,18.2,2.5,19.0,4.0 19.0,4.0,19.0,4.0,19.0,13.7 19.0,13.7,19.0,13.7,17.5,13.7 17.5,13.7,17.5,13.7,17.5,4.0 17.5,4.0,17.5,4.0,18.2,2.5 18.2,2.5,18.2,2.5,18.2,2.5 18.2,2.5," nch:path-opacity="0" nch:penfill="rgba(5,5,5,255)" nch:stamp="pen" stroke="rgb(255,255,255)" stroke-linecap="round" stroke-linejoin="round" stroke-opacity="0.000" stroke-width="1"/><path d="M26,9 C26,9 26,14 26,14 C26,14 24,14 24,14 C24,14 24,9 24,9 C24,9 26,9 26,9 " fill="rgb(5,5,5)" fill-opacity="1.000" fill-rule="evenodd" nch:accessory="pathfill" nch:path="25.8,9.1,25.8,9.1,25.8,13.7 25.8,13.7,25.8,13.7,24.3,13.7 24.3,13.7,24.3,13.7,24.3,9.1 24.3,9.1,24.3,9.1,25.8,9.1 25.8,9.1," stroke="rgb(255,255,255)" stroke-width="0"/><path d="M26,9 C26,9 26,14 26,14 C26,14 24,14 24,14 C24,14 24,9 24,9 C24,9 26,9 26,9 " fill="none" nch:path="25.8,9.1,25.8,9.1,25.8,13.7 25.8,13.7,25.8,13.7,24.3,13.7 24.3,13.7,24.3,13.7,24.3,9.1 24.3,9.1,24.3,9.1,25.8,9.1 25.8,9.1," nch:path-opacity="0" nch:penfill="rgba(5,5,5,255)" nch:stamp="pen" stroke="rgb(255,255,255)" stroke-linecap="round" stroke-linejoin="round" stroke-opacity="0.000" stroke-width="1"/><path d="M26,4 C26,4 26,8 26,8 C26,8 24,8 24,8 C24,8 24,4 24,4 C24,4 26,4 26,4 " fill="rgb(10,10,10)" fill-opacity="1.000" fill-rule="evenodd" nch:accessory="pathfill" nch:path="25.8,3.8,25.8,3.8,25.8,7.6 25.8,7.6,25.8,7.6,24.3,7.6 24.3,7.6,24.3,7.6,24.3,3.8 24.3,3.8,24.3,3.8,25.8,3.8 25.8,3.8," stroke="rgb(255,255,255)" stroke-width="0"/><path d="M26,4 C26,4 26,8 26,8 C26,8 24,8 24,8 C24,8 24,4 24,4 C24,4 26,4 26,4 " fill="none" nch:path="25.8,3.8,25.8,3.8,25.8,7.6 25.8,7.6,25.8,7.6,24.3,7.6 24.3,7.6,24.3,7.6,24.3,3.8 24.3,3.8,24.3,3.8,25.8,3.8 25.8,3.8," nch:path-opacity="0" nch:penfill="rgba(10,10,10,255)" nch:stamp="pen" stroke="rgb(255,255,255)" stroke-linecap="round" stroke-linejoin="round" stroke-opacity="0.000" stroke-width="1"/><path d="M33,1 C33,1 35,1 35,1 C35,1 35,2 35,2 C35,2 33,2 33,2 C33,2 33,1 33,1 " fill="rgb(196,8,8)" fill-opacity="1.000" fill-rule="evenodd" nch:accessory="pathfill" nch:path="33.4,0.8,33.4,0.8,34.9,0.8 34.9,0.8,34.9,0.8,34.9,2.3 34.9,2.3,34.9,2.3,33.4,2.3 33.4,2.3,33.4,2.3,33.4,0.8 33.4,0.8," stroke="rgb(255,255,255)" stroke-width="0"/><path d="M33,1 C33,1 35,1 35,1 C35,1 35,2 35,2 C35,2 33,2 33,2 C33,2 33,1 33,1 " fill="none" nch:path="33.4,0.8,33.4,0.8,34.9,0.8 34.9,0.8,34.9,0.8,34.9,2.3 34.9,2.3,34.9,2.3,33.4,2.3 33.4,2.3,33.4,2.3,33.4,0.8 33.4,0.8," nch:path-opacity="0" nch:penfill="rgba(196,8,8,255)" nch:stamp="pen" stroke="rgb(255,255,255)" stroke-linecap="round" stroke-linejoin="round" stroke-opacity="0.000" stroke-width="1"/><path d="M32,2 C32,2 33,2 33,2 C33,2 33,4 33,4 C33,4 32,4 32,4 C32,4 32,2 32,2 " fill="rgb(196,8,8)" fill-opacity="1.000" fill-rule="evenodd" nch:accessory="pathfill" nch:path="31.9,2.3,31.9,2.3,33.4,2.3 33.4,2.3,33.4,2.3,33.4,3.8 33.4,3.8,33.4,3.8,31.9,3.8 31.9,3.8,31.9,3.8,31.9,2.3 31.9,2.3," stroke="rgb(255,255,255)" stroke-width="0"/><path d="M32,2 C32,2 33,2 33,2 C33,2 33,4 33,4 C33,4 32,4 32,4 C32,4 32,2 32,2 " fill="none" nch:path="31.9,2.3,31.9,2.3,33.4,2.3 33.4,2.3,33.4,2.3,33.4,3.8 33.4,3.8,33.4,3.8,31.9,3.8 31.9,3.8,31.9,3.8,31.9,2.3 31.9,2.3," nch:path-opacity="0" nch:penfill="rgba(196,8,8,255)" nch:stamp="pen" stroke="rgb(255,255,255)" stroke-linecap="round" stroke-linejoin="round" stroke-opacity="0.000" stroke-width="1"/><path d="M33,4 C33,4 35,4 35,4 C35,4 35,5 35,5 C35,5 33,5 33,5 C33,5 33,4 33,4 " fill="rgb(196,8,8)" fill-opacity="1.000" fill-rule="evenodd" nch:accessory="pathfill" nch:path="33.4,3.8,33.4,3.8,34.9,3.8 34.9,3.8,34.9,3.8,34.9,5.3 34.9,5.3,34.9,5.3,33.4,5.3 33.4,5.3,33.4,5.3,33.4,3.8 33.4,3.8," stroke="rgb(255,255,255)" stroke-width="0"/><path d="M33,4 C33,4 35,4 35,4 C35,4 35,5 35,5 C35,5 33,5 33,5 C33,5 33,4 33,4 " fill="none" nch:path="33.4,3.8,33.4,3.8,34.9,3.8 34.9,3.8,34.9,3.8,34.9,5.3 34.9,5.3,34.9,5.3,33.4,5.3 33.4,5.3,33.4,5.3,33.4,3.8 33.4,3.8," nch:path-opacity="0" nch:penfill="rgba(196,8,8,255)" nch:stamp="pen" stroke="rgb(255,255,255)" stroke-linecap="round" stroke-linejoin="round" stroke-opacity="0.000" stroke-width="1"/><path d="M35,2 C35,2 36,2 36,2 C36,2 36,4 36,4 C36,4 35,4 35,4 C35,4 35,2 35,2 " fill="rgb(196,8,8)" fill-opacity="1.000" fill-rule="evenodd" nch:accessory="pathfill" nch:path="34.9,2.3,34.9,2.3,36.4,2.3 36.4,2.3,36.4,2.3,36.4,3.8 36.4,3.8,36.4,3.8,34.9,3.8 34.9,3.8,34.9,3.8,34.9,2.3 34.9,2.3," stroke="rgb(255,255,255)" stroke-width="0"/><path d="M35,2 C35,2 36,2 36,2 C36,2 36,4 36,4 C36,4 35,4 35,4 C35,4 35,2 35,2 " fill="none" nch:path="34.9,2.3,34.9,2.3,36.4,2.3 36.4,2.3,36.4,2.3,36.4,3.8 36.4,3.8,36.4,3.8,34.9,3.8 34.9,3.8,34.9,3.8,34.9,2.3 34.9,2.3," nch:path-opacity="0" nch:penfill="rgba(196,8,8,255)" nch:stamp="pen" stroke="rgb(255,255,255)" stroke-linecap="round" stroke-linejoin="round" stroke-opacity="0.000" stroke-width="1"/><path d="M39,7 C39,7 41,7 41,7 C41,7 41,8 41,8 C41,8 39,8 39,8 C39,8 39,7 39,7 " fill="rgb(196,8,8)" fill-opacity="1.000" fill-rule="evenodd" nch:accessory="pathfill" nch:path="39.4,6.8,39.4,6.8,41.0,6.8 41.0,6.8,41.0,6.8,41.0,8.3 41.0,8.3,41.0,8.3,39.4,8.3 39.4,8.3,39.4,8.3,39.4,6.8 39.4,6.8," stroke="rgb(255,255,255)" stroke-width="0"/><path d="M39,7 C39,7 41,7 41,7 C41,7 41,8 41,8 C41,8 39,8 39,8 C39,8 39,7 39,7 " fill="none" nch:path="39.4,6.8,39.4,6.8,41.0,6.8 41.0,6.8,41.0,6.8,41.0,8.3 41.0,8.3,41.0,8.3,39.4,8.3 39.4,8.3,39.4,8.3,39.4,6.8 39.4,6.8," nch:path-opacity="0" nch:penfill="rgba(196,8,8,255)" nch:stamp="pen" stroke="rgb(255,255,255)" stroke-linecap="round" stroke-linejoin="round" stroke-opacity="0.000" stroke-width="1"/><path d="M38,8 C38,8 39,8 39,8 C39,8 39,10 39,10 C39,10 38,10 38,10 C38,10 38,8 38,8 " fill="rgb(196,8,8)" fill-opacity="1.000" fill-rule="evenodd" nch:accessory="pathfill" nch:path="37.9,8.3,37.9,8.3,39.4,8.3 39.4,8.3,39.4,8.3,39.4,9.9 39.4,9.9,39.4,9.9,37.9,9.9 37.9,9.9,37.9,9.9,37.9,8.3 37.9,8.3," stroke="rgb(255,255,255)" stroke-width="0"/><path d="M38,8 C38,8 39,8 39,8 C39,8 39,10 39,10 C39,10 38,10 38,10 C38,10 38,8 38,8 " fill="none" nch:path="37.9,8.3,37.9,8.3,39.4,8.3 39.4,8.3,39.4,8.3,39.4,9.9 39.4,9.9,39.4,9.9,37.9,9.9 37.9,9.9,37.9,9.9,37.9,8.3 37.9,8.3," nch:path-opacity="0" nch:penfill="rgba(196,8,8,255)" nch:stamp="pen" stroke="rgb(255,255,255)" stroke-linecap="round" stroke-linejoin="round" stroke-opacity="0.000" stroke-width="1"/><path d="M39,10 C39,10 41,10 41,10 C41,10 41,11 41,11 C41,11 39,11 39,11 C39,11 39,10 39,10 " fill="rgb(196,8,8)" fill-opacity="1.000" fill-rule="evenodd" nch:accessory="pathfill" nch:path="39.4,9.9,39.4,9.9,41.0,9.9 41.0,9.9,41.0,9.9,41.0,11.4 41.0,11.4,41.0,11.4,39.4,11.4 39.4,11.4,39.4,11.4,39.4,9.9 39.4,9.9," stroke="rgb(255,255,255)" stroke-width="0"/><path d="M39,10 C39,10 41,10 41,10 C41,10 41,11 41,11 C41,11 39,11 39,11 C39,11 39,10 39,10 " fill="none" nch:path="39.4,9.9,39.4,9.9,41.0,9.9 41.0,9.9,41.0,9.9,41.0,11.4 41.0,11.4,41.0,11.4,39.4,11.4 39.4,11.4,39.4,11.4,39.4,9.9 39.4,9.9," nch:path-opacity="0" nch:penfill="rgba(196,8,8,255)" nch:stamp="pen" stroke="rgb(255,255,255)" stroke-linecap="round" stroke-linejoin="round" stroke-opacity="0.000" stroke-width="1"/><path d="M41,8 C41,8 42,8 42,8 C42,8 42,10 42,10 C42,10 41,10 41,10 C41,10 41,8 41,8 " fill="rgb(196,8,8)" fill-opacity="1.000" fill-rule="evenodd" nch:accessory="pathfill" nch:path="41.0,8.3,41.0,8.3,42.5,8.3 42.5,8.3,42.5,8.3,42.5,9.9 42.5,9.9,42.5,9.9,41.0,9.9 41.0,9.9,41.0,9.9,41.0,8.3 41.0,8.3," stroke="rgb(255,255,255)" stroke-width="0"/><path d="M41,8 C41,8 42,8 42,8 C42,8 42,10 42,10 C42,10 41,10 41,10 C41,10 41,8 41,8 " fill="none" nch:path="41.0,8.3,41.0,8.3,42.5,8.3 42.5,8.3,42.5,8.3,42.5,9.9 42.5,9.9,42.5,9.9,41.0,9.9 41.0,9.9,41.0,9.9,41.0,8.3 41.0,8.3," nch:path-opacity="0" nch:penfill="rgba(196,8,8,255)" nch:stamp="pen" stroke="rgb(255,255,255)" stroke-linecap="round" stroke-linejoin="round" stroke-opacity="0.000" stroke-width="1"/><path d="M2,3 C2,3 3,3 3,3 C3,3 3,5 3,5 C3,5 2,5 2,5 C2,5 2,3 2,3 " fill="rgb(196,8,8)" fill-opacity="1.000" fill-rule="evenodd" nch:accessory="pathfill" nch:path="1.5,3.0,1.5,3.0,3.0,3.0 3.0,3.0,3.0,3.0,3.0,4.6 3.0,4.6,3.0,4.6,1.5,4.6 1.5,4.6,1.5,4.6,1.5,3.0 1.5,3.0," stroke="rgb(255,255,255)" stroke-width="0"/><path d="M2,3 C2,3 3,3 3,3 C3,3 3,5 3,5 C3,5 2,5 2,5 C2,5 2,3 2,3 " fill="none" nch:path="1.5,3.0,1.5,3.0,3.0,3.0 3.0,3.0,3.0,3.0,3.0,4.6 3.0,4.6,3.0,4.6,1.5,4.6 1.5,4.6,1.5,4.6,1.5,3.0 1.5,3.0," nch:path-opacity="0" nch:penfill="rgba(196,8,8,255)" nch:stamp="pen" stroke="rgb(255,255,255)" stroke-linecap="round" stroke-linejoin="round" stroke-opacity="0.000" stroke-width="1"/><path d="M0,5 C0,5 2,5 2,5 C2,5 2,6 2,6 C2,6 0,6 0,6 C0,6 0,5 0,5 " fill="rgb(196,8,8)" fill-opacity="1.000" fill-rule="evenodd" nch:accessory="pathfill" nch:path="0.0,4.6,0.0,4.6,1.5,4.6 1.5,4.6,1.5,4.6,1.5,6.1 1.5,6.1,1.5,6.1,0.0,6.1 0.0,6.1,0.0,6.1,0.0,4.6 0.0,4.6," stroke="rgb(255,255,255)" stroke-width="0"/><path d="M0,5 C0,5 2,5 2,5 C2,5 2,6 2,6 C2,6 0,6 0,6 C0,6 0,5 0,5 " fill="none" nch:path="0.0,4.6,0.0,4.6,1.5,4.6 1.5,4.6,1.5,4.6,1.5,6.1 1.5,6.1,1.5,6.1,0.0,6.1 0.0,6.1,0.0,6.1,0.0,4.6 0.0,4.6," nch:path-opacity="0" nch:penfill="rgba(196,8,8,255)" nch:stamp="pen" stroke="rgb(255,255,255)" stroke-linecap="round" stroke-linejoin="round" stroke-opacity="0.000" stroke-width="1"/><path d="M2,6 C2,6 3,6 3,6 C3,6 3,8 3,8 C3,8 2,8 2,8 C2,8 2,6 2,6 " fill="rgb(196,8,8)" fill-opacity="1.000" fill-rule="evenodd" nch:accessory="pathfill" nch:path="1.5,6.1,1.5,6.1,3.0,6.1 3.0,6.1,3.0,6.1,3.0,7.6 3.0,7.6,3.0,7.6,1.5,7.6 1.5,7.6,1.5,7.6,1.5,6.1 1.5,6.1," stroke="rgb(255,255,255)" stroke-width="0"/><path d="M2,6 C2,6 3,6 3,6 C3,6 3,8 3,8 C3,8 2,8 2,8 C2,8 2,6 2,6 " fill="none" nch:path="1.5,6.1,1.5,6.1,3.0,6.1 3.0,6.1,3.0,6.1,3.0,7.6 3.0,7.6,3.0,7.6,1.5,7.6 1.5,7.6,1.5,7.6,1.5,6.1 1.5,6.1," nch:path-opacity="0" nch:penfill="rgba(196,8,8,255)" nch:stamp="pen" stroke="rgb(255,255,255)" stroke-linecap="round" stroke-linejoin="round" stroke-opacity="0.000" stroke-width="1"/><path d="M3,5 C3,5 5,5 5,5 C5,5 5,6 5,6 C5,6 3,6 3,6 C3,6 3,5 3,5 " fill="rgb(196,8,8)" fill-opacity="1.000" fill-rule="evenodd" nch:accessory="pathfill" nch:path="3.0,4.6,3.0,4.6,4.6,4.6 4.6,4.6,4.6,4.6,4.6,6.1 4.6,6.1,4.6,6.1,3.0,6.1 3.0,6.1,3.0,6.1,3.0,4.6 3.0,4.6," stroke="rgb(255,255,255)" stroke-width="0"/><path d="M3,5 C3,5 5,5 5,5 C5,5 5,6 5,6 C5,6 3,6 3,6 C3,6 3,5 3,5 " fill="none" nch:path="3.0,4.6,3.0,4.6,4.6,4.6 4.6,4.6,4.6,4.6,4.6,6.1 4.6,6.1,4.6,6.1,3.0,6.1 3.0,6.1,3.0,6.1,3.0,4.6 3.0,4.6," nch:path-opacity="0" nch:penfill="rgba(196,8,8,255)" nch:stamp="pen" stroke="rgb(255,255,255)" stroke-linecap="round" stroke-linejoin="round" stroke-opacity="0.000" stroke-width="1"/><symbol id="Symbol1"><path d=" M-0.10,0.20 L0.10,0.20 L0.10,0.40 L-0.10,0.40 z M-0.00,0.40 L0.20,0.40 L0.20,0.60 L-0.00,0.60 z M-0.00,0.50 L0.20,0.50 L0.20,0.70 L-0.00,0.70 z M0.10,1.00 L0.30,1.00 L0.30,1.20 L0.10,1.20 z M-0.10,1.30 L0.10,1.30 L0.10,1.50 L-0.10,1.50 z M0.40,-0.10 L0.60,-0.10 L0.60,0.10 L0.40,0.10 z M0.30,0.30 L0.50,0.30 L0.50,0.50 L0.30,0.50 z M0.40,0.80 L0.60,0.80 L0.60,1.00 L0.40,1.00 z M0.20,0.80 L0.40,0.80 L0.40,1.00 L0.20,1.00 z M0.20,1.10 L0.40,1.10 L0.40,1.30 L0.20,1.30 z M0.30,1.60 L0.50,1.60 L0.50,1.80 L0.30,1.80 z M0.50,0.10 L0.70,0.10 L0.70,0.30 L0.50,0.30 z M0.70,0.30 L0.90,0.30 L0.90,0.50 L0.70,0.50 z M0.70,0.80 L0.90,0.80 L0.90,1.00 L0.70,1.00 z M0.70,1.00 L0.90,1.00 L0.90,1.20 L0.70,1.20 z M0.50,1.30 L0.70,1.30 L0.70,1.50 L0.50,1.50 z M0.70,1.60 L0.90,1.60 L0.90,1.80 L0.70,1.80 z M1.00,-0.10 L1.20,-0.10 L1.20,0.10 L1.00,0.10 z M0.90,0.30 L1.10,0.30 L1.10,0.50 L0.90,0.50 z M0.90,0.70 L1.10,0.70 L1.10,0.90 L0.90,0.90 z M0.90,0.90 L1.10,0.90 L1.10,1.10 L0.90,1.10 z M0.80,1.20 L1.00,1.20 L1.00,1.40 L0.80,1.40 z M1.00,1.50 L1.20,1.50 L1.20,1.70 L1.00,1.70 z M1.40,-0.00 L1.60,-0.00 L1.60,0.20 L1.40,0.20 z M1.10,0.20 L1.30,0.20 L1.30,0.40 L1.10,0.40 z M1.20,0.50 L1.40,0.50 L1.40,0.70 L1.20,0.70 z M1.30,1.10 L1.50,1.10 L1.50,1.30 L1.30,1.30 z M1.10,1.20 L1.30,1.20 L1.30,1.40 L1.10,1.40 z M1.40,1.70 L1.60,1.70 L1.60,1.90 L1.40,1.90 z M1.40,0.40 L1.60,0.40 L1.60,0.60 L1.40,0.60 z M1.60,0.60 L1.80,0.60 L1.80,0.80 L1.60,0.80 z M1.50,1.00 L1.70,1.00 L1.70,1.20 L1.50,1.20 z M1.60,1.20 L1.80,1.20 L1.80,1.40 L1.60,1.40 z" fill="rgb(255,255,255)" fill-opacity="1.000" stroke-linecap="round" stroke-width="0"/></symbol><filter height="300%" id="filter2" width="300%" x="-100%" y="-100%"><feComponentTransfer><feFuncR type="identity"/><feFuncG type="identity"/><feFuncB type="identity"/><feFuncA amplitude="0.000" type="gamma"/></feComponentTransfer></filter><g fill="rgb(255,255,255)" filter="url(#filter2)" nch:grouptype="stamp" nch:path="35.9,18.6,35.9,18.6,35.3,19.9 35.1,20.1,35.0,20.4,35.0,20.1 35.0,20.1,35.0,20.1,34.8,20.1 34.8,20.1," nch:path-opacity="0" nch:stamp="pencil" nch:stampwidth="2.000000" stroke-width="0"><use transform="rotate(213,35.9,18.6)" x="34.9" xlink:href="#Symbol1" y="17.6"/><use transform="rotate(272,35.6,19.2)" x="34.6" xlink:href="#Symbol1" y="18.2"/><use transform="rotate(198,35.3,19.8)" x="34.3" xlink:href="#Symbol1" y="18.8"/></g><symbol id="Symbol3"><path d=" M0.10,-0.10 L0.30,-0.10 L0.30,0.10 L0.10,0.10 z M0.10,0.40 L0.30,0.40 L0.30,0.60 L0.10,0.60 z M-0.00,0.60 L0.20,0.60 L0.20,0.80 L-0.00,0.80 z M0.10,1.00 L0.30,1.00 L0.30,1.20 L0.10,1.20 z M0.10,1.30 L0.30,1.30 L0.30,1.50 L0.10,1.50 z M0.40,-0.00 L0.60,-0.00 L0.60,0.20 L0.40,0.20 z M0.50,0.20 L0.70,0.20 L0.70,0.40 L0.50,0.40 z M0.20,0.60 L0.40,0.60 L0.40,0.80 L0.20,0.80 z M0.30,0.80 L0.50,0.80 L0.50,1.00 L0.30,1.00 z M0.30,1.40 L0.50,1.40 L0.50,1.60 L0.30,1.60 z M0.40,1.40 L0.60,1.40 L0.60,1.60 L0.40,1.60 z M0.50,0.10 L0.70,0.10 L0.70,0.30 L0.50,0.30 z M0.50,0.40 L0.70,0.40 L0.70,0.60 L0.50,0.60 z M0.70,0.70 L0.90,0.70 L0.90,0.90 L0.70,0.90 z M0.70,0.90 L0.90,0.90 L0.90,1.10 L0.70,1.10 z M0.70,1.20 L0.90,1.20 L0.90,1.40 L0.70,1.40 z M0.60,1.70 L0.80,1.70 L0.80,1.90 L0.60,1.90 z M0.90,-0.00 L1.10,-0.00 L1.10,0.20 L0.90,0.20 z M1.00,0.50 L1.20,0.50 L1.20,0.70 L1.00,0.70 z M1.10,0.60 L1.30,0.60 L1.30,0.80 L1.10,0.80 z M1.00,0.90 L1.20,0.90 L1.20,1.10 L1.00,1.10 z M1.00,1.20 L1.20,1.20 L1.20,1.40 L1.00,1.40 z M0.80,1.40 L1.00,1.40 L1.00,1.60 L0.80,1.60 z M1.30,-0.00 L1.50,-0.00 L1.50,0.20 L1.30,0.20 z M1.10,0.40 L1.30,0.40 L1.30,0.60 L1.10,0.60 z M1.30,0.70 L1.50,0.70 L1.50,0.90 L1.30,0.90 z M1.20,0.90 L1.40,0.90 L1.40,1.10 L1.20,1.10 z M1.30,1.30 L1.50,1.30 L1.50,1.50 L1.30,1.50 z M1.10,1.60 L1.30,1.60 L1.30,1.80 L1.10,1.80 z M1.60,0.40 L1.80,0.40 L1.80,0.60 L1.60,0.60 z M1.40,0.70 L1.60,0.70 L1.60,0.90 L1.40,0.90 z M1.50,0.90 L1.70,0.90 L1.70,1.10 L1.50,1.10 z M1.50,1.10 L1.70,1.10 L1.70,1.30 L1.50,1.30 z" fill="rgb(255,255,255)" fill-opacity="1.000" stroke-linecap="round" stroke-width="0"/></symbol><filter height="300%" id="filter4" width="300%" x="-100%" y="-100%"><feComponentTransfer><feFuncR type="identity"/><feFuncG type="identity"/><feFuncB type="identity"/><feFuncA amplitude="0.000" type="gamma"/></feComponentTransfer></filter><g fill="rgb(255,255,255)" filter="url(#filter4)" nch:grouptype="stamp" nch:path="29.8,18.4,29.8,18.4,31.6,20.0 32.0,20.3,32.0,20.3,32.0,20.4 32.0,20.4," nch:path-opacity="0" nch:stamp="pencil" nch:stampwidth="2.000000" stroke-width="0"><use transform="rotate(49,29.8,18.4)" x="28.8" xlink:href="#Symbol3" y="17.4"/><use transform="rotate(312,30.3,18.9)" x="29.3" xlink:href="#Symbol3" y="17.9"/><use transform="rotate(270,30.7,19.2)" x="29.7" xlink:href="#Symbol3" y="18.2"/><use transform="rotate(62,31.3,19.7)" x="30.3" xlink:href="#Symbol3" y="18.7"/><use transform="rotate(231,31.9,20.2)" x="30.9" xlink:href="#Symbol3" y="19.2"/></g><symbol id="Symbol5"><path d=" M0.10,-0.00 L0.30,-0.00 L0.30,0.20 L0.10,0.20 z M-0.00,0.30 L0.20,0.30 L0.20,0.50 L-0.00,0.50 z M0.10,0.80 L0.30,0.80 L0.30,1.00 L0.10,1.00 z M-0.00,0.80 L0.20,0.80 L0.20,1.00 L-0.00,1.00 z M0.10,1.10 L0.30,1.10 L0.30,1.30 L0.10,1.30 z M0.30,-0.00 L0.50,-0.00 L0.50,0.20 L0.30,0.20 z M0.40,0.40 L0.60,0.40 L0.60,0.60 L0.40,0.60 z M0.30,0.80 L0.50,0.80 L0.50,1.00 L0.30,1.00 z M0.30,0.80 L0.50,0.80 L0.50,1.00 L0.30,1.00 z M0.30,1.30 L0.50,1.30 L0.50,1.50 L0.30,1.50 z M0.40,1.40 L0.60,1.40 L0.60,1.60 L0.40,1.60 z M0.70,-0.00 L0.90,-0.00 L0.90,0.20 L0.70,0.20 z M0.60,0.30 L0.80,0.30 L0.80,0.50 L0.60,0.50 z M0.50,0.50 L0.70,0.50 L0.70,0.70 L0.50,0.70 z M0.70,1.00 L0.90,1.00 L0.90,1.20 L0.70,1.20 z M0.70,1.20 L0.90,1.20 L0.90,1.40 L0.70,1.40 z M0.70,1.40 L0.90,1.40 L0.90,1.60 L0.70,1.60 z M0.90,-0.00 L1.10,-0.00 L1.10,0.20 L0.90,0.20 z M0.90,0.20 L1.10,0.20 L1.10,0.40 L0.90,0.40 z M1.10,0.70 L1.30,0.70 L1.30,0.90 L1.10,0.90 z M0.80,1.10 L1.00,1.10 L1.00,1.30 L0.80,1.30 z M0.90,1.20 L1.10,1.20 L1.10,1.40 L0.90,1.40 z M1.10,1.50 L1.30,1.50 L1.30,1.70 L1.10,1.70 z M1.20,0.10 L1.40,0.10 L1.40,0.30 L1.20,0.30 z M1.20,0.50 L1.40,0.50 L1.40,0.70 L1.20,0.70 z M1.40,0.60 L1.60,0.60 L1.60,0.80 L1.40,0.80 z M1.40,0.90 L1.60,0.90 L1.60,1.10 L1.40,1.10 z M1.10,1.10 L1.30,1.10 L1.30,1.30 L1.10,1.30 z M1.20,1.50 L1.40,1.50 L1.40,1.70 L1.20,1.70 z M1.50,0.30 L1.70,0.30 L1.70,0.50 L1.50,0.50 z M1.40,0.60 L1.60,0.60 L1.60,0.80 L1.40,0.80 z M1.50,1.00 L1.70,1.00 L1.70,1.20 L1.50,1.20 z M1.60,1.10 L1.80,1.10 L1.80,1.30 L1.60,1.30 z" fill="rgb(196,8,8)" fill-opacity="1.000" stroke-linecap="round" stroke-width="0"/></symbol><g fill="rgb(196,8,8)" nch:grouptype="stamp" nch:path="28.5,18.2,28.5,18.2,29.9,19.7 30.2,20.1,30.2,20.1,30.4,20.1 30.4,20.1," nch:path-opacity="255" nch:stamp="pencil" nch:stampwidth="2.000000" stroke-width="0"><use transform="rotate(333,28.5,18.2)" x="27.5" xlink:href="#Symbol5" y="17.2"/><use transform="rotate(154,29.0,18.7)" x="28.0" xlink:href="#Symbol5" y="17.7"/><use transform="rotate(117,29.4,19.2)" x="28.4" xlink:href="#Symbol5" y="18.2"/><use transform="rotate(185,29.9,19.7)" x="28.9" xlink:href="#Symbol5" y="18.7"/><use transform="rotate(255,30.3,20.1)" x="29.3" xlink:href="#Symbol5" y="19.1"/></g><symbol id="Symbol6"><path d=" M0.10,-0.00 L0.30,-0.00 L0.30,0.20 L0.10,0.20 z M-0.10,0.40 L0.10,0.40 L0.10,0.60 L-0.10,0.60 z M0.20,0.60 L0.40,0.60 L0.40,0.80 L0.20,0.80 z M0.10,1.00 L0.30,1.00 L0.30,1.20 L0.10,1.20 z M-0.00,1.30 L0.20,1.30 L0.20,1.50 L-0.00,1.50 z M0.30,-0.00 L0.50,-0.00 L0.50,0.20 L0.30,0.20 z M0.20,0.50 L0.40,0.50 L0.40,0.70 L0.20,0.70 z M0.20,0.80 L0.40,0.80 L0.40,1.00 L0.20,1.00 z M0.30,0.80 L0.50,0.80 L0.50,1.00 L0.30,1.00 z M0.30,1.10 L0.50,1.10 L0.50,1.30 L0.30,1.30 z M0.40,1.70 L0.60,1.70 L0.60,1.90 L0.40,1.90 z M0.60,0.20 L0.80,0.20 L0.80,0.40 L0.60,0.40 z M0.80,0.40 L1.00,0.40 L1.00,0.60 L0.80,0.60 z M0.50,0.50 L0.70,0.50 L0.70,0.70 L0.50,0.70 z M0.50,0.80 L0.70,0.80 L0.70,1.00 L0.50,1.00 z M0.70,1.30 L0.90,1.30 L0.90,1.50 L0.70,1.50 z M0.60,1.50 L0.80,1.50 L0.80,1.70 L0.60,1.70 z M0.80,-0.10 L1.00,-0.10 L1.00,0.10 L0.80,0.10 z M1.00,0.40 L1.20,0.40 L1.20,0.60 L1.00,0.60 z M1.00,0.70 L1.20,0.70 L1.20,0.90 L1.00,0.90 z M0.80,1.00 L1.00,1.00 L1.00,1.20 L0.80,1.20 z M1.00,1.10 L1.20,1.10 L1.20,1.30 L1.00,1.30 z M0.90,1.70 L1.10,1.70 L1.10,1.90 L0.90,1.90 z M1.30,-0.00 L1.50,-0.00 L1.50,0.20 L1.30,0.20 z M1.20,0.50 L1.40,0.50 L1.40,0.70 L1.20,0.70 z M1.10,0.60 L1.30,0.60 L1.30,0.80 L1.10,0.80 z M1.40,1.00 L1.60,1.00 L1.60,1.20 L1.40,1.20 z M1.40,1.30 L1.60,1.30 L1.60,1.50 L1.40,1.50 z M1.30,1.60 L1.50,1.60 L1.50,1.80 L1.30,1.80 z M1.70,0.40 L1.90,0.40 L1.90,0.60 L1.70,0.60 z M1.50,0.80 L1.70,0.80 L1.70,1.00 L1.50,1.00 z M1.50,1.10 L1.70,1.10 L1.70,1.30 L1.50,1.30 z M1.40,1.20 L1.60,1.20 L1.60,1.40 L1.40,1.40 z" fill="rgb(196,8,8)" fill-opacity="1.000" stroke-linecap="round" stroke-width="0"/></symbol><g fill="rgb(196,8,8)" nch:grouptype="stamp" nch:path="30.4,20.4,30.4,20.4,34.3,20.4 34.4,20.5,34.4,20.6,31.8,21.4 30.8,21.0,29.9,20.6,28.0,18.2 28.6,18.2,29.2,18.1,33.3,20.6 34.4,20.7,35.5,20.8,35.1,18.9 35.3,18.5,35.3,18.5,35.3,18.5 35.3,18.5," nch:path-opacity="255" nch:stamp="pencil" nch:stampwidth="2.000000" stroke-width="0"><use transform="rotate(311,30.4,20.4)" x="29.4" xlink:href="#Symbol6" y="19.4"/><use transform="rotate(342,31.1,20.4)" x="30.1" xlink:href="#Symbol6" y="19.4"/><use transform="rotate(342,31.8,20.4)" x="30.8" xlink:href="#Symbol6" y="19.4"/><use transform="rotate(261,32.3,20.4)" x="31.3" xlink:href="#Symbol6" y="19.4"/><use transform="rotate(130,33.1,20.4)" x="32.1" xlink:href="#Symbol6" y="19.4"/><use transform="rotate(34,33.7,20.4)" x="32.7" xlink:href="#Symbol6" y="19.4"/><use transform="rotate(201,34.3,20.5)" x="33.3" xlink:href="#Symbol6" y="19.5"/><use transform="rotate(156,33.7,20.7)" x="32.7" xlink:href="#Symbol6" y="19.7"/><use transform="rotate(142,33.1,20.9)" x="32.1" xlink:href="#Symbol6" y="19.9"/><use transform="rotate(1,32.4,21.0)" x="31.4" xlink:href="#Symbol6" y="20.0"/><use transform="rotate(152,31.8,21.1)" x="30.8" xlink:href="#Symbol6" y="20.1"/><use transform="rotate(348,31.1,21.1)" x="30.1" xlink:href="#Symbol6" y="20.1"/><use transform="rotate(128,30.5,20.8)" x="29.5" xlink:href="#Symbol6" y="19.8"/><use transform="rotate(3,30.0,20.4)" x="29.0" xlink:href="#Symbol6" y="19.4"/><use transform="rotate(198,29.5,19.9)" x="28.5" xlink:href="#Symbol6" y="18.9"/><use transform="rotate(154,29.1,19.4)" x="28.1" xlink:href="#Symbol6" y="18.4"/><use transform="rotate(183,28.7,18.9)" x="27.7" xlink:href="#Symbol6" y="17.9"/><use transform="rotate(341,28.5,18.2)" x="27.5" xlink:href="#Symbol6" y="17.2"/><use transform="rotate(230,29.2,18.3)" x="28.2" xlink:href="#Symbol6" y="17.3"/><use transform="rotate(326,29.8,18.6)" x="28.8" xlink:href="#Symbol6" y="17.6"/><use transform="rotate(131,30.4,18.9)" x="29.4" xlink:href="#Symbol6" y="17.9"/><use transform="rotate(70,31.0,19.2)" x="30.0" xlink:href="#Symbol6" y="18.2"/><use transform="rotate(237,31.6,19.5)" x="30.6" xlink:href="#Symbol6" y="18.5"/><use transform="rotate(168,32.1,19.8)" x="31.1" xlink:href="#Symbol6" y="18.8"/><use transform="rotate(310,32.8,20.1)" x="31.8" xlink:href="#Symbol6" y="19.1"/><use transform="rotate(283,33.4,20.4)" x="32.4" xlink:href="#Symbol6" y="19.4"/><use transform="rotate(316,34.0,20.6)" x="33.0" xlink:href="#Symbol6" y="19.6"/><use transform="rotate(39,34.6,20.7)" x="33.6" xlink:href="#Symbol6" y="19.7"/><use transform="rotate(278,35.1,20.3)" x="34.1" xlink:href="#Symbol6" y="19.3"/><use transform="rotate(173,35.2,19.6)" x="34.2" xlink:href="#Symbol6" y="18.6"/><use transform="rotate(282,35.3,18.9)" x="34.3" xlink:href="#Symbol6" y="17.9"/></g><symbol id="Symbol7"><path d=" M-0.10,0.10 L0.10,0.10 L0.10,0.30 L-0.10,0.30 z M0.20,0.40 L0.40,0.40 L0.40,0.60 L0.20,0.60 z M0.10,0.70 L0.30,0.70 L0.30,0.90 L0.10,0.90 z M0.20,1.00 L0.40,1.00 L0.40,1.20 L0.20,1.20 z M0.10,1.20 L0.30,1.20 L0.30,1.40 L0.10,1.40 z M0.20,-0.10 L0.40,-0.10 L0.40,0.10 L0.20,0.10 z M0.40,0.40 L0.60,0.40 L0.60,0.60 L0.40,0.60 z M0.50,0.80 L0.70,0.80 L0.70,1.00 L0.50,1.00 z M0.40,0.90 L0.60,0.90 L0.60,1.10 L0.40,1.10 z M0.20,1.30 L0.40,1.30 L0.40,1.50 L0.20,1.50 z M0.30,1.60 L0.50,1.60 L0.50,1.80 L0.30,1.80 z M0.70,0.10 L0.90,0.10 L0.90,0.30 L0.70,0.30 z M0.60,0.30 L0.80,0.30 L0.80,0.50 L0.60,0.50 z M0.60,0.70 L0.80,0.70 L0.80,0.90 L0.60,0.90 z M0.50,0.90 L0.70,0.90 L0.70,1.10 L0.50,1.10 z M0.50,1.10 L0.70,1.10 L0.70,1.30 L0.50,1.30 z M0.70,1.70 L0.90,1.70 L0.90,1.90 L0.70,1.90 z M0.90,0.10 L1.10,0.10 L1.10,0.30 L0.90,0.30 z M1.10,0.50 L1.30,0.50 L1.30,0.70 L1.10,0.70 z M0.90,0.70 L1.10,0.70 L1.10,0.90 L0.90,0.90 z M0.90,0.80 L1.10,0.80 L1.10,1.00 L0.90,1.00 z M0.90,1.30 L1.10,1.30 L1.10,1.50 L0.90,1.50 z M0.80,1.60 L1.00,1.60 L1.00,1.80 L0.80,1.80 z M1.30,0.10 L1.50,0.10 L1.50,0.30 L1.30,0.30 z M1.30,0.30 L1.50,0.30 L1.50,0.50 L1.30,0.50 z M1.30,0.70 L1.50,0.70 L1.50,0.90 L1.30,0.90 z M1.20,0.90 L1.40,0.90 L1.40,1.10 L1.20,1.10 z M1.10,1.10 L1.30,1.10 L1.30,1.30 L1.10,1.30 z M1.40,1.40 L1.60,1.40 L1.60,1.60 L1.40,1.60 z M1.50,0.20 L1.70,0.20 L1.70,0.40 L1.50,0.40 z M1.50,0.80 L1.70,0.80 L1.70,1.00 L1.50,1.00 z M1.60,1.00 L1.80,1.00 L1.80,1.20 L1.60,1.20 z M1.60,1.40 L1.80,1.40 L1.80,1.60 L1.60,1.60 z" fill="rgb(196,8,8)" fill-opacity="1.000" stroke-linecap="round" stroke-width="0"/></symbol><g fill="rgb(196,8,8)" nch:grouptype="stamp" nch:path="36.1,18.2,36.1,18.2,36.1,18.2 36.1,18.2," nch:path-opacity="255" nch:stamp="pencil" nch:stampwidth="2.000000" stroke-width="0"><use transform="rotate(65,36.1,18.2)" x="35.1" xlink:href="#Symbol7" y="17.2"/></g><symbol id="Symbol8"><path d=" M-0.00,-0.10 L0.20,-0.10 L0.20,0.10 L-0.00,0.10 z M0.20,0.30 L0.40,0.30 L0.40,0.50 L0.20,0.50 z M0.10,0.70 L0.30,0.70 L0.30,0.90 L0.10,0.90 z M-0.00,1.10 L0.20,1.10 L0.20,1.30 L-0.00,1.30 z M-0.00,1.40 L0.20,1.40 L0.20,1.60 L-0.00,1.60 z M0.30,-0.00 L0.50,-0.00 L0.50,0.20 L0.30,0.20 z M0.40,0.40 L0.60,0.40 L0.60,0.60 L0.40,0.60 z M0.40,0.70 L0.60,0.70 L0.60,0.90 L0.40,0.90 z M0.30,1.00 L0.50,1.00 L0.50,1.20 L0.30,1.20 z M0.30,1.30 L0.50,1.30 L0.50,1.50 L0.30,1.50 z M0.40,1.50 L0.60,1.50 L0.60,1.70 L0.40,1.70 z M0.50,-0.00 L0.70,-0.00 L0.70,0.20 L0.50,0.20 z M0.70,0.40 L0.90,0.40 L0.90,0.60 L0.70,0.60 z M0.60,0.70 L0.80,0.70 L0.80,0.90 L0.60,0.90 z M0.70,0.90 L0.90,0.90 L0.90,1.10 L0.70,1.10 z M0.50,1.20 L0.70,1.20 L0.70,1.40 L0.50,1.40 z M0.60,1.50 L0.80,1.50 L0.80,1.70 L0.60,1.70 z M1.10,-0.00 L1.30,-0.00 L1.30,0.20 L1.10,0.20 z M1.00,0.20 L1.20,0.20 L1.20,0.40 L1.00,0.40 z M0.90,0.70 L1.10,0.70 L1.10,0.90 L0.90,0.90 z M0.80,1.00 L1.00,1.00 L1.00,1.20 L0.80,1.20 z M0.90,1.10 L1.10,1.10 L1.10,1.30 L0.90,1.30 z M0.90,1.50 L1.10,1.50 L1.10,1.70 L0.90,1.70 z M1.20,-0.00 L1.40,-0.00 L1.40,0.20 L1.20,0.20 z M1.20,0.30 L1.40,0.30 L1.40,0.50 L1.20,0.50 z M1.30,0.70 L1.50,0.70 L1.50,0.90 L1.30,0.90 z M1.20,1.10 L1.40,1.10 L1.40,1.30 L1.20,1.30 z M1.30,1.30 L1.50,1.30 L1.50,1.50 L1.30,1.50 z M1.30,1.70 L1.50,1.70 L1.50,1.90 L1.30,1.90 z M1.50,0.40 L1.70,0.40 L1.70,0.60 L1.50,0.60 z M1.40,0.60 L1.60,0.60 L1.60,0.80 L1.40,0.80 z M1.60,1.00 L1.80,1.00 L1.80,1.20 L1.60,1.20 z M1.70,1.30 L1.90,1.30 L1.90,1.50 L1.70,1.50 z" fill="rgb(196,8,8)" fill-opacity="1.000" stroke-linecap="round" stroke-width="0"/></symbol><g fill="rgb(196,8,8)" nch:grouptype="stamp" nch:path="36.5,18.5,36.5,18.5,36.5,18.5 36.5,18.5," nch:path-opacity="255" nch:stamp="pencil" nch:stampwidth="2.000000" stroke-width="0"><use transform="rotate(128,36.5,18.5)" x="35.5" xlink:href="#Symbol8" y="17.5"/></g><symbol id="Symbol9"><path d=" M0.10,-0.00 L0.30,-0.00 L0.30,0.20 L0.10,0.20 z M-0.10,0.50 L0.10,0.50 L0.10,0.70 L-0.10,0.70 z M-0.10,0.50 L0.10,0.50 L0.10,0.70 L-0.10,0.70 z M-0.00,0.80 L0.20,0.80 L0.20,1.00 L-0.00,1.00 z M0.10,1.40 L0.30,1.40 L0.30,1.60 L0.10,1.60 z M0.30,0.20 L0.50,0.20 L0.50,0.40 L0.30,0.40 z M0.40,0.30 L0.60,0.30 L0.60,0.50 L0.40,0.50 z M0.20,0.60 L0.40,0.60 L0.40,0.80 L0.20,0.80 z M0.40,1.10 L0.60,1.10 L0.60,1.30 L0.40,1.30 z M0.40,1.20 L0.60,1.20 L0.60,1.40 L0.40,1.40 z M0.40,1.60 L0.60,1.60 L0.60,1.80 L0.40,1.80 z M0.70,-0.00 L0.90,-0.00 L0.90,0.20 L0.70,0.20 z M0.70,0.40 L0.90,0.40 L0.90,0.60 L0.70,0.60 z M0.70,0.70 L0.90,0.70 L0.90,0.90 L0.70,0.90 z M0.70,0.90 L0.90,0.90 L0.90,1.10 L0.70,1.10 z M0.50,1.30 L0.70,1.30 L0.70,1.50 L0.50,1.50 z M0.60,1.60 L0.80,1.60 L0.80,1.80 L0.60,1.80 z M0.90,0.10 L1.10,0.10 L1.10,0.30 L0.90,0.30 z M1.00,0.30 L1.20,0.30 L1.20,0.50 L1.00,0.50 z M1.10,0.50 L1.30,0.50 L1.30,0.70 L1.10,0.70 z M0.90,0.90 L1.10,0.90 L1.10,1.10 L0.90,1.10 z M0.90,1.40 L1.10,1.40 L1.10,1.60 L0.90,1.60 z M1.00,1.60 L1.20,1.60 L1.20,1.80 L1.00,1.80 z M1.30,-0.00 L1.50,-0.00 L1.50,0.20 L1.30,0.20 z M1.30,0.20 L1.50,0.20 L1.50,0.40 L1.30,0.40 z M1.30,0.50 L1.50,0.50 L1.50,0.70 L1.30,0.70 z M1.20,1.00 L1.40,1.00 L1.40,1.20 L1.20,1.20 z M1.30,1.40 L1.50,1.40 L1.50,1.60 L1.30,1.60 z M1.20,1.70 L1.40,1.70 L1.40,1.90 L1.20,1.90 z M1.60,0.40 L1.80,0.40 L1.80,0.60 L1.60,0.60 z M1.60,0.60 L1.80,0.60 L1.80,0.80 L1.60,0.80 z M1.70,0.80 L1.90,0.80 L1.90,1.00 L1.70,1.00 z M1.50,1.30 L1.70,1.30 L1.70,1.50 L1.50,1.50 z" fill="rgb(196,8,8)" fill-opacity="1.000" stroke-linecap="round" stroke-width="0"/></symbol><g fill="rgb(196,8,8)" nch:grouptype="stamp" nch:path="36.4,18.6,36.4,18.6,36.4,18.6 36.4,18.6," nch:path-opacity="255" nch:stamp="pencil" nch:stampwidth="2.000000" stroke-width="0"><use transform="rotate(228,36.4,18.6)" x="35.4" xlink:href="#Symbol9" y="17.6"/></g><symbol id="Symbol10"><path d=" M0.10,-0.10 L0.30,-0.10 L0.30,0.10 L0.10,0.10 z M0.10,0.20 L0.30,0.20 L0.30,0.40 L0.10,0.40 z M-0.10,0.70 L0.10,0.70 L0.10,0.90 L-0.10,0.90 z M-0.00,0.80 L0.20,0.80 L0.20,1.00 L-0.00,1.00 z M0.20,1.30 L0.40,1.30 L0.40,1.50 L0.20,1.50 z M0.50,0.10 L0.70,0.10 L0.70,0.30 L0.50,0.30 z M0.30,0.30 L0.50,0.30 L0.50,0.50 L0.30,0.50 z M0.30,0.50 L0.50,0.50 L0.50,0.70 L0.30,0.70 z M0.20,0.90 L0.40,0.90 L0.40,1.10 L0.20,1.10 z M0.40,1.30 L0.60,1.30 L0.60,1.50 L0.40,1.50 z M0.30,1.50 L0.50,1.50 L0.50,1.70 L0.30,1.70 z M0.50,-0.10 L0.70,-0.10 L0.70,0.10 L0.50,0.10 z M0.60,0.50 L0.80,0.50 L0.80,0.70 L0.60,0.70 z M0.50,0.80 L0.70,0.80 L0.70,1.00 L0.50,1.00 z M0.70,0.80 L0.90,0.80 L0.90,1.00 L0.70,1.00 z M0.70,1.20 L0.90,1.20 L0.90,1.40 L0.70,1.40 z M0.80,1.40 L1.00,1.40 L1.00,1.60 L0.80,1.60 z M1.00,0.20 L1.20,0.20 L1.20,0.40 L1.00,0.40 z M1.00,0.20 L1.20,0.20 L1.20,0.40 L1.00,0.40 z M1.00,0.70 L1.20,0.70 L1.20,0.90 L1.00,0.90 z M1.00,0.90 L1.20,0.90 L1.20,1.10 L1.00,1.10 z M0.90,1.20 L1.10,1.20 L1.10,1.40 L0.90,1.40 z M1.00,1.50 L1.20,1.50 L1.20,1.70 L1.00,1.70 z M1.30,0.20 L1.50,0.20 L1.50,0.40 L1.30,0.40 z M1.10,0.20 L1.30,0.20 L1.30,0.40 L1.10,0.40 z M1.40,0.80 L1.60,0.80 L1.60,1.00 L1.40,1.00 z M1.30,0.90 L1.50,0.90 L1.50,1.10 L1.30,1.10 z M1.20,1.20 L1.40,1.20 L1.40,1.40 L1.20,1.40 z M1.40,1.60 L1.60,1.60 L1.60,1.80 L1.40,1.80 z M1.40,0.30 L1.60,0.30 L1.60,0.50 L1.40,0.50 z M1.70,0.80 L1.90,0.80 L1.90,1.00 L1.70,1.00 z M1.40,1.00 L1.60,1.00 L1.60,1.20 L1.40,1.20 z M1.50,1.30 L1.70,1.30 L1.70,1.50 L1.50,1.50 z" fill="rgb(196,8,8)" fill-opacity="1.000" stroke-linecap="round" stroke-width="0"/></symbol><g fill="rgb(196,8,8)" nch:grouptype="stamp" nch:path="36.1,18.4,36.1,18.4,36.1,18.4 36.1,18.4," nch:path-opacity="255" nch:stamp="pencil" nch:stampwidth="2.000000" stroke-width="0"><use transform="rotate(265,36.1,18.4)" x="35.1" xlink:href="#Symbol10" y="17.4"/></g><symbol id="Symbol11"><path d=" M0.10,-0.00 L0.30,-0.00 L0.30,0.20 L0.10,0.20 z M-0.00,0.40 L0.20,0.40 L0.20,0.60 L-0.00,0.60 z M0.10,0.60 L0.30,0.60 L0.30,0.80 L0.10,0.80 z M0.20,1.10 L0.40,1.10 L0.40,1.30 L0.20,1.30 z M0.10,1.20 L0.30,1.20 L0.30,1.40 L0.10,1.40 z M0.20,0.10 L0.40,0.10 L0.40,0.30 L0.20,0.30 z M0.40,0.50 L0.60,0.50 L0.60,0.70 L0.40,0.70 z M0.20,0.80 L0.40,0.80 L0.40,1.00 L0.20,1.00 z M0.50,1.00 L0.70,1.00 L0.70,1.20 L0.50,1.20 z M0.30,1.30 L0.50,1.30 L0.50,1.50 L0.30,1.50 z M0.20,1.70 L0.40,1.70 L0.40,1.90 L0.20,1.90 z M0.50,-0.10 L0.70,-0.10 L0.70,0.10 L0.50,0.10 z M0.80,0.20 L1.00,0.20 L1.00,0.40 L0.80,0.40 z M0.60,0.60 L0.80,0.60 L0.80,0.80 L0.60,0.80 z M0.50,0.90 L0.70,0.90 L0.70,1.10 L0.50,1.10 z M0.60,1.30 L0.80,1.30 L0.80,1.50 L0.60,1.50 z M0.70,1.70 L0.90,1.70 L0.90,1.90 L0.70,1.90 z M0.90,0.10 L1.10,0.10 L1.10,0.30 L0.90,0.30 z M1.00,0.40 L1.20,0.40 L1.20,0.60 L1.00,0.60 z M0.80,0.50 L1.00,0.50 L1.00,0.70 L0.80,0.70 z M1.00,1.00 L1.20,1.00 L1.20,1.20 L1.00,1.20 z M1.10,1.30 L1.30,1.30 L1.30,1.50 L1.10,1.50 z M0.80,1.70 L1.00,1.70 L1.00,1.90 L0.80,1.90 z M1.10,-0.10 L1.30,-0.10 L1.30,0.10 L1.10,0.10 z M1.20,0.40 L1.40,0.40 L1.40,0.60 L1.20,0.60 z M1.30,0.50 L1.50,0.50 L1.50,0.70 L1.30,0.70 z M1.40,1.00 L1.60,1.00 L1.60,1.20 L1.40,1.20 z M1.30,1.20 L1.50,1.20 L1.50,1.40 L1.30,1.40 z M1.20,1.50 L1.40,1.50 L1.40,1.70 L1.20,1.70 z M1.60,0.30 L1.80,0.30 L1.80,0.50 L1.60,0.50 z M1.50,0.80 L1.70,0.80 L1.70,1.00 L1.50,1.00 z M1.40,0.90 L1.60,0.90 L1.60,1.10 L1.40,1.10 z M1.60,1.30 L1.80,1.30 L1.80,1.50 L1.60,1.50 z" fill="rgb(196,8,8)" fill-opacity="1.000" stroke-linecap="round" stroke-width="0"/></symbol><g fill="rgb(196,8,8)" nch:grouptype="stamp" nch:path="35.8,19.1,35.8,19.1,35.8,19.1 35.8,19.1," nch:path-opacity="255" nch:stamp="pencil" nch:stampwidth="2.000000" stroke-width="0"><use transform="rotate(292,35.8,19.1)" x="34.8" xlink:href="#Symbol11" y="18.1"/></g><symbol id="Symbol12"><path d=" M-0.10,0.10 L0.10,0.10 L0.10,0.30 L-0.10,0.30 z M0.10,0.30 L0.30,0.30 L0.30,0.50 L0.10,0.50 z M0.10,0.50 L0.30,0.50 L0.30,0.70 L0.10,0.70 z M-0.00,0.90 L0.20,0.90 L0.20,1.10 L-0.00,1.10 z M-0.00,1.10 L0.20,1.10 L0.20,1.30 L-0.00,1.30 z M0.30,0.10 L0.50,0.10 L0.50,0.30 L0.30,0.30 z M0.20,0.40 L0.40,0.40 L0.40,0.60 L0.20,0.60 z M0.20,0.70 L0.40,0.70 L0.40,0.90 L0.20,0.90 z M0.30,1.00 L0.50,1.00 L0.50,1.20 L0.30,1.20 z M0.30,1.10 L0.50,1.10 L0.50,1.30 L0.30,1.30 z M0.50,1.60 L0.70,1.60 L0.70,1.80 L0.50,1.80 z M0.60,0.10 L0.80,0.10 L0.80,0.30 L0.60,0.30 z M0.80,0.30 L1.00,0.30 L1.00,0.50 L0.80,0.50 z M0.60,0.60 L0.80,0.60 L0.80,0.80 L0.60,0.80 z M0.60,1.10 L0.80,1.10 L0.80,1.30 L0.60,1.30 z M0.50,1.20 L0.70,1.20 L0.70,1.40 L0.50,1.40 z M0.70,1.60 L0.90,1.60 L0.90,1.80 L0.70,1.80 z M0.90,0.20 L1.10,0.20 L1.10,0.40 L0.90,0.40 z M0.80,0.20 L1.00,0.20 L1.00,0.40 L0.80,0.40 z M0.90,0.70 L1.10,0.70 L1.10,0.90 L0.90,0.90 z M1.10,1.00 L1.30,1.00 L1.30,1.20 L1.10,1.20 z M1.00,1.10 L1.20,1.10 L1.20,1.30 L1.00,1.30 z M1.00,1.70 L1.20,1.70 L1.20,1.90 L1.00,1.90 z M1.20,0.10 L1.40,0.10 L1.40,0.30 L1.20,0.30 z M1.30,0.40 L1.50,0.40 L1.50,0.60 L1.30,0.60 z M1.10,0.80 L1.30,0.80 L1.30,1.00 L1.10,1.00 z M1.30,0.80 L1.50,0.80 L1.50,1.00 L1.30,1.00 z M1.30,1.10 L1.50,1.10 L1.50,1.30 L1.30,1.30 z M1.10,1.70 L1.30,1.70 L1.30,1.90 L1.10,1.90 z M1.60,0.30 L1.80,0.30 L1.80,0.50 L1.60,0.50 z M1.60,0.70 L1.80,0.70 L1.80,0.90 L1.60,0.90 z M1.50,0.90 L1.70,0.90 L1.70,1.10 L1.50,1.10 z M1.60,1.40 L1.80,1.40 L1.80,1.60 L1.60,1.60 z" fill="rgb(196,8,8)" fill-opacity="1.000" stroke-linecap="round" stroke-width="0"/></symbol><g fill="rgb(196,8,8)" nch:grouptype="stamp" nch:path="35.4,19.7,35.4,19.7,35.4,19.7 35.4,19.7," nch:path-opacity="255" nch:stamp="pencil" nch:stampwidth="2.000000" stroke-width="0"><use transform="rotate(165,35.4,19.7)" x="34.4" xlink:href="#Symbol12" y="18.7"/></g><symbol id="Symbol13"><path d=" M-0.00,-0.00 L0.20,-0.00 L0.20,0.20 L-0.00,0.20 z M0.10,0.30 L0.30,0.30 L0.30,0.50 L0.10,0.50 z M-0.00,0.50 L0.20,0.50 L0.20,0.70 L-0.00,0.70 z M-0.00,0.80 L0.20,0.80 L0.20,1.00 L-0.00,1.00 z M0.10,1.20 L0.30,1.20 L0.30,1.40 L0.10,1.40 z M0.20,0.20 L0.40,0.20 L0.40,0.40 L0.20,0.40 z M0.30,0.50 L0.50,0.50 L0.50,0.70 L0.30,0.70 z M0.40,0.70 L0.60,0.70 L0.60,0.90 L0.40,0.90 z M0.30,0.90 L0.50,0.90 L0.50,1.10 L0.30,1.10 z M0.30,1.20 L0.50,1.20 L0.50,1.40 L0.30,1.40 z M0.30,1.60 L0.50,1.60 L0.50,1.80 L0.30,1.80 z M0.70,0.10 L0.90,0.10 L0.90,0.30 L0.70,0.30 z M0.70,0.30 L0.90,0.30 L0.90,0.50 L0.70,0.50 z M0.70,0.50 L0.90,0.50 L0.90,0.70 L0.70,0.70 z M0.60,0.80 L0.80,0.80 L0.80,1.00 L0.60,1.00 z M0.70,1.20 L0.90,1.20 L0.90,1.40 L0.70,1.40 z M0.50,1.50 L0.70,1.50 L0.70,1.70 L0.50,1.70 z M1.00,0.10 L1.20,0.10 L1.20,0.30 L1.00,0.30 z M0.90,0.30 L1.10,0.30 L1.10,0.50 L0.90,0.50 z M0.80,0.70 L1.00,0.70 L1.00,0.90 L0.80,0.90 z M0.90,0.90 L1.10,0.90 L1.10,1.10 L0.90,1.10 z M1.00,1.10 L1.20,1.10 L1.20,1.30 L1.00,1.30 z M0.90,1.40 L1.10,1.40 L1.10,1.60 L0.90,1.60 z M1.10,0.10 L1.30,0.10 L1.30,0.30 L1.10,0.30 z M1.30,0.30 L1.50,0.30 L1.50,0.50 L1.30,0.50 z M1.20,0.70 L1.40,0.70 L1.40,0.90 L1.20,0.90 z M1.20,0.80 L1.40,0.80 L1.40,1.00 L1.20,1.00 z M1.10,1.10 L1.30,1.10 L1.30,1.30 L1.10,1.30 z M1.20,1.50 L1.40,1.50 L1.40,1.70 L1.20,1.70 z M1.60,0.50 L1.80,0.50 L1.80,0.70 L1.60,0.70 z M1.50,0.80 L1.70,0.80 L1.70,1.00 L1.50,1.00 z M1.50,0.80 L1.70,0.80 L1.70,1.00 L1.50,1.00 z M1.70,1.30 L1.90,1.30 L1.90,1.50 L1.70,1.50 z" fill="rgb(196,8,8)" fill-opacity="1.000" stroke-linecap="round" stroke-width="0"/></symbol><g fill="rgb(196,8,8)" nch:grouptype="stamp" nch:path="34.8,19.7,34.8,19.7,34.8,19.7 34.8,19.7," nch:path-opacity="255" nch:stamp="pencil" nch:stampwidth="2.000000" stroke-width="0"><use transform="rotate(347,34.8,19.7)" x="33.8" xlink:href="#Symbol13" y="18.7"/></g><symbol id="Symbol14"><path d=" M-0.10,0.20 L0.10,0.20 L0.10,0.40 L-0.10,0.40 z M0.10,0.40 L0.30,0.40 L0.30,0.60 L0.10,0.60 z M-0.10,0.60 L0.10,0.60 L0.10,0.80 L-0.10,0.80 z M0.20,0.90 L0.40,0.90 L0.40,1.10 L0.20,1.10 z M-0.00,1.20 L0.20,1.20 L0.20,1.40 L-0.00,1.40 z M0.40,0.10 L0.60,0.10 L0.60,0.30 L0.40,0.30 z M0.40,0.20 L0.60,0.20 L0.60,0.40 L0.40,0.40 z M0.30,0.80 L0.50,0.80 L0.50,1.00 L0.30,1.00 z M0.30,1.00 L0.50,1.00 L0.50,1.20 L0.30,1.20 z M0.40,1.30 L0.60,1.30 L0.60,1.50 L0.40,1.50 z M0.30,1.50 L0.50,1.50 L0.50,1.70 L0.30,1.70 z M0.60,-0.10 L0.80,-0.10 L0.80,0.10 L0.60,0.10 z M0.70,0.30 L0.90,0.30 L0.90,0.50 L0.70,0.50 z M0.70,0.80 L0.90,0.80 L0.90,1.00 L0.70,1.00 z M0.70,1.10 L0.90,1.10 L0.90,1.30 L0.70,1.30 z M0.70,1.20 L0.90,1.20 L0.90,1.40 L0.70,1.40 z M0.60,1.70 L0.80,1.70 L0.80,1.90 L0.60,1.90 z M1.00,-0.10 L1.20,-0.10 L1.20,0.10 L1.00,0.10 z M1.10,0.30 L1.30,0.30 L1.30,0.50 L1.10,0.50 z M1.10,0.70 L1.30,0.70 L1.30,0.90 L1.10,0.90 z M0.90,0.90 L1.10,0.90 L1.10,1.10 L0.90,1.10 z M1.10,1.30 L1.30,1.30 L1.30,1.50 L1.10,1.50 z M0.90,1.70 L1.10,1.70 L1.10,1.90 L0.90,1.90 z M1.40,0.20 L1.60,0.20 L1.60,0.40 L1.40,0.40 z M1.10,0.30 L1.30,0.30 L1.30,0.50 L1.10,0.50 z M1.30,0.50 L1.50,0.50 L1.50,0.70 L1.30,0.70 z M1.40,0.90 L1.60,0.90 L1.60,1.10 L1.40,1.10 z M1.10,1.30 L1.30,1.30 L1.30,1.50 L1.10,1.50 z M1.30,1.50 L1.50,1.50 L1.50,1.70 L1.30,1.70 z M1.70,0.30 L1.90,0.30 L1.90,0.50 L1.70,0.50 z M1.50,0.60 L1.70,0.60 L1.70,0.80 L1.50,0.80 z M1.60,0.90 L1.80,0.90 L1.80,1.10 L1.60,1.10 z M1.50,1.20 L1.70,1.20 L1.70,1.40 L1.50,1.40 z" fill="rgb(196,8,8)" fill-opacity="1.000" stroke-linecap="round" stroke-width="0"/></symbol><g fill="rgb(196,8,8)" nch:grouptype="stamp" nch:path="36.1,18.3,36.1,18.3,36.1,18.3 36.1,18.3," nch:path-opacity="255" nch:stamp="pencil" nch:stampwidth="2.000000" stroke-width="0"><use transform="rotate(266,36.1,18.3)" x="35.1" xlink:href="#Symbol14" y="17.3"/></g><symbol id="Symbol15"><path d=" M0.20,0.10 L0.40,0.10 L0.40,0.30 L0.20,0.30 z M0.10,0.50 L0.30,0.50 L0.30,0.70 L0.10,0.70 z M-0.00,0.50 L0.20,0.50 L0.20,0.70 L-0.00,0.70 z M0.10,1.00 L0.30,1.00 L0.30,1.20 L0.10,1.20 z M-0.00,1.30 L0.20,1.30 L0.20,1.50 L-0.00,1.50 z M0.40,-0.00 L0.60,-0.00 L0.60,0.20 L0.40,0.20 z M0.50,0.20 L0.70,0.20 L0.70,0.40 L0.50,0.40 z M0.30,0.80 L0.50,0.80 L0.50,1.00 L0.30,1.00 z M0.30,0.80 L0.50,0.80 L0.50,1.00 L0.30,1.00 z M0.30,1.40 L0.50,1.40 L0.50,1.60 L0.30,1.60 z M0.40,1.60 L0.60,1.60 L0.60,1.80 L0.40,1.80 z M0.70,-0.00 L0.90,-0.00 L0.90,0.20 L0.70,0.20 z M0.50,0.40 L0.70,0.40 L0.70,0.60 L0.50,0.60 z M0.70,0.60 L0.90,0.60 L0.90,0.80 L0.70,0.80 z M0.70,0.80 L0.90,0.80 L0.90,1.00 L0.70,1.00 z M0.70,1.20 L0.90,1.20 L0.90,1.40 L0.70,1.40 z M0.80,1.70 L1.00,1.70 L1.00,1.90 L0.80,1.90 z M1.00,-0.00 L1.20,-0.00 L1.20,0.20 L1.00,0.20 z M0.90,0.40 L1.10,0.40 L1.10,0.60 L0.90,0.60 z M1.10,0.70 L1.30,0.70 L1.30,0.90 L1.10,0.90 z M0.90,0.90 L1.10,0.90 L1.10,1.10 L0.90,1.10 z M0.80,1.30 L1.00,1.30 L1.00,1.50 L0.80,1.50 z M1.00,1.50 L1.20,1.50 L1.20,1.70 L1.00,1.70 z M1.40,-0.10 L1.60,-0.10 L1.60,0.10 L1.40,0.10 z M1.10,0.30 L1.30,0.30 L1.30,0.50 L1.10,0.50 z M1.30,0.50 L1.50,0.50 L1.50,0.70 L1.30,0.70 z M1.40,0.90 L1.60,0.90 L1.60,1.10 L1.40,1.10 z M1.20,1.30 L1.40,1.30 L1.40,1.50 L1.20,1.50 z M1.20,1.50 L1.40,1.50 L1.40,1.70 L1.20,1.70 z M1.60,0.40 L1.80,0.40 L1.80,0.60 L1.60,0.60 z M1.60,0.80 L1.80,0.80 L1.80,1.00 L1.60,1.00 z M1.70,1.00 L1.90,1.00 L1.90,1.20 L1.70,1.20 z M1.70,1.10 L1.90,1.10 L1.90,1.30 L1.70,1.30 z" fill="rgb(196,8,8)" fill-opacity="1.000" stroke-linecap="round" stroke-width="0"/></symbol><g fill="rgb(196,8,8)" nch:grouptype="stamp" nch:path="36.4,18.2,36.4,18.2,36.4,18.2 36.4,18.2," nch:path-opacity="255" nch:stamp="pencil" nch:stampwidth="2.000000" stroke-width="0"><use transform="rotate(249,36.4,18.2)" x="35.4" xlink:href="#Symbol15" y="17.2"/></g><symbol id="Symbol16"><path d=" M-0.00,-0.10 L0.20,-0.10 L0.20,0.10 L-0.00,0.10 z M0.10,0.50 L0.30,0.50 L0.30,0.70 L0.10,0.70 z M-0.00,0.70 L0.20,0.70 L0.20,0.90 L-0.00,0.90 z M0.20,0.90 L0.40,0.90 L0.40,1.10 L0.20,1.10 z M0.20,1.20 L0.40,1.20 L0.40,1.40 L0.20,1.40 z M0.40,0.10 L0.60,0.10 L0.60,0.30 L0.40,0.30 z M0.20,0.50 L0.40,0.50 L0.40,0.70 L0.20,0.70 z M0.30,0.60 L0.50,0.60 L0.50,0.80 L0.30,0.80 z M0.40,0.90 L0.60,0.90 L0.60,1.10 L0.40,1.10 z M0.30,1.30 L0.50,1.30 L0.50,1.50 L0.30,1.50 z M0.30,1.50 L0.50,1.50 L0.50,1.70 L0.30,1.70 z M0.70,-0.10 L0.90,-0.10 L0.90,0.10 L0.70,0.10 z M0.70,0.30 L0.90,0.30 L0.90,0.50 L0.70,0.50 z M0.50,0.50 L0.70,0.50 L0.70,0.70 L0.50,0.70 z M0.60,0.90 L0.80,0.90 L0.80,1.10 L0.60,1.10 z M0.70,1.30 L0.90,1.30 L0.90,1.50 L0.70,1.50 z M0.50,1.60 L0.70,1.60 L0.70,1.80 L0.50,1.80 z M0.80,-0.00 L1.00,-0.00 L1.00,0.20 L0.80,0.20 z M1.00,0.30 L1.20,0.30 L1.20,0.50 L1.00,0.50 z M0.80,0.70 L1.00,0.70 L1.00,0.90 L0.80,0.90 z M0.80,1.10 L1.00,1.10 L1.00,1.30 L0.80,1.30 z M1.00,1.20 L1.20,1.20 L1.20,1.40 L1.00,1.40 z M0.90,1.60 L1.10,1.60 L1.10,1.80 L0.90,1.80 z M1.10,0.20 L1.30,0.20 L1.30,0.40 L1.10,0.40 z M1.20,0.40 L1.40,0.40 L1.40,0.60 L1.20,0.60 z M1.30,0.50 L1.50,0.50 L1.50,0.70 L1.30,0.70 z M1.40,0.80 L1.60,0.80 L1.60,1.00 L1.40,1.00 z M1.30,1.10 L1.50,1.10 L1.50,1.30 L1.30,1.30 z M1.20,1.70 L1.40,1.70 L1.40,1.90 L1.20,1.90 z M1.40,0.30 L1.60,0.30 L1.60,0.50 L1.40,0.50 z M1.60,0.60 L1.80,0.60 L1.80,0.80 L1.60,0.80 z M1.70,0.90 L1.90,0.90 L1.90,1.10 L1.70,1.10 z M1.50,1.20 L1.70,1.20 L1.70,1.40 L1.50,1.40 z" fill="rgb(196,8,8)" fill-opacity="1.000" stroke-linecap="round" stroke-width="0"/></symbol><g fill="rgb(196,8,8)" nch:grouptype="stamp" nch:path="34.5,20.2,34.5,20.2,34.5,20.2 34.5,20.2," nch:path-opacity="255" nch:stamp="pencil" nch:stampwidth="2.000000" stroke-width="0"><use transform="rotate(64,34.5,20.2)" x="33.5" xlink:href="#Symbol16" y="19.2"/></g><symbol id="Symbol17"><path d=" M-0.10,-0.00 L0.10,-0.00 L0.10,0.20 L-0.10,0.20 z M-0.10,0.50 L0.10,0.50 L0.10,0.70 L-0.10,0.70 z M-0.10,0.60 L0.10,0.60 L0.10,0.80 L-0.10,0.80 z M-0.00,0.80 L0.20,0.80 L0.20,1.00 L-0.00,1.00 z M-0.00,1.30 L0.20,1.30 L0.20,1.50 L-0.00,1.50 z M0.30,-0.10 L0.50,-0.10 L0.50,0.10 L0.30,0.10 z M0.30,0.30 L0.50,0.30 L0.50,0.50 L0.30,0.50 z M0.20,0.60 L0.40,0.60 L0.40,0.80 L0.20,0.80 z M0.20,0.80 L0.40,0.80 L0.40,1.00 L0.20,1.00 z M0.20,1.30 L0.40,1.30 L0.40,1.50 L0.20,1.50 z M0.20,1.40 L0.40,1.40 L0.40,1.60 L0.20,1.60 z M0.50,-0.10 L0.70,-0.10 L0.70,0.10 L0.50,0.10 z M0.50,0.30 L0.70,0.30 L0.70,0.50 L0.50,0.50 z M0.70,0.70 L0.90,0.70 L0.90,0.90 L0.70,0.90 z M0.50,1.10 L0.70,1.10 L0.70,1.30 L0.50,1.30 z M0.70,1.30 L0.90,1.30 L0.90,1.50 L0.70,1.50 z M0.50,1.60 L0.70,1.60 L0.70,1.80 L0.50,1.80 z M1.00,0.10 L1.20,0.10 L1.20,0.30 L1.00,0.30 z M1.00,0.20 L1.20,0.20 L1.20,0.40 L1.00,0.40 z M0.80,0.70 L1.00,0.70 L1.00,0.90 L0.80,0.90 z M0.90,1.10 L1.10,1.10 L1.10,1.30 L0.90,1.30 z M0.80,1.40 L1.00,1.40 L1.00,1.60 L0.80,1.60 z M0.90,1.50 L1.10,1.50 L1.10,1.70 L0.90,1.70 z M1.30,-0.00 L1.50,-0.00 L1.50,0.20 L1.30,0.20 z M1.20,0.30 L1.40,0.30 L1.40,0.50 L1.20,0.50 z M1.20,0.50 L1.40,0.50 L1.40,0.70 L1.20,0.70 z M1.40,1.10 L1.60,1.10 L1.60,1.30 L1.40,1.30 z M1.20,1.40 L1.40,1.40 L1.40,1.60 L1.20,1.60 z M1.30,1.70 L1.50,1.70 L1.50,1.90 L1.30,1.90 z M1.50,0.50 L1.70,0.50 L1.70,0.70 L1.50,0.70 z M1.50,0.60 L1.70,0.60 L1.70,0.80 L1.50,0.80 z M1.40,0.80 L1.60,0.80 L1.60,1.00 L1.40,1.00 z M1.60,1.20 L1.80,1.20 L1.80,1.40 L1.60,1.40 z" fill="rgb(196,8,8)" fill-opacity="1.000" stroke-linecap="round" stroke-width="0"/></symbol><g fill="rgb(196,8,8)" nch:grouptype="stamp" nch:path="35.7,19.2,35.7,19.2,35.7,19.2 35.7,19.2," nch:path-opacity="255" nch:stamp="pencil" nch:stampwidth="2.000000" stroke-width="0"><use transform="rotate(252,35.7,19.2)" x="34.7" xlink:href="#Symbol17" y="18.2"/></g><symbol id="Symbol18"><path d=" M-0.00,-0.10 L0.20,-0.10 L0.20,0.10 L-0.00,0.10 z M0.10,0.40 L0.30,0.40 L0.30,0.60 L0.10,0.60 z M-0.00,0.60 L0.20,0.60 L0.20,0.80 L-0.00,0.80 z M-0.00,0.90 L0.20,0.90 L0.20,1.10 L-0.00,1.10 z M0.20,1.30 L0.40,1.30 L0.40,1.50 L0.20,1.50 z M0.40,-0.00 L0.60,-0.00 L0.60,0.20 L0.40,0.20 z M0.40,0.40 L0.60,0.40 L0.60,0.60 L0.40,0.60 z M0.30,0.80 L0.50,0.80 L0.50,1.00 L0.30,1.00 z M0.40,1.10 L0.60,1.10 L0.60,1.30 L0.40,1.30 z M0.20,1.30 L0.40,1.30 L0.40,1.50 L0.20,1.50 z M0.50,1.40 L0.70,1.40 L0.70,1.60 L0.50,1.60 z M0.80,0.20 L1.00,0.20 L1.00,0.40 L0.80,0.40 z M0.70,0.50 L0.90,0.50 L0.90,0.70 L0.70,0.70 z M0.70,0.70 L0.90,0.70 L0.90,0.90 L0.70,0.90 z M0.70,1.10 L0.90,1.10 L0.90,1.30 L0.70,1.30 z M0.60,1.30 L0.80,1.30 L0.80,1.50 L0.60,1.50 z M0.50,1.60 L0.70,1.60 L0.70,1.80 L0.50,1.80 z M0.90,-0.10 L1.10,-0.10 L1.10,0.10 L0.90,0.10 z M0.90,0.20 L1.10,0.20 L1.10,0.40 L0.90,0.40 z M0.90,0.60 L1.10,0.60 L1.10,0.80 L0.90,0.80 z M0.90,1.10 L1.10,1.10 L1.10,1.30 L0.90,1.30 z M1.10,1.20 L1.30,1.20 L1.30,1.40 L1.10,1.40 z M0.90,1.40 L1.10,1.40 L1.10,1.60 L0.90,1.60 z M1.30,0.20 L1.50,0.20 L1.50,0.40 L1.30,0.40 z M1.40,0.30 L1.60,0.30 L1.60,0.50 L1.40,0.50 z M1.20,0.70 L1.40,0.70 L1.40,0.90 L1.20,0.90 z M1.20,1.00 L1.40,1.00 L1.40,1.20 L1.20,1.20 z M1.20,1.20 L1.40,1.20 L1.40,1.40 L1.20,1.40 z M1.40,1.40 L1.60,1.40 L1.60,1.60 L1.40,1.60 z M1.50,0.30 L1.70,0.30 L1.70,0.50 L1.50,0.50 z M1.50,0.50 L1.70,0.50 L1.70,0.70 L1.50,0.70 z M1.70,0.90 L1.90,0.90 L1.90,1.10 L1.70,1.10 z M1.40,1.30 L1.60,1.30 L1.60,1.50 L1.40,1.50 z" fill="rgb(196,8,8)" fill-opacity="1.000" stroke-linecap="round" stroke-width="0"/></symbol><g fill="rgb(196,8,8)" nch:grouptype="stamp" nch:path="36.1,18.4,36.1,18.4,36.1,18.4 36.1,18.4," nch:path-opacity="255" nch:stamp="pencil" nch:stampwidth="2.000000" stroke-width="0"><use transform="rotate(12,36.1,18.4)" x="35.1" xlink:href="#Symbol18" y="17.4"/></g></g></svg>