<?xml version="1.0" standalone="no"?>
<!DOCTYPE svg PUBLIC "-//W3C//DTD SVG 1.1//EN"
"http://www.w3.org/Graphics/SVG/1.1/DTD/svg11.dtd">

<svg height="768" transform="translate(0.5,0.5)" version="1.1" width="1024" xmlns="http://www.w3.org/2000/svg" xmlns:nch="http://www.nchsoftware.com/drawpad/" xmlns:xlink="http://www.w3.org/1999/xlink"><rect fill="rgb(255,255,255)" fill-opacity="1.000" height="768" id="background" width="1024" x="0" y="0"/><g class="Layer"><rect fill="rgb(255,255,255)" fill-opacity="1.000" height="768" nch:bounds="0.000,0.000,1024.000,768.000" nch:colorstroke="rgba(0,0,0,255)" stroke="rgb(0,0,0)" stroke-opacity="1.000" stroke-width="0" width="1024" x="0" y="0"/><path d=" M33.0,2.0 C33.0,2.0 588.0,2.0 588.0,2.0 C588.0,2.0 588.0,3.0 588.0,3.0 C588.0,3.0 596.0,3.0 596.0,3.0 C596.0,3.0 596.0,4.0 596.0,4.0 C596.0,4.0 599.0,4.0 599.0,4.0 C599.0,4.0 599.0,5.0 599.0,5.0 C599.0,5.0 602.0,5.0 602.0,5.0 C602.0,5.0 602.0,6.0 602.0,6.0 C602.0,6.0 604.0,6.0 604.0,6.0 C604.0,6.0 604.0,7.0 604.0,7.0 C604.0,7.0 606.0,7.0 606.0,7.0 C606.0,7.0 606.0,8.0 606.0,8.0 C606.0,8.0 607.0,8.0 607.0,8.0 C607.0,8.0 607.0,9.0 607.0,9.0 C607.0,9.0 608.0,9.0 608.0,9.0 C608.0,9.0 608.0,10.0 608.0,10.0 C608.0,10.0 610.0,10.0 610.0,10.0 C610.0,10.0 610.0,11.0 610.0,11.0 C610.0,11.0 611.0,11.0 611.0,11.0 C611.0,11.0 611.0,12.0 611.0,12.0 C611.0,12.0 612.0,12.0 612.0,12.0 C612.0,12.0 612.0,13.0 612.0,13.0 C612.0,13.0 613.0,13.0 613.0,13.0 C613.0,13.0 613.0,15.0 613.0,15.0 C613.0,15.0 614.0,15.0 614.0,15.0 C614.0,15.0 614.0,16.0 614.0,16.0 C614.0,16.0 615.0,16.0 615.0,16.0 C615.0,16.0 615.0,17.0 615.0,17.0 C615.0,17.0 616.0,17.0 616.0,17.0 C616.0,17.0 616.0,19.0 616.0,19.0 C616.0,19.0 617.0,19.0 617.0,19.0 C617.0,19.0 617.0,21.0 617.0,21.0 C617.0,21.0 618.0,21.0 618.0,21.0 C618.0,21.0 618.0,24.0 618.0,24.0 C618.0,24.0 619.0,24.0 619.0,24.0 C619.0,24.0 619.0,27.0 619.0,27.0 C619.0,27.0 620.0,27.0 620.0,27.0 C620.0,27.0 620.0,158.0 620.0,158.0 C620.0,158.0 621.0,158.0 621.0,158.0 C621.0,158.0 621.0,159.0 621.0,159.0 C621.0,159.0 624.0,159.0 624.0,159.0 C624.0,159.0 624.0,160.0 624.0,160.0 C624.0,160.0 626.0,160.0 626.0,160.0 C626.0,160.0 626.0,161.0 626.0,161.0 C626.0,161.0 628.0,161.0 628.0,161.0 C628.0,161.0 628.0,162.0 628.0,162.0 C628.0,162.0 630.0,162.0 630.0,162.0 C630.0,162.0 630.0,163.0 630.0,163.0 C630.0,163.0 633.0,163.0 633.0,163.0 C633.0,163.0 633.0,164.0 633.0,164.0 C633.0,164.0 635.0,164.0 635.0,164.0 C635.0,164.0 635.0,165.0 635.0,165.0 C635.0,165.0 637.0,165.0 637.0,165.0 C637.0,165.0 637.0,166.0 637.0,166.0 C637.0,166.0 639.0,166.0 639.0,166.0 C639.0,166.0 639.0,167.0 639.0,167.0 C639.0,167.0 641.0,167.0 641.0,167.0 C641.0,167.0 641.0,168.0 641.0,168.0 C641.0,168.0 643.0,168.0 643.0,168.0 C643.0,168.0 643.0,169.0 643.0,169.0 C643.0,169.0 646.0,169.0 646.0,169.0 C646.0,169.0 646.0,170.0 646.0,170.0 C646.0,170.0 648.0,170.0 648.0,170.0 C648.0,170.0 648.0,171.0 648.0,171.0 C648.0,171.0 650.0,171.0 650.0,171.0 C650.0,171.0 650.0,172.0 650.0,172.0 C650.0,172.0 652.0,172.0 652.0,172.0 C652.0,172.0 652.0,173.0 652.0,173.0 C652.0,173.0 654.0,173.0 654.0,173.0 C654.0,173.0 654.0,174.0 654.0,174.0 C654.0,174.0 657.0,174.0 657.0,174.0 C657.0,174.0 657.0,175.0 657.0,175.0 C657.0,175.0 659.0,175.0 659.0,175.0 C659.0,175.0 659.0,176.0 659.0,176.0 C659.0,176.0 661.0,176.0 661.0,176.0 C661.0,176.0 661.0,177.0 661.0,177.0 C661.0,177.0 663.0,177.0 663.0,177.0 C663.0,177.0 663.0,178.0 663.0,178.0 C663.0,178.0 665.0,178.0 665.0,178.0 C665.0,178.0 665.0,179.0 665.0,179.0 C665.0,179.0 667.0,179.0 667.0,179.0 C667.0,179.0 667.0,180.0 667.0,180.0 C667.0,180.0 670.0,180.0 670.0,180.0 C670.0,180.0 670.0,181.0 670.0,181.0 C670.0,181.0 672.0,181.0 672.0,181.0 C672.0,181.0 672.0,182.0 672.0,182.0 C672.0,182.0 674.0,182.0 674.0,182.0 C674.0,182.0 674.0,183.0 674.0,183.0 C674.0,183.0 676.0,183.0 676.0,183.0 C676.0,183.0 676.0,184.0 676.0,184.0 C676.0,184.0 678.0,184.0 678.0,184.0 C678.0,184.0 678.0,185.0 678.0,185.0 C678.0,185.0 680.0,185.0 680.0,185.0 C680.0,185.0 680.0,186.0 680.0,186.0 C680.0,186.0 682.0,186.0 682.0,186.0 C682.0,186.0 682.0,187.0 682.0,187.0 C682.0,187.0 685.0,187.0 685.0,187.0 C685.0,187.0 685.0,188.0 685.0,188.0 C685.0,188.0 687.0,188.0 687.0,188.0 C687.0,188.0 687.0,189.0 687.0,189.0 C687.0,189.0 689.0,189.0 689.0,189.0 C689.0,189.0 689.0,190.0 689.0,190.0 C689.0,190.0 691.0,190.0 691.0,190.0 C691.0,190.0 691.0,191.0 691.0,191.0 C691.0,191.0 693.0,191.0 693.0,191.0 C693.0,191.0 693.0,192.0 693.0,192.0 C693.0,192.0 695.0,192.0 695.0,192.0 C695.0,192.0 695.0,193.0 695.0,193.0 C695.0,193.0 697.0,193.0 697.0,193.0 C697.0,193.0 697.0,194.0 697.0,194.0 C697.0,194.0 700.0,194.0 700.0,194.0 C700.0,194.0 700.0,195.0 700.0,195.0 C700.0,195.0 702.0,195.0 702.0,195.0 C702.0,195.0 702.0,196.0 702.0,196.0 C702.0,196.0 704.0,196.0 704.0,196.0 C704.0,196.0 704.0,197.0 704.0,197.0 C704.0,197.0 706.0,197.0 706.0,197.0 C706.0,197.0 706.0,198.0 706.0,198.0 C706.0,198.0 708.0,198.0 708.0,198.0 C708.0,198.0 708.0,199.0 708.0,199.0 C708.0,199.0 710.0,199.0 710.0,199.0 C710.0,199.0 710.0,200.0 710.0,200.0 C710.0,200.0 712.0,200.0 712.0,200.0 C712.0,200.0 712.0,201.0 712.0,201.0 C712.0,201.0 715.0,201.0 715.0,201.0 C715.0,201.0 715.0,202.0 715.0,202.0 C715.0,202.0 717.0,202.0 717.0,202.0 C717.0,202.0 717.0,203.0 717.0,203.0 C717.0,203.0 719.0,203.0 719.0,203.0 C719.0,203.0 719.0,204.0 719.0,204.0 C719.0,204.0 721.0,204.0 721.0,204.0 C721.0,204.0 721.0,205.0 721.0,205.0 C721.0,205.0 723.0,205.0 723.0,205.0 C723.0,205.0 723.0,206.0 723.0,206.0 C723.0,206.0 725.0,206.0 725.0,206.0 C725.0,206.0 725.0,207.0 725.0,207.0 C725.0,207.0 728.0,207.0 728.0,207.0 C728.0,207.0 728.0,208.0 728.0,208.0 C728.0,208.0 730.0,208.0 730.0,208.0 C730.0,208.0 730.0,209.0 730.0,209.0 C730.0,209.0 732.0,209.0 732.0,209.0 C732.0,209.0 732.0,210.0 732.0,210.0 C732.0,210.0 734.0,210.0 734.0,210.0 C734.0,210.0 734.0,211.0 734.0,211.0 C734.0,211.0 736.0,211.0 736.0,211.0 C736.0,211.0 736.0,212.0 736.0,212.0 C736.0,212.0 738.0,212.0 738.0,212.0 C738.0,212.0 738.0,213.0 738.0,213.0 C738.0,213.0 740.0,213.0 740.0,213.0 C740.0,213.0 740.0,214.0 740.0,214.0 C740.0,214.0 742.0,214.0 742.0,214.0 C742.0,214.0 742.0,215.0 742.0,215.0 C742.0,215.0 744.0,215.0 744.0,215.0 C744.0,215.0 744.0,216.0 744.0,216.0 C744.0,216.0 747.0,216.0 747.0,216.0 C747.0,216.0 747.0,217.0 747.0,217.0 C747.0,217.0 749.0,217.0 749.0,217.0 C749.0,217.0 749.0,218.0 749.0,218.0 C749.0,218.0 751.0,218.0 751.0,218.0 C751.0,218.0 751.0,219.0 751.0,219.0 C751.0,219.0 753.0,219.0 753.0,219.0 C753.0,219.0 753.0,220.0 753.0,220.0 C753.0,220.0 755.0,220.0 755.0,220.0 C755.0,220.0 755.0,221.0 755.0,221.0 C755.0,221.0 757.0,221.0 757.0,221.0 C757.0,221.0 757.0,222.0 757.0,222.0 C757.0,222.0 758.0,222.0 758.0,222.0 C758.0,222.0 758.0,223.0 758.0,223.0 C758.0,223.0 760.0,223.0 760.0,223.0 C760.0,223.0 760.0,224.0 760.0,224.0 C760.0,224.0 762.0,224.0 762.0,224.0 C762.0,224.0 762.0,225.0 762.0,225.0 C762.0,225.0 764.0,225.0 764.0,225.0 C764.0,225.0 764.0,226.0 764.0,226.0 C764.0,226.0 766.0,226.0 766.0,226.0 C766.0,226.0 766.0,227.0 766.0,227.0 C766.0,227.0 768.0,227.0 768.0,227.0 C768.0,227.0 768.0,228.0 768.0,228.0 C768.0,228.0 770.0,228.0 770.0,228.0 C770.0,228.0 770.0,229.0 770.0,229.0 C770.0,229.0 772.0,229.0 772.0,229.0 C772.0,229.0 772.0,230.0 772.0,230.0 C772.0,230.0 774.0,230.0 774.0,230.0 C774.0,230.0 774.0,231.0 774.0,231.0 C774.0,231.0 776.0,231.0 776.0,231.0 C776.0,231.0 776.0,232.0 776.0,232.0 C776.0,232.0 778.0,232.0 778.0,232.0 C778.0,232.0 778.0,233.0 778.0,233.0 C778.0,233.0 780.0,233.0 780.0,233.0 C780.0,233.0 780.0,234.0 780.0,234.0 C780.0,234.0 781.0,234.0 781.0,234.0 C781.0,234.0 781.0,235.0 781.0,235.0 C781.0,235.0 783.0,235.0 783.0,235.0 C783.0,235.0 783.0,236.0 783.0,236.0 C783.0,236.0 785.0,236.0 785.0,236.0 C785.0,236.0 785.0,237.0 785.0,237.0 C785.0,237.0 787.0,237.0 787.0,237.0 C787.0,237.0 787.0,238.0 787.0,238.0 C787.0,238.0 789.0,238.0 789.0,238.0 C789.0,238.0 789.0,239.0 789.0,239.0 C789.0,239.0 791.0,239.0 791.0,239.0 C791.0,239.0 791.0,240.0 791.0,240.0 C791.0,240.0 792.0,240.0 792.0,240.0 C792.0,240.0 792.0,241.0 792.0,241.0 C792.0,241.0 794.0,241.0 794.0,241.0 C794.0,241.0 794.0,242.0 794.0,242.0 C794.0,242.0 796.0,242.0 796.0,242.0 C796.0,242.0 796.0,243.0 796.0,243.0 C796.0,243.0 798.0,243.0 798.0,243.0 C798.0,243.0 798.0,244.0 798.0,244.0 C798.0,244.0 800.0,244.0 800.0,244.0 C800.0,244.0 800.0,245.0 800.0,245.0 C800.0,245.0 802.0,245.0 802.0,245.0 C802.0,245.0 802.0,246.0 802.0,246.0 C802.0,246.0 803.0,246.0 803.0,246.0 C803.0,246.0 803.0,247.0 803.0,247.0 C803.0,247.0 805.0,247.0 805.0,247.0 C805.0,247.0 805.0,248.0 805.0,248.0 C805.0,248.0 807.0,248.0 807.0,248.0 C807.0,248.0 807.0,249.0 807.0,249.0 C807.0,249.0 808.0,249.0 808.0,249.0 C808.0,249.0 808.0,250.0 808.0,250.0 C808.0,250.0 810.0,250.0 810.0,250.0 C810.0,250.0 810.0,251.0 810.0,251.0 C810.0,251.0 812.0,251.0 812.0,251.0 C812.0,251.0 812.0,252.0 812.0,252.0 C812.0,252.0 814.0,252.0 814.0,252.0 C814.0,252.0 814.0,253.0 814.0,253.0 C814.0,253.0 815.0,253.0 815.0,253.0 C815.0,253.0 815.0,254.0 815.0,254.0 C815.0,254.0 817.0,254.0 817.0,254.0 C817.0,254.0 817.0,255.0 817.0,255.0 C817.0,255.0 819.0,255.0 819.0,255.0 C819.0,255.0 819.0,256.0 819.0,256.0 C819.0,256.0 821.0,256.0 821.0,256.0 C821.0,256.0 821.0,257.0 821.0,257.0 C821.0,257.0 822.0,257.0 822.0,257.0 C822.0,257.0 822.0,258.0 822.0,258.0 C822.0,258.0 824.0,258.0 824.0,258.0 C824.0,258.0 824.0,259.0 824.0,259.0 C824.0,259.0 825.0,259.0 825.0,259.0 C825.0,259.0 825.0,260.0 825.0,260.0 C825.0,260.0 827.0,260.0 827.0,260.0 C827.0,260.0 827.0,261.0 827.0,261.0 C827.0,261.0 829.0,261.0 829.0,261.0 C829.0,261.0 829.0,262.0 829.0,262.0 C829.0,262.0 830.0,262.0 830.0,262.0 C830.0,262.0 830.0,263.0 830.0,263.0 C830.0,263.0 832.0,263.0 832.0,263.0 C832.0,263.0 832.0,264.0 832.0,264.0 C832.0,264.0 834.0,264.0 834.0,264.0 C834.0,264.0 834.0,265.0 834.0,265.0 C834.0,265.0 835.0,265.0 835.0,265.0 C835.0,265.0 835.0,266.0 835.0,266.0 C835.0,266.0 837.0,266.0 837.0,266.0 C837.0,266.0 837.0,267.0 837.0,267.0 C837.0,267.0 839.0,267.0 839.0,267.0 C839.0,267.0 839.0,268.0 839.0,268.0 C839.0,268.0 840.0,268.0 840.0,268.0 C840.0,268.0 840.0,269.0 840.0,269.0 C840.0,269.0 842.0,269.0 842.0,269.0 C842.0,269.0 842.0,270.0 842.0,270.0 C842.0,270.0 843.0,270.0 843.0,270.0 C843.0,270.0 843.0,271.0 843.0,271.0 C843.0,271.0 845.0,271.0 845.0,271.0 C845.0,271.0 845.0,272.0 845.0,272.0 C845.0,272.0 847.0,272.0 847.0,272.0 C847.0,272.0 847.0,273.0 847.0,273.0 C847.0,273.0 848.0,273.0 848.0,273.0 C848.0,273.0 848.0,274.0 848.0,274.0 C848.0,274.0 850.0,274.0 850.0,274.0 C850.0,274.0 850.0,275.0 850.0,275.0 C850.0,275.0 851.0,275.0 851.0,275.0 C851.0,275.0 851.0,276.0 851.0,276.0 C851.0,276.0 853.0,276.0 853.0,276.0 C853.0,276.0 853.0,277.0 853.0,277.0 C853.0,277.0 854.0,277.0 854.0,277.0 C854.0,277.0 854.0,278.0 854.0,278.0 C854.0,278.0 856.0,278.0 856.0,278.0 C856.0,278.0 856.0,279.0 856.0,279.0 C856.0,279.0 858.0,279.0 858.0,279.0 C858.0,279.0 858.0,280.0 858.0,280.0 C858.0,280.0 859.0,280.0 859.0,280.0 C859.0,280.0 859.0,281.0 859.0,281.0 C859.0,281.0 861.0,281.0 861.0,281.0 C861.0,281.0 861.0,282.0 861.0,282.0 C861.0,282.0 862.0,282.0 862.0,282.0 C862.0,282.0 862.0,283.0 862.0,283.0 C862.0,283.0 864.0,283.0 864.0,283.0 C864.0,283.0 864.0,284.0 864.0,284.0 C864.0,284.0 865.0,284.0 865.0,284.0 C865.0,284.0 865.0,285.0 865.0,285.0 C865.0,285.0 867.0,285.0 867.0,285.0 C867.0,285.0 867.0,286.0 867.0,286.0 C867.0,286.0 868.0,286.0 868.0,286.0 C868.0,286.0 868.0,287.0 868.0,287.0 C868.0,287.0 870.0,287.0 870.0,287.0 C870.0,287.0 870.0,288.0 870.0,288.0 C870.0,288.0 871.0,288.0 871.0,288.0 C871.0,288.0 871.0,289.0 871.0,289.0 C871.0,289.0 873.0,289.0 873.0,289.0 C873.0,289.0 873.0,290.0 873.0,290.0 C873.0,290.0 874.0,290.0 874.0,290.0 C874.0,290.0 874.0,291.0 874.0,291.0 C874.0,291.0 876.0,291.0 876.0,291.0 C876.0,291.0 876.0,292.0 876.0,292.0 C876.0,292.0 877.0,292.0 877.0,292.0 C877.0,292.0 877.0,293.0 877.0,293.0 C877.0,293.0 879.0,293.0 879.0,293.0 C879.0,293.0 879.0,294.0 879.0,294.0 C879.0,294.0 880.0,294.0 880.0,294.0 C880.0,294.0 880.0,295.0 880.0,295.0 C880.0,295.0 881.0,295.0 881.0,295.0 C881.0,295.0 881.0,296.0 881.0,296.0 C881.0,296.0 883.0,296.0 883.0,296.0 C883.0,296.0 883.0,297.0 883.0,297.0 C883.0,297.0 884.0,297.0 884.0,297.0 C884.0,297.0 884.0,298.0 884.0,298.0 C884.0,298.0 886.0,298.0 886.0,298.0 C886.0,298.0 886.0,299.0 886.0,299.0 C886.0,299.0 887.0,299.0 887.0,299.0 C887.0,299.0 887.0,300.0 887.0,300.0 C887.0,300.0 889.0,300.0 889.0,300.0 C889.0,300.0 889.0,301.0 889.0,301.0 C889.0,301.0 890.0,301.0 890.0,301.0 C890.0,301.0 890.0,302.0 890.0,302.0 C890.0,302.0 892.0,302.0 892.0,302.0 C892.0,302.0 892.0,303.0 892.0,303.0 C892.0,303.0 893.0,303.0 893.0,303.0 C893.0,303.0 893.0,304.0 893.0,304.0 C893.0,304.0 894.0,304.0 894.0,304.0 C894.0,304.0 894.0,305.0 894.0,305.0 C894.0,305.0 896.0,305.0 896.0,305.0 C896.0,305.0 896.0,306.0 896.0,306.0 C896.0,306.0 897.0,306.0 897.0,306.0 C897.0,306.0 897.0,307.0 897.0,307.0 C897.0,307.0 899.0,307.0 899.0,307.0 C899.0,307.0 899.0,308.0 899.0,308.0 C899.0,308.0 900.0,308.0 900.0,308.0 C900.0,308.0 900.0,309.0 900.0,309.0 C900.0,309.0 901.0,309.0 901.0,309.0 C901.0,309.0 901.0,310.0 901.0,310.0 C901.0,310.0 903.0,310.0 903.0,310.0 C903.0,310.0 903.0,311.0 903.0,311.0 C903.0,311.0 904.0,311.0 904.0,311.0 C904.0,311.0 904.0,312.0 904.0,312.0 C904.0,312.0 905.0,312.0 905.0,312.0 C905.0,312.0 905.0,313.0 905.0,313.0 C905.0,313.0 907.0,313.0 907.0,313.0 C907.0,313.0 907.0,314.0 907.0,314.0 C907.0,314.0 908.0,314.0 908.0,314.0 C908.0,314.0 908.0,315.0 908.0,315.0 C908.0,315.0 910.0,315.0 910.0,315.0 C910.0,315.0 910.0,316.0 910.0,316.0 C910.0,316.0 911.0,316.0 911.0,316.0 C911.0,316.0 911.0,317.0 911.0,317.0 C911.0,317.0 912.0,317.0 912.0,317.0 C912.0,317.0 912.0,318.0 912.0,318.0 C912.0,318.0 914.0,318.0 914.0,318.0 C914.0,318.0 914.0,319.0 914.0,319.0 C914.0,319.0 915.0,319.0 915.0,319.0 C915.0,319.0 915.0,320.0 915.0,320.0 C915.0,320.0 916.0,320.0 916.0,320.0 C916.0,320.0 916.0,321.0 916.0,321.0 C916.0,321.0 917.0,321.0 917.0,321.0 C917.0,321.0 917.0,322.0 917.0,322.0 C917.0,322.0 919.0,322.0 919.0,322.0 C919.0,322.0 919.0,323.0 919.0,323.0 C919.0,323.0 920.0,323.0 920.0,323.0 C920.0,323.0 920.0,324.0 920.0,324.0 C920.0,324.0 921.0,324.0 921.0,324.0 C921.0,324.0 921.0,325.0 921.0,325.0 C921.0,325.0 923.0,325.0 923.0,325.0 C923.0,325.0 923.0,326.0 923.0,326.0 C923.0,326.0 924.0,326.0 924.0,326.0 C924.0,326.0 924.0,327.0 924.0,327.0 C924.0,327.0 925.0,327.0 925.0,327.0 C925.0,327.0 925.0,328.0 925.0,328.0 C925.0,328.0 927.0,328.0 927.0,328.0 C927.0,328.0 927.0,329.0 927.0,329.0 C927.0,329.0 928.0,329.0 928.0,329.0 C928.0,329.0 928.0,330.0 928.0,330.0 C928.0,330.0 929.0,330.0 929.0,330.0 C929.0,330.0 929.0,331.0 929.0,331.0 C929.0,331.0 931.0,331.0 931.0,331.0 C931.0,331.0 931.0,332.0 931.0,332.0 C931.0,332.0 932.0,332.0 932.0,332.0 C932.0,332.0 932.0,333.0 932.0,333.0 C932.0,333.0 933.0,333.0 933.0,333.0 C933.0,333.0 933.0,334.0 933.0,334.0 C933.0,334.0 934.0,334.0 934.0,334.0 C934.0,334.0 934.0,335.0 934.0,335.0 C934.0,335.0 936.0,335.0 936.0,335.0 C936.0,335.0 936.0,336.0 936.0,336.0 C936.0,336.0 937.0,336.0 937.0,336.0 C937.0,336.0 937.0,337.0 937.0,337.0 C937.0,337.0 938.0,337.0 938.0,337.0 C938.0,337.0 938.0,338.0 938.0,338.0 C938.0,338.0 939.0,338.0 939.0,338.0 C939.0,338.0 939.0,339.0 939.0,339.0 C939.0,339.0 940.0,339.0 940.0,339.0 C940.0,339.0 940.0,340.0 940.0,340.0 C940.0,340.0 942.0,340.0 942.0,340.0 C942.0,340.0 942.0,341.0 942.0,341.0 C942.0,341.0 943.0,341.0 943.0,341.0 C943.0,341.0 943.0,342.0 943.0,342.0 C943.0,342.0 944.0,342.0 944.0,342.0 C944.0,342.0 944.0,343.0 944.0,343.0 C944.0,343.0 945.0,343.0 945.0,343.0 C945.0,343.0 945.0,344.0 945.0,344.0 C945.0,344.0 947.0,344.0 947.0,344.0 C947.0,344.0 947.0,345.0 947.0,345.0 C947.0,345.0 948.0,345.0 948.0,345.0 C948.0,345.0 948.0,346.0 948.0,346.0 C948.0,346.0 949.0,346.0 949.0,346.0 C949.0,346.0 949.0,347.0 949.0,347.0 C949.0,347.0 950.0,347.0 950.0,347.0 C950.0,347.0 950.0,348.0 950.0,348.0 C950.0,348.0 951.0,348.0 951.0,348.0 C951.0,348.0 951.0,349.0 951.0,349.0 C951.0,349.0 953.0,349.0 953.0,349.0 C953.0,349.0 953.0,350.0 953.0,350.0 C953.0,350.0 954.0,350.0 954.0,350.0 C954.0,350.0 954.0,351.0 954.0,351.0 C954.0,351.0 955.0,351.0 955.0,351.0 C955.0,351.0 955.0,352.0 955.0,352.0 C955.0,352.0 956.0,352.0 956.0,352.0 C956.0,352.0 956.0,353.0 956.0,353.0 C956.0,353.0 957.0,353.0 957.0,353.0 C957.0,353.0 957.0,354.0 957.0,354.0 C957.0,354.0 958.0,354.0 958.0,354.0 C958.0,354.0 958.0,355.0 958.0,355.0 C958.0,355.0 960.0,355.0 960.0,355.0 C960.0,355.0 960.0,356.0 960.0,356.0 C960.0,356.0 961.0,356.0 961.0,356.0 C961.0,356.0 961.0,357.0 961.0,357.0 C961.0,357.0 962.0,357.0 962.0,357.0 C962.0,357.0 962.0,358.0 962.0,358.0 C962.0,358.0 963.0,358.0 963.0,358.0 C963.0,358.0 963.0,359.0 963.0,359.0 C963.0,359.0 964.0,359.0 964.0,359.0 C964.0,359.0 964.0,360.0 964.0,360.0 C964.0,360.0 965.0,360.0 965.0,360.0 C965.0,360.0 965.0,361.0 965.0,361.0 C965.0,361.0 967.0,361.0 967.0,361.0 C967.0,361.0 967.0,362.0 967.0,362.0 C967.0,362.0 968.0,362.0 968.0,362.0 C968.0,362.0 968.0,363.0 968.0,363.0 C968.0,363.0 969.0,363.0 969.0,363.0 C969.0,363.0 969.0,364.0 969.0,364.0 C969.0,364.0 970.0,364.0 970.0,364.0 C970.0,364.0 970.0,365.0 970.0,365.0 C970.0,365.0 971.0,365.0 971.0,365.0 C971.0,365.0 971.0,366.0 971.0,366.0 C971.0,366.0 972.0,366.0 972.0,366.0 C972.0,366.0 972.0,367.0 972.0,367.0 C972.0,367.0 973.0,367.0 973.0,367.0 C973.0,367.0 973.0,368.0 973.0,368.0 C973.0,368.0 974.0,368.0 974.0,368.0 C974.0,368.0 974.0,369.0 974.0,369.0 C974.0,369.0 975.0,369.0 975.0,369.0 C975.0,369.0 975.0,370.0 975.0,370.0 C975.0,370.0 977.0,370.0 977.0,370.0 C977.0,370.0 977.0,371.0 977.0,371.0 C977.0,371.0 978.0,371.0 978.0,371.0 C978.0,371.0 978.0,372.0 978.0,372.0 C978.0,372.0 979.0,372.0 979.0,372.0 C979.0,372.0 979.0,373.0 979.0,373.0 C979.0,373.0 980.0,373.0 980.0,373.0 C980.0,373.0 980.0,374.0 980.0,374.0 C980.0,374.0 981.0,374.0 981.0,374.0 C981.0,374.0 981.0,375.0 981.0,375.0 C981.0,375.0 982.0,375.0 982.0,375.0 C982.0,375.0 982.0,376.0 982.0,376.0 C982.0,376.0 983.0,376.0 983.0,376.0 C983.0,376.0 983.0,377.0 983.0,377.0 C983.0,377.0 984.0,377.0 984.0,377.0 C984.0,377.0 984.0,378.0 984.0,378.0 C984.0,378.0 985.0,378.0 985.0,378.0 C985.0,378.0 985.0,379.0 985.0,379.0 C985.0,379.0 986.0,379.0 986.0,379.0 C986.0,379.0 986.0,380.0 986.0,380.0 C986.0,380.0 987.0,380.0 987.0,380.0 C987.0,380.0 987.0,381.0 987.0,381.0 C987.0,381.0 988.0,381.0 988.0,381.0 C988.0,381.0 988.0,382.0 988.0,382.0 C988.0,382.0 989.0,382.0 989.0,382.0 C989.0,382.0 989.0,383.0 989.0,383.0 C989.0,383.0 990.0,383.0 990.0,383.0 C990.0,383.0 990.0,384.0 990.0,384.0 C990.0,384.0 991.0,384.0 991.0,384.0 C991.0,384.0 991.0,385.0 991.0,385.0 C991.0,385.0 992.0,385.0 992.0,385.0 C992.0,385.0 992.0,386.0 992.0,386.0 C992.0,386.0 994.0,386.0 994.0,386.0 C994.0,386.0 994.0,387.0 994.0,387.0 C994.0,387.0 995.0,387.0 995.0,387.0 C995.0,387.0 995.0,388.0 995.0,388.0 C995.0,388.0 996.0,388.0 996.0,388.0 C996.0,388.0 996.0,389.0 996.0,389.0 C996.0,389.0 997.0,389.0 997.0,389.0 C997.0,389.0 997.0,390.0 997.0,390.0 C997.0,390.0 998.0,390.0 998.0,390.0 C998.0,390.0 998.0,391.0 998.0,391.0 C998.0,391.0 999.0,391.0 999.0,391.0 C999.0,391.0 999.0,392.0 999.0,392.0 C999.0,392.0 1000.0,392.0 1000.0,392.0 C1000.0,392.0 1000.0,394.0 1000.0,394.0 C1000.0,394.0 1001.0,394.0 1001.0,394.0 C1001.0,394.0 1001.0,395.0 1001.0,395.0 C1001.0,395.0 1002.0,395.0 1002.0,395.0 C1002.0,395.0 1002.0,396.0 1002.0,396.0 C1002.0,396.0 1003.0,396.0 1003.0,396.0 C1003.0,396.0 1003.0,397.0 1003.0,397.0 C1003.0,397.0 1004.0,397.0 1004.0,397.0 C1004.0,397.0 1004.0,398.0 1004.0,398.0 C1004.0,398.0 1005.0,398.0 1005.0,398.0 C1005.0,398.0 1005.0,399.0 1005.0,399.0 C1005.0,399.0 1006.0,399.0 1006.0,399.0 C1006.0,399.0 1006.0,400.0 1006.0,400.0 C1006.0,400.0 1007.0,400.0 1007.0,400.0 C1007.0,400.0 1007.0,401.0 1007.0,401.0 C1007.0,401.0 1008.0,401.0 1008.0,401.0 C1008.0,401.0 1008.0,402.0 1008.0,402.0 C1008.0,402.0 1009.0,402.0 1009.0,402.0 C1009.0,402.0 1009.0,403.0 1009.0,403.0 C1009.0,403.0 1010.0,403.0 1010.0,403.0 C1010.0,403.0 1010.0,404.0 1010.0,404.0 C1010.0,404.0 1011.0,404.0 1011.0,404.0 C1011.0,404.0 1011.0,405.0 1011.0,405.0 C1011.0,405.0 1012.0,405.0 1012.0,405.0 C1012.0,405.0 1012.0,406.0 1012.0,406.0 C1012.0,406.0 1013.0,406.0 1013.0,406.0 C1013.0,406.0 1013.0,407.0 1013.0,407.0 C1013.0,407.0 1014.0,407.0 1014.0,407.0 C1014.0,407.0 1014.0,408.0 1014.0,408.0 C1014.0,408.0 1015.0,408.0 1015.0,408.0 C1015.0,408.0 1015.0,409.0 1015.0,409.0 C1015.0,409.0 1016.0,409.0 1016.0,409.0 C1016.0,409.0 1016.0,410.0 1016.0,410.0 C1016.0,410.0 1017.0,410.0 1017.0,410.0 C1017.0,410.0 1017.0,411.0 1017.0,411.0 C1017.0,411.0 1018.0,411.0 1018.0,411.0 C1018.0,411.0 1018.0,413.0 1018.0,413.0 C1018.0,413.0 1019.0,413.0 1019.0,413.0 C1019.0,413.0 1019.0,414.0 1019.0,414.0 C1019.0,414.0 1020.0,414.0 1020.0,414.0 C1020.0,414.0 1020.0,415.0 1020.0,415.0 C1020.0,415.0 1021.0,415.0 1021.0,415.0 C1021.0,415.0 1021.0,416.0 1021.0,416.0 C1021.0,416.0 1022.0,416.0 1022.0,416.0 C1022.0,416.0 1022.0,417.0 1022.0,417.0 C1022.0,417.0 1023.0,417.0 1023.0,417.0 C1023.0,417.0 1023.0,418.0 1023.0,418.0 C1023.0,418.0 1024.0,418.0 1024.0,418.0 C1024.0,418.0 1024.0,740.0 1024.0,740.0 C1024.0,740.0 1022.0,740.0 1022.0,740.0 C1022.0,740.0 1022.0,741.0 1022.0,741.0 C1022.0,741.0 1021.0,741.0 1021.0,741.0 C1021.0,741.0 1021.0,742.0 1021.0,742.0 C1021.0,742.0 1020.0,742.0 1020.0,742.0 C1020.0,742.0 1020.0,743.0 1020.0,743.0 C1020.0,743.0 1018.0,743.0 1018.0,743.0 C1018.0,743.0 1018.0,744.0 1018.0,744.0 C1018.0,744.0 1017.0,744.0 1017.0,744.0 C1017.0,744.0 1017.0,745.0 1017.0,745.0 C1017.0,745.0 1016.0,745.0 1016.0,745.0 C1016.0,745.0 1016.0,746.0 1016.0,746.0 C1016.0,746.0 1015.0,746.0 1015.0,746.0 C1015.0,746.0 1015.0,747.0 1015.0,747.0 C1015.0,747.0 1013.0,747.0 1013.0,747.0 C1013.0,747.0 1013.0,748.0 1013.0,748.0 C1013.0,748.0 1012.0,748.0 1012.0,748.0 C1012.0,748.0 1012.0,749.0 1012.0,749.0 C1012.0,749.0 1011.0,749.0 1011.0,749.0 C1011.0,749.0 1011.0,750.0 1011.0,750.0 C1011.0,750.0 1009.0,750.0 1009.0,750.0 C1009.0,750.0 1009.0,751.0 1009.0,751.0 C1009.0,751.0 1008.0,751.0 1008.0,751.0 C1008.0,751.0 1008.0,752.0 1008.0,752.0 C1008.0,752.0 1006.0,752.0 1006.0,752.0 C1006.0,752.0 1006.0,753.0 1006.0,753.0 C1006.0,753.0 1005.0,753.0 1005.0,753.0 C1005.0,753.0 1005.0,754.0 1005.0,754.0 C1005.0,754.0 1003.0,754.0 1003.0,754.0 C1003.0,754.0 1003.0,755.0 1003.0,755.0 C1003.0,755.0 1002.0,755.0 1002.0,755.0 C1002.0,755.0 1002.0,756.0 1002.0,756.0 C1002.0,756.0 1001.0,756.0 1001.0,756.0 C1001.0,756.0 1001.0,757.0 1001.0,757.0 C1001.0,757.0 999.0,757.0 999.0,757.0 C999.0,757.0 999.0,758.0 999.0,758.0 C999.0,758.0 998.0,758.0 998.0,758.0 C998.0,758.0 998.0,759.0 998.0,759.0 C998.0,759.0 996.0,759.0 996.0,759.0 C996.0,759.0 996.0,760.0 996.0,760.0 C996.0,760.0 995.0,760.0 995.0,760.0 C995.0,760.0 995.0,761.0 995.0,761.0 C995.0,761.0 993.0,761.0 993.0,761.0 C993.0,761.0 993.0,762.0 993.0,762.0 C993.0,762.0 992.0,762.0 992.0,762.0 C992.0,762.0 992.0,763.0 992.0,763.0 C992.0,763.0 990.0,763.0 990.0,763.0 C990.0,763.0 990.0,764.0 990.0,764.0 C990.0,764.0 988.0,764.0 988.0,764.0 C988.0,764.0 988.0,765.0 988.0,765.0 C988.0,765.0 987.0,765.0 987.0,765.0 C987.0,765.0 987.0,766.0 987.0,766.0 C987.0,766.0 985.0,766.0 985.0,766.0 C985.0,766.0 985.0,767.0 985.0,767.0 C985.0,767.0 983.0,767.0 983.0,767.0 C983.0,767.0 983.0,768.0 983.0,768.0 C983.0,768.0 982.0,768.0 982.0,768.0 C982.0,768.0 982.0,769.0 982.0,769.0 C982.0,769.0 980.0,769.0 980.0,769.0 C980.0,769.0 980.0,770.0 980.0,770.0 C980.0,770.0 401.0,770.0 401.0,770.0 C401.0,770.0 401.0,769.0 401.0,769.0 C401.0,769.0 400.0,769.0 400.0,769.0 C400.0,769.0 400.0,768.0 400.0,768.0 C400.0,768.0 399.0,768.0 399.0,768.0 C399.0,768.0 399.0,767.0 399.0,767.0 C399.0,767.0 398.0,767.0 398.0,767.0 C398.0,767.0 398.0,766.0 398.0,766.0 C398.0,766.0 396.0,766.0 396.0,766.0 C396.0,766.0 396.0,765.0 396.0,765.0 C396.0,765.0 395.0,765.0 395.0,765.0 C395.0,765.0 395.0,764.0 395.0,764.0 C395.0,764.0 394.0,764.0 394.0,764.0 C394.0,764.0 394.0,763.0 394.0,763.0 C394.0,763.0 393.0,763.0 393.0,763.0 C393.0,763.0 393.0,762.0 393.0,762.0 C393.0,762.0 392.0,762.0 392.0,762.0 C392.0,762.0 392.0,761.0 392.0,761.0 C392.0,761.0 391.0,761.0 391.0,761.0 C391.0,761.0 391.0,760.0 391.0,760.0 C391.0,760.0 390.0,760.0 390.0,760.0 C390.0,760.0 390.0,759.0 390.0,759.0 C390.0,759.0 389.0,759.0 389.0,759.0 C389.0,759.0 389.0,758.0 389.0,758.0 C389.0,758.0 388.0,758.0 388.0,758.0 C388.0,758.0 388.0,757.0 388.0,757.0 C388.0,757.0 386.0,757.0 386.0,757.0 C386.0,757.0 386.0,756.0 386.0,756.0 C386.0,756.0 385.0,756.0 385.0,756.0 C385.0,756.0 385.0,755.0 385.0,755.0 C385.0,755.0 384.0,755.0 384.0,755.0 C384.0,755.0 384.0,754.0 384.0,754.0 C384.0,754.0 383.0,754.0 383.0,754.0 C383.0,754.0 383.0,753.0 383.0,753.0 C383.0,753.0 382.0,753.0 382.0,753.0 C382.0,753.0 382.0,752.0 382.0,752.0 C382.0,752.0 381.0,752.0 381.0,752.0 C381.0,752.0 381.0,751.0 381.0,751.0 C381.0,751.0 380.0,751.0 380.0,751.0 C380.0,751.0 380.0,750.0 380.0,750.0 C380.0,750.0 379.0,750.0 379.0,750.0 C379.0,750.0 379.0,749.0 379.0,749.0 C379.0,749.0 378.0,749.0 378.0,749.0 C378.0,749.0 378.0,748.0 378.0,748.0 C378.0,748.0 377.0,748.0 377.0,748.0 C377.0,748.0 377.0,747.0 377.0,747.0 C377.0,747.0 376.0,747.0 376.0,747.0 C376.0,747.0 376.0,746.0 376.0,746.0 C376.0,746.0 375.0,746.0 375.0,746.0 C375.0,746.0 375.0,745.0 375.0,745.0 C375.0,745.0 374.0,745.0 374.0,745.0 C374.0,745.0 374.0,744.0 374.0,744.0 C374.0,744.0 373.0,744.0 373.0,744.0 C373.0,744.0 373.0,743.0 373.0,743.0 C373.0,743.0 372.0,743.0 372.0,743.0 C372.0,743.0 372.0,742.0 372.0,742.0 C372.0,742.0 371.0,742.0 371.0,742.0 C371.0,742.0 371.0,741.0 371.0,741.0 C371.0,741.0 370.0,741.0 370.0,741.0 C370.0,741.0 370.0,740.0 370.0,740.0 C370.0,740.0 369.0,740.0 369.0,740.0 C369.0,740.0 369.0,739.0 369.0,739.0 C369.0,739.0 368.0,739.0 368.0,739.0 C368.0,739.0 368.0,738.0 368.0,738.0 C368.0,738.0 367.0,738.0 367.0,738.0 C367.0,738.0 367.0,737.0 367.0,737.0 C367.0,737.0 366.0,737.0 366.0,737.0 C366.0,737.0 366.0,736.0 366.0,736.0 C366.0,736.0 365.0,736.0 365.0,736.0 C365.0,736.0 365.0,735.0 365.0,735.0 C365.0,735.0 364.0,735.0 364.0,735.0 C364.0,735.0 364.0,733.0 364.0,733.0 C364.0,733.0 363.0,733.0 363.0,733.0 C363.0,733.0 363.0,732.0 363.0,732.0 C363.0,732.0 362.0,732.0 362.0,732.0 C362.0,732.0 362.0,731.0 362.0,731.0 C362.0,731.0 361.0,731.0 361.0,731.0 C361.0,731.0 361.0,730.0 361.0,730.0 C361.0,730.0 360.0,730.0 360.0,730.0 C360.0,730.0 360.0,729.0 360.0,729.0 C360.0,729.0 359.0,729.0 359.0,729.0 C359.0,729.0 359.0,728.0 359.0,728.0 C359.0,728.0 358.0,728.0 358.0,728.0 C358.0,728.0 358.0,727.0 358.0,727.0 C358.0,727.0 357.0,727.0 357.0,727.0 C357.0,727.0 357.0,726.0 357.0,726.0 C357.0,726.0 356.0,726.0 356.0,726.0 C356.0,726.0 356.0,724.0 356.0,724.0 C356.0,724.0 355.0,724.0 355.0,724.0 C355.0,724.0 355.0,723.0 355.0,723.0 C355.0,723.0 354.0,723.0 354.0,723.0 C354.0,723.0 354.0,722.0 354.0,722.0 C354.0,722.0 353.0,722.0 353.0,722.0 C353.0,722.0 353.0,721.0 353.0,721.0 C353.0,721.0 352.0,721.0 352.0,721.0 C352.0,721.0 352.0,720.0 352.0,720.0 C352.0,720.0 351.0,720.0 351.0,720.0 C351.0,720.0 351.0,719.0 351.0,719.0 C351.0,719.0 350.0,719.0 350.0,719.0 C350.0,719.0 350.0,717.0 350.0,717.0 C350.0,717.0 349.0,717.0 349.0,717.0 C349.0,717.0 349.0,716.0 349.0,716.0 C349.0,716.0 348.0,716.0 348.0,716.0 C348.0,716.0 348.0,715.0 348.0,715.0 C348.0,715.0 347.0,715.0 347.0,715.0 C347.0,715.0 347.0,714.0 347.0,714.0 C347.0,714.0 346.0,714.0 346.0,714.0 C346.0,714.0 346.0,713.0 346.0,713.0 C346.0,713.0 345.0,713.0 345.0,713.0 C345.0,713.0 345.0,711.0 345.0,711.0 C345.0,711.0 344.0,711.0 344.0,711.0 C344.0,711.0 344.0,710.0 344.0,710.0 C344.0,710.0 343.0,710.0 343.0,710.0 C343.0,710.0 343.0,709.0 343.0,709.0 C343.0,709.0 342.0,709.0 342.0,709.0 C342.0,709.0 342.0,708.0 342.0,708.0 C342.0,708.0 341.0,708.0 341.0,708.0 C341.0,708.0 341.0,706.0 341.0,706.0 C341.0,706.0 340.0,706.0 340.0,706.0 C340.0,706.0 340.0,705.0 340.0,705.0 C340.0,705.0 339.0,705.0 339.0,705.0 C339.0,705.0 339.0,704.0 339.0,704.0 C339.0,704.0 338.0,704.0 338.0,704.0 C338.0,704.0 338.0,703.0 338.0,703.0 C338.0,703.0 337.0,703.0 337.0,703.0 C337.0,703.0 337.0,701.0 337.0,701.0 C337.0,701.0 336.0,701.0 336.0,701.0 C336.0,701.0 336.0,700.0 336.0,700.0 C336.0,700.0 335.0,700.0 335.0,700.0 C335.0,700.0 335.0,699.0 335.0,699.0 C335.0,699.0 334.0,699.0 334.0,699.0 C334.0,699.0 334.0,698.0 334.0,698.0 C334.0,698.0 333.0,698.0 333.0,698.0 C333.0,698.0 333.0,696.0 333.0,696.0 C333.0,696.0 332.0,696.0 332.0,696.0 C332.0,696.0 332.0,695.0 332.0,695.0 C332.0,695.0 331.0,695.0 331.0,695.0 C331.0,695.0 331.0,693.0 331.0,693.0 C331.0,693.0 330.0,693.0 330.0,693.0 C330.0,693.0 330.0,692.0 330.0,692.0 C330.0,692.0 329.0,692.0 329.0,692.0 C329.0,692.0 329.0,691.0 329.0,691.0 C329.0,691.0 328.0,691.0 328.0,691.0 C328.0,691.0 328.0,689.0 328.0,689.0 C328.0,689.0 327.0,689.0 327.0,689.0 C327.0,689.0 327.0,688.0 327.0,688.0 C327.0,688.0 326.0,688.0 326.0,688.0 C326.0,688.0 326.0,687.0 326.0,687.0 C326.0,687.0 325.0,687.0 325.0,687.0 C325.0,687.0 325.0,685.0 325.0,685.0 C325.0,685.0 324.0,685.0 324.0,685.0 C324.0,685.0 324.0,684.0 324.0,684.0 C324.0,684.0 323.0,684.0 323.0,684.0 C323.0,684.0 323.0,682.0 323.0,682.0 C323.0,682.0 322.0,682.0 322.0,682.0 C322.0,682.0 322.0,681.0 322.0,681.0 C322.0,681.0 321.0,681.0 321.0,681.0 C321.0,681.0 321.0,680.0 321.0,680.0 C321.0,680.0 320.0,680.0 320.0,680.0 C320.0,680.0 320.0,678.0 320.0,678.0 C320.0,678.0 319.0,678.0 319.0,678.0 C319.0,678.0 319.0,677.0 319.0,677.0 C319.0,677.0 318.0,677.0 318.0,677.0 C318.0,677.0 318.0,675.0 318.0,675.0 C318.0,675.0 317.0,675.0 317.0,675.0 C317.0,675.0 317.0,674.0 317.0,674.0 C317.0,674.0 316.0,674.0 316.0,674.0 C316.0,674.0 316.0,672.0 316.0,672.0 C316.0,672.0 315.0,672.0 315.0,672.0 C315.0,672.0 315.0,671.0 315.0,671.0 C315.0,671.0 314.0,671.0 314.0,671.0 C314.0,671.0 314.0,669.0 314.0,669.0 C314.0,669.0 313.0,669.0 313.0,669.0 C313.0,669.0 313.0,668.0 313.0,668.0 C313.0,668.0 312.0,668.0 312.0,668.0 C312.0,668.0 312.0,666.0 312.0,666.0 C312.0,666.0 311.0,666.0 311.0,666.0 C311.0,666.0 311.0,665.0 311.0,665.0 C311.0,665.0 310.0,665.0 310.0,665.0 C310.0,665.0 310.0,663.0 310.0,663.0 C310.0,663.0 309.0,663.0 309.0,663.0 C309.0,663.0 309.0,662.0 309.0,662.0 C309.0,662.0 308.0,662.0 308.0,662.0 C308.0,662.0 308.0,660.0 308.0,660.0 C308.0,660.0 307.0,660.0 307.0,660.0 C307.0,660.0 307.0,659.0 307.0,659.0 C307.0,659.0 306.0,659.0 306.0,659.0 C306.0,659.0 306.0,657.0 306.0,657.0 C306.0,657.0 305.0,657.0 305.0,657.0 C305.0,657.0 305.0,656.0 305.0,656.0 C305.0,656.0 304.0,656.0 304.0,656.0 C304.0,656.0 304.0,654.0 304.0,654.0 C304.0,654.0 303.0,654.0 303.0,654.0 C303.0,654.0 303.0,652.0 303.0,652.0 C303.0,652.0 302.0,652.0 302.0,652.0 C302.0,652.0 302.0,651.0 302.0,651.0 C302.0,651.0 301.0,651.0 301.0,651.0 C301.0,651.0 301.0,649.0 301.0,649.0 C301.0,649.0 300.0,649.0 300.0,649.0 C300.0,649.0 300.0,648.0 300.0,648.0 C300.0,648.0 299.0,648.0 299.0,648.0 C299.0,648.0 299.0,646.0 299.0,646.0 C299.0,646.0 298.0,646.0 298.0,646.0 C298.0,646.0 298.0,644.0 298.0,644.0 C298.0,644.0 297.0,644.0 297.0,644.0 C297.0,644.0 297.0,643.0 297.0,643.0 C297.0,643.0 296.0,643.0 296.0,643.0 C296.0,643.0 296.0,641.0 296.0,641.0 C296.0,641.0 295.0,641.0 295.0,641.0 C295.0,641.0 295.0,639.0 295.0,639.0 C295.0,639.0 294.0,639.0 294.0,639.0 C294.0,639.0 294.0,638.0 294.0,638.0 C294.0,638.0 293.0,638.0 293.0,638.0 C293.0,638.0 293.0,636.0 293.0,636.0 C293.0,636.0 292.0,636.0 292.0,636.0 C292.0,636.0 292.0,634.0 292.0,634.0 C292.0,634.0 291.0,634.0 291.0,634.0 C291.0,634.0 291.0,633.0 291.0,633.0 C291.0,633.0 290.0,633.0 290.0,633.0 C290.0,633.0 290.0,631.0 290.0,631.0 C290.0,631.0 289.0,631.0 289.0,631.0 C289.0,631.0 289.0,629.0 289.0,629.0 C289.0,629.0 288.0,629.0 288.0,629.0 C288.0,629.0 288.0,627.0 288.0,627.0 C288.0,627.0 287.0,627.0 287.0,627.0 C287.0,627.0 287.0,626.0 287.0,626.0 C287.0,626.0 286.0,626.0 286.0,626.0 C286.0,626.0 286.0,624.0 286.0,624.0 C286.0,624.0 285.0,624.0 285.0,624.0 C285.0,624.0 285.0,622.0 285.0,622.0 C285.0,622.0 284.0,622.0 284.0,622.0 C284.0,622.0 284.0,620.0 284.0,620.0 C284.0,620.0 283.0,620.0 283.0,620.0 C283.0,620.0 283.0,619.0 283.0,619.0 C283.0,619.0 282.0,619.0 282.0,619.0 C282.0,619.0 282.0,617.0 282.0,617.0 C282.0,617.0 281.0,617.0 281.0,617.0 C281.0,617.0 281.0,615.0 281.0,615.0 C281.0,615.0 280.0,615.0 280.0,615.0 C280.0,615.0 280.0,613.0 280.0,613.0 C280.0,613.0 279.0,613.0 279.0,613.0 C279.0,613.0 279.0,611.0 279.0,611.0 C279.0,611.0 278.0,611.0 278.0,611.0 C278.0,611.0 278.0,609.0 278.0,609.0 C278.0,609.0 277.0,609.0 277.0,609.0 C277.0,609.0 277.0,607.0 277.0,607.0 C277.0,607.0 276.0,607.0 276.0,607.0 C276.0,607.0 276.0,605.0 276.0,605.0 C276.0,605.0 275.0,605.0 275.0,605.0 C275.0,605.0 275.0,604.0 275.0,604.0 C275.0,604.0 274.0,604.0 274.0,604.0 C274.0,604.0 274.0,602.0 274.0,602.0 C274.0,602.0 273.0,602.0 273.0,602.0 C273.0,602.0 273.0,600.0 273.0,600.0 C273.0,600.0 272.0,600.0 272.0,600.0 C272.0,600.0 272.0,598.0 272.0,598.0 C272.0,598.0 271.0,598.0 271.0,598.0 C271.0,598.0 271.0,596.0 271.0,596.0 C271.0,596.0 270.0,596.0 270.0,596.0 C270.0,596.0 270.0,594.0 270.0,594.0 C270.0,594.0 269.0,594.0 269.0,594.0 C269.0,594.0 269.0,592.0 269.0,592.0 C269.0,592.0 268.0,592.0 268.0,592.0 C268.0,592.0 268.0,590.0 268.0,590.0 C268.0,590.0 267.0,590.0 267.0,590.0 C267.0,590.0 267.0,588.0 267.0,588.0 C267.0,588.0 266.0,588.0 266.0,588.0 C266.0,588.0 266.0,586.0 266.0,586.0 C266.0,586.0 265.0,586.0 265.0,586.0 C265.0,586.0 265.0,584.0 265.0,584.0 C265.0,584.0 264.0,584.0 264.0,584.0 C264.0,584.0 264.0,582.0 264.0,582.0 C264.0,582.0 263.0,582.0 263.0,582.0 C263.0,582.0 263.0,579.0 263.0,579.0 C263.0,579.0 262.0,579.0 262.0,579.0 C262.0,579.0 262.0,577.0 262.0,577.0 C262.0,577.0 261.0,577.0 261.0,577.0 C261.0,577.0 261.0,575.0 261.0,575.0 C261.0,575.0 260.0,575.0 260.0,575.0 C260.0,575.0 260.0,573.0 260.0,573.0 C260.0,573.0 259.0,573.0 259.0,573.0 C259.0,573.0 259.0,571.0 259.0,571.0 C259.0,571.0 258.0,571.0 258.0,571.0 C258.0,571.0 258.0,569.0 258.0,569.0 C258.0,569.0 257.0,569.0 257.0,569.0 C257.0,569.0 257.0,567.0 257.0,567.0 C257.0,567.0 256.0,567.0 256.0,567.0 C256.0,567.0 256.0,564.0 256.0,564.0 C256.0,564.0 255.0,564.0 255.0,564.0 C255.0,564.0 255.0,562.0 255.0,562.0 C255.0,562.0 254.0,562.0 254.0,562.0 C254.0,562.0 254.0,560.0 254.0,560.0 C254.0,560.0 253.0,560.0 253.0,560.0 C253.0,560.0 253.0,558.0 253.0,558.0 C253.0,558.0 252.0,558.0 252.0,558.0 C252.0,558.0 252.0,555.0 252.0,555.0 C252.0,555.0 251.0,555.0 251.0,555.0 C251.0,555.0 251.0,553.0 251.0,553.0 C251.0,553.0 250.0,553.0 250.0,553.0 C250.0,553.0 250.0,551.0 250.0,551.0 C250.0,551.0 249.0,551.0 249.0,551.0 C249.0,551.0 249.0,549.0 249.0,549.0 C249.0,549.0 248.0,549.0 248.0,549.0 C248.0,549.0 248.0,546.0 248.0,546.0 C248.0,546.0 247.0,546.0 247.0,546.0 C247.0,546.0 247.0,544.0 247.0,544.0 C247.0,544.0 246.0,544.0 246.0,544.0 C246.0,544.0 246.0,541.0 246.0,541.0 C246.0,541.0 245.0,541.0 245.0,541.0 C245.0,541.0 245.0,539.0 245.0,539.0 C245.0,539.0 244.0,539.0 244.0,539.0 C244.0,539.0 244.0,536.0 244.0,536.0 C244.0,536.0 243.0,536.0 243.0,536.0 C243.0,536.0 243.0,535.0 243.0,535.0 C243.0,535.0 193.0,535.0 193.0,535.0 C193.0,535.0 193.0,534.0 193.0,534.0 C193.0,534.0 192.0,534.0 192.0,534.0 C192.0,534.0 192.0,533.0 192.0,533.0 C192.0,533.0 191.0,533.0 191.0,533.0 C191.0,533.0 191.0,531.0 191.0,531.0 C191.0,531.0 190.0,531.0 190.0,531.0 C190.0,531.0 190.0,496.0 190.0,496.0 C190.0,496.0 191.0,496.0 191.0,496.0 C191.0,496.0 191.0,494.0 191.0,494.0 C191.0,494.0 192.0,494.0 192.0,494.0 C192.0,494.0 192.0,493.0 192.0,493.0 C192.0,493.0 193.0,493.0 193.0,493.0 C193.0,493.0 193.0,492.0 193.0,492.0 C193.0,492.0 197.0,492.0 197.0,492.0 C197.0,492.0 197.0,491.0 197.0,491.0 C197.0,491.0 227.0,491.0 227.0,491.0 C227.0,491.0 227.0,490.0 227.0,490.0 C227.0,490.0 226.0,490.0 226.0,490.0 C226.0,490.0 226.0,487.0 226.0,487.0 C226.0,487.0 225.0,487.0 225.0,487.0 C225.0,487.0 225.0,484.0 225.0,484.0 C225.0,484.0 224.0,484.0 224.0,484.0 C224.0,484.0 224.0,481.0 224.0,481.0 C224.0,481.0 223.0,481.0 223.0,481.0 C223.0,481.0 223.0,478.0 223.0,478.0 C223.0,478.0 222.0,478.0 222.0,478.0 C222.0,478.0 222.0,475.0 222.0,475.0 C222.0,475.0 221.0,475.0 221.0,475.0 C221.0,475.0 221.0,472.0 221.0,472.0 C221.0,472.0 220.0,472.0 220.0,472.0 C220.0,472.0 220.0,468.0 220.0,468.0 C220.0,468.0 219.0,468.0 219.0,468.0 C219.0,468.0 219.0,465.0 219.0,465.0 C219.0,465.0 218.0,465.0 218.0,465.0 C218.0,465.0 218.0,461.0 218.0,461.0 C218.0,461.0 217.0,461.0 217.0,461.0 C217.0,461.0 217.0,458.0 217.0,458.0 C217.0,458.0 216.0,458.0 216.0,458.0 C216.0,458.0 216.0,454.0 216.0,454.0 C216.0,454.0 215.0,454.0 215.0,454.0 C215.0,454.0 215.0,451.0 215.0,451.0 C215.0,451.0 214.0,451.0 214.0,451.0 C214.0,451.0 214.0,447.0 214.0,447.0 C214.0,447.0 213.0,447.0 213.0,447.0 C213.0,447.0 213.0,443.0 213.0,443.0 C213.0,443.0 212.0,443.0 212.0,443.0 C212.0,443.0 212.0,439.0 212.0,439.0 C212.0,439.0 211.0,439.0 211.0,439.0 C211.0,439.0 211.0,435.0 211.0,435.0 C211.0,435.0 210.0,435.0 210.0,435.0 C210.0,435.0 210.0,431.0 210.0,431.0 C210.0,431.0 209.0,431.0 209.0,431.0 C209.0,431.0 209.0,430.0 209.0,430.0 C209.0,430.0 25.0,430.0 25.0,430.0 C25.0,430.0 25.0,429.0 25.0,429.0 C25.0,429.0 21.0,429.0 21.0,429.0 C21.0,429.0 21.0,428.0 21.0,428.0 C21.0,428.0 19.0,428.0 19.0,428.0 C19.0,428.0 19.0,427.0 19.0,427.0 C19.0,427.0 17.0,427.0 17.0,427.0 C17.0,427.0 17.0,426.0 17.0,426.0 C17.0,426.0 15.0,426.0 15.0,426.0 C15.0,426.0 15.0,425.0 15.0,425.0 C15.0,425.0 14.0,425.0 14.0,425.0 C14.0,425.0 14.0,424.0 14.0,424.0 C14.0,424.0 12.0,424.0 12.0,424.0 C12.0,424.0 12.0,423.0 12.0,423.0 C12.0,423.0 11.0,423.0 11.0,423.0 C11.0,423.0 11.0,422.0 11.0,422.0 C11.0,422.0 10.0,422.0 10.0,422.0 C10.0,422.0 10.0,421.0 10.0,421.0 C10.0,421.0 9.0,421.0 9.0,421.0 C9.0,421.0 9.0,420.0 9.0,420.0 C9.0,420.0 8.0,420.0 8.0,420.0 C8.0,420.0 8.0,419.0 8.0,419.0 C8.0,419.0 7.0,419.0 7.0,419.0 C7.0,419.0 7.0,418.0 7.0,418.0 C7.0,418.0 6.0,418.0 6.0,418.0 C6.0,418.0 6.0,416.0 6.0,416.0 C6.0,416.0 5.0,416.0 5.0,416.0 C5.0,416.0 5.0,415.0 5.0,415.0 C5.0,415.0 4.0,415.0 4.0,415.0 C4.0,415.0 4.0,413.0 4.0,413.0 C4.0,413.0 3.0,413.0 3.0,413.0 C3.0,413.0 3.0,410.0 3.0,410.0 C3.0,410.0 2.0,410.0 2.0,410.0 C2.0,410.0 2.0,407.0 2.0,407.0 C2.0,407.0 1.0,407.0 1.0,407.0 C1.0,407.0 1.0,400.0 1.0,400.0 C1.0,400.0 0.0,400.0 0.0,400.0 C0.0,400.0 0.0,23.0 0.0,23.0 C0.0,23.0 1.0,23.0 1.0,23.0 C1.0,23.0 1.0,18.0 1.0,18.0 C1.0,18.0 2.0,18.0 2.0,18.0 C2.0,18.0 2.0,17.0 2.0,17.0 C2.0,17.0 3.0,17.0 3.0,17.0 C3.0,17.0 3.0,16.0 3.0,16.0 C3.0,16.0 4.0,16.0 4.0,16.0 C4.0,16.0 4.0,15.0 4.0,15.0 C4.0,15.0 5.0,15.0 5.0,15.0 C5.0,15.0 5.0,14.0 5.0,14.0 C5.0,14.0 8.0,14.0 8.0,14.0 C8.0,14.0 8.0,13.0 8.0,13.0 C8.0,13.0 9.0,13.0 9.0,13.0 C9.0,13.0 9.0,12.0 9.0,12.0 C9.0,12.0 10.0,12.0 10.0,12.0 C10.0,12.0 10.0,11.0 10.0,11.0 C10.0,11.0 11.0,11.0 11.0,11.0 C11.0,11.0 11.0,10.0 11.0,10.0 C11.0,10.0 12.0,10.0 12.0,10.0 C12.0,10.0 12.0,9.0 12.0,9.0 C12.0,9.0 14.0,9.0 14.0,9.0 C14.0,9.0 14.0,8.0 14.0,8.0 C14.0,8.0 15.0,8.0 15.0,8.0 C15.0,8.0 15.0,7.0 15.0,7.0 C15.0,7.0 17.0,7.0 17.0,7.0 C17.0,7.0 17.0,6.0 17.0,6.0 C17.0,6.0 19.0,6.0 19.0,6.0 C19.0,6.0 19.0,5.0 19.0,5.0 C19.0,5.0 21.0,5.0 21.0,5.0 C21.0,5.0 21.0,4.0 21.0,4.0 C21.0,4.0 25.0,4.0 25.0,4.0 C25.0,4.0 25.0,3.0 25.0,3.0 C25.0,3.0 33.0,3.0 33.0,3.0 C33.0,3.0 33.0,2.0 33.0,2.0" fill="rgb(255,255,255)" fill-opacity="1.000" nch:path="33.0,2.0,33.0,2.0,588.0,2.0 588.0,2.0,588.0,2.0,588.0,3.0 588.0,3.0,588.0,3.0,596.0,3.0 596.0,3.0,596.0,3.0,596.0,4.0 596.0,4.0,596.0,4.0,599.0,4.0 599.0,4.0,599.0,4.0,599.0,5.0 599.0,5.0,599.0,5.0,602.0,5.0 602.0,5.0,602.0,5.0,602.0,6.0 602.0,6.0,602.0,6.0,604.0,6.0 604.0,6.0,604.0,6.0,604.0,7.0 604.0,7.0,604.0,7.0,606.0,7.0 606.0,7.0,606.0,7.0,606.0,8.0 606.0,8.0,606.0,8.0,607.0,8.0 607.0,8.0,607.0,8.0,607.0,9.0 607.0,9.0,607.0,9.0,608.0,9.0 608.0,9.0,608.0,9.0,608.0,10.0 608.0,10.0,608.0,10.0,610.0,10.0 610.0,10.0,610.0,10.0,610.0,11.0 610.0,11.0,610.0,11.0,611.0,11.0 611.0,11.0,611.0,11.0,611.0,12.0 611.0,12.0,611.0,12.0,612.0,12.0 612.0,12.0,612.0,12.0,612.0,13.0 612.0,13.0,612.0,13.0,613.0,13.0 613.0,13.0,613.0,13.0,613.0,15.0 613.0,15.0,613.0,15.0,614.0,15.0 614.0,15.0,614.0,15.0,614.0,16.0 614.0,16.0,614.0,16.0,615.0,16.0 615.0,16.0,615.0,16.0,615.0,17.0 615.0,17.0,615.0,17.0,616.0,17.0 616.0,17.0,616.0,17.0,616.0,19.0 616.0,19.0,616.0,19.0,617.0,19.0 617.0,19.0,617.0,19.0,617.0,21.0 617.0,21.0,617.0,21.0,618.0,21.0 618.0,21.0,618.0,21.0,618.0,24.0 618.0,24.0,618.0,24.0,619.0,24.0 619.0,24.0,619.0,24.0,619.0,27.0 619.0,27.0,619.0,27.0,620.0,27.0 620.0,27.0,620.0,27.0,620.0,158.0 620.0,158.0,620.0,158.0,621.0,158.0 621.0,158.0,621.0,158.0,621.0,159.0 621.0,159.0,621.0,159.0,624.0,159.0 624.0,159.0,624.0,159.0,624.0,160.0 624.0,160.0,624.0,160.0,626.0,160.0 626.0,160.0,626.0,160.0,626.0,161.0 626.0,161.0,626.0,161.0,628.0,161.0 628.0,161.0,628.0,161.0,628.0,162.0 628.0,162.0,628.0,162.0,630.0,162.0 630.0,162.0,630.0,162.0,630.0,163.0 630.0,163.0,630.0,163.0,633.0,163.0 633.0,163.0,633.0,163.0,633.0,164.0 633.0,164.0,633.0,164.0,635.0,164.0 635.0,164.0,635.0,164.0,635.0,165.0 635.0,165.0,635.0,165.0,637.0,165.0 637.0,165.0,637.0,165.0,637.0,166.0 637.0,166.0,637.0,166.0,639.0,166.0 639.0,166.0,639.0,166.0,639.0,167.0 639.0,167.0,639.0,167.0,641.0,167.0 641.0,167.0,641.0,167.0,641.0,168.0 641.0,168.0,641.0,168.0,643.0,168.0 643.0,168.0,643.0,168.0,643.0,169.0 643.0,169.0,643.0,169.0,646.0,169.0 646.0,169.0,646.0,169.0,646.0,170.0 646.0,170.0,646.0,170.0,648.0,170.0 648.0,170.0,648.0,170.0,648.0,171.0 648.0,171.0,648.0,171.0,650.0,171.0 650.0,171.0,650.0,171.0,650.0,172.0 650.0,172.0,650.0,172.0,652.0,172.0 652.0,172.0,652.0,172.0,652.0,173.0 652.0,173.0,652.0,173.0,654.0,173.0 654.0,173.0,654.0,173.0,654.0,174.0 654.0,174.0,654.0,174.0,657.0,174.0 657.0,174.0,657.0,174.0,657.0,175.0 657.0,175.0,657.0,175.0,659.0,175.0 659.0,175.0,659.0,175.0,659.0,176.0 659.0,176.0,659.0,176.0,661.0,176.0 661.0,176.0,661.0,176.0,661.0,177.0 661.0,177.0,661.0,177.0,663.0,177.0 663.0,177.0,663.0,177.0,663.0,178.0 663.0,178.0,663.0,178.0,665.0,178.0 665.0,178.0,665.0,178.0,665.0,179.0 665.0,179.0,665.0,179.0,667.0,179.0 667.0,179.0,667.0,179.0,667.0,180.0 667.0,180.0,667.0,180.0,670.0,180.0 670.0,180.0,670.0,180.0,670.0,181.0 670.0,181.0,670.0,181.0,672.0,181.0 672.0,181.0,672.0,181.0,672.0,182.0 672.0,182.0,672.0,182.0,674.0,182.0 674.0,182.0,674.0,182.0,674.0,183.0 674.0,183.0,674.0,183.0,676.0,183.0 676.0,183.0,676.0,183.0,676.0,184.0 676.0,184.0,676.0,184.0,678.0,184.0 678.0,184.0,678.0,184.0,678.0,185.0 678.0,185.0,678.0,185.0,680.0,185.0 680.0,185.0,680.0,185.0,680.0,186.0 680.0,186.0,680.0,186.0,682.0,186.0 682.0,186.0,682.0,186.0,682.0,187.0 682.0,187.0,682.0,187.0,685.0,187.0 685.0,187.0,685.0,187.0,685.0,188.0 685.0,188.0,685.0,188.0,687.0,188.0 687.0,188.0,687.0,188.0,687.0,189.0 687.0,189.0,687.0,189.0,689.0,189.0 689.0,189.0,689.0,189.0,689.0,190.0 689.0,190.0,689.0,190.0,691.0,190.0 691.0,190.0,691.0,190.0,691.0,191.0 691.0,191.0,691.0,191.0,693.0,191.0 693.0,191.0,693.0,191.0,693.0,192.0 693.0,192.0,693.0,192.0,695.0,192.0 695.0,192.0,695.0,192.0,695.0,193.0 695.0,193.0,695.0,193.0,697.0,193.0 697.0,193.0,697.0,193.0,697.0,194.0 697.0,194.0,697.0,194.0,700.0,194.0 700.0,194.0,700.0,194.0,700.0,195.0 700.0,195.0,700.0,195.0,702.0,195.0 702.0,195.0,702.0,195.0,702.0,196.0 702.0,196.0,702.0,196.0,704.0,196.0 704.0,196.0,704.0,196.0,704.0,197.0 704.0,197.0,704.0,197.0,706.0,197.0 706.0,197.0,706.0,197.0,706.0,198.0 706.0,198.0,706.0,198.0,708.0,198.0 708.0,198.0,708.0,198.0,708.0,199.0 708.0,199.0,708.0,199.0,710.0,199.0 710.0,199.0,710.0,199.0,710.0,200.0 710.0,200.0,710.0,200.0,712.0,200.0 712.0,200.0,712.0,200.0,712.0,201.0 712.0,201.0,712.0,201.0,715.0,201.0 715.0,201.0,715.0,201.0,715.0,202.0 715.0,202.0,715.0,202.0,717.0,202.0 717.0,202.0,717.0,202.0,717.0,203.0 717.0,203.0,717.0,203.0,719.0,203.0 719.0,203.0,719.0,203.0,719.0,204.0 719.0,204.0,719.0,204.0,721.0,204.0 721.0,204.0,721.0,204.0,721.0,205.0 721.0,205.0,721.0,205.0,723.0,205.0 723.0,205.0,723.0,205.0,723.0,206.0 723.0,206.0,723.0,206.0,725.0,206.0 725.0,206.0,725.0,206.0,725.0,207.0 725.0,207.0,725.0,207.0,728.0,207.0 728.0,207.0,728.0,207.0,728.0,208.0 728.0,208.0,728.0,208.0,730.0,208.0 730.0,208.0,730.0,208.0,730.0,209.0 730.0,209.0,730.0,209.0,732.0,209.0 732.0,209.0,732.0,209.0,732.0,210.0 732.0,210.0,732.0,210.0,734.0,210.0 734.0,210.0,734.0,210.0,734.0,211.0 734.0,211.0,734.0,211.0,736.0,211.0 736.0,211.0,736.0,211.0,736.0,212.0 736.0,212.0,736.0,212.0,738.0,212.0 738.0,212.0,738.0,212.0,738.0,213.0 738.0,213.0,738.0,213.0,740.0,213.0 740.0,213.0,740.0,213.0,740.0,214.0 740.0,214.0,740.0,214.0,742.0,214.0 742.0,214.0,742.0,214.0,742.0,215.0 742.0,215.0,742.0,215.0,744.0,215.0 744.0,215.0,744.0,215.0,744.0,216.0 744.0,216.0,744.0,216.0,747.0,216.0 747.0,216.0,747.0,216.0,747.0,217.0 747.0,217.0,747.0,217.0,749.0,217.0 749.0,217.0,749.0,217.0,749.0,218.0 749.0,218.0,749.0,218.0,751.0,218.0 751.0,218.0,751.0,218.0,751.0,219.0 751.0,219.0,751.0,219.0,753.0,219.0 753.0,219.0,753.0,219.0,753.0,220.0 753.0,220.0,753.0,220.0,755.0,220.0 755.0,220.0,755.0,220.0,755.0,221.0 755.0,221.0,755.0,221.0,757.0,221.0 757.0,221.0,757.0,221.0,757.0,222.0 757.0,222.0,757.0,222.0,758.0,222.0 758.0,222.0,758.0,222.0,758.0,223.0 758.0,223.0,758.0,223.0,760.0,223.0 760.0,223.0,760.0,223.0,760.0,224.0 760.0,224.0,760.0,224.0,762.0,224.0 762.0,224.0,762.0,224.0,762.0,225.0 762.0,225.0,762.0,225.0,764.0,225.0 764.0,225.0,764.0,225.0,764.0,226.0 764.0,226.0,764.0,226.0,766.0,226.0 766.0,226.0,766.0,226.0,766.0,227.0 766.0,227.0,766.0,227.0,768.0,227.0 768.0,227.0,768.0,227.0,768.0,228.0 768.0,228.0,768.0,228.0,770.0,228.0 770.0,228.0,770.0,228.0,770.0,229.0 770.0,229.0,770.0,229.0,772.0,229.0 772.0,229.0,772.0,229.0,772.0,230.0 772.0,230.0,772.0,230.0,774.0,230.0 774.0,230.0,774.0,230.0,774.0,231.0 774.0,231.0,774.0,231.0,776.0,231.0 776.0,231.0,776.0,231.0,776.0,232.0 776.0,232.0,776.0,232.0,778.0,232.0 778.0,232.0,778.0,232.0,778.0,233.0 778.0,233.0,778.0,233.0,780.0,233.0 780.0,233.0,780.0,233.0,780.0,234.0 780.0,234.0,780.0,234.0,781.0,234.0 781.0,234.0,781.0,234.0,781.0,235.0 781.0,235.0,781.0,235.0,783.0,235.0 783.0,235.0,783.0,235.0,783.0,236.0 783.0,236.0,783.0,236.0,785.0,236.0 785.0,236.0,785.0,236.0,785.0,237.0 785.0,237.0,785.0,237.0,787.0,237.0 787.0,237.0,787.0,237.0,787.0,238.0 787.0,238.0,787.0,238.0,789.0,238.0 789.0,238.0,789.0,238.0,789.0,239.0 789.0,239.0,789.0,239.0,791.0,239.0 791.0,239.0,791.0,239.0,791.0,240.0 791.0,240.0,791.0,240.0,792.0,240.0 792.0,240.0,792.0,240.0,792.0,241.0 792.0,241.0,792.0,241.0,794.0,241.0 794.0,241.0,794.0,241.0,794.0,242.0 794.0,242.0,794.0,242.0,796.0,242.0 796.0,242.0,796.0,242.0,796.0,243.0 796.0,243.0,796.0,243.0,798.0,243.0 798.0,243.0,798.0,243.0,798.0,244.0 798.0,244.0,798.0,244.0,800.0,244.0 800.0,244.0,800.0,244.0,800.0,245.0 800.0,245.0,800.0,245.0,802.0,245.0 802.0,245.0,802.0,245.0,802.0,246.0 802.0,246.0,802.0,246.0,803.0,246.0 803.0,246.0,803.0,246.0,803.0,247.0 803.0,247.0,803.0,247.0,805.0,247.0 805.0,247.0,805.0,247.0,805.0,248.0 805.0,248.0,805.0,248.0,807.0,248.0 807.0,248.0,807.0,248.0,807.0,249.0 807.0,249.0,807.0,249.0,808.0,249.0 808.0,249.0,808.0,249.0,808.0,250.0 808.0,250.0,808.0,250.0,810.0,250.0 810.0,250.0,810.0,250.0,810.0,251.0 810.0,251.0,810.0,251.0,812.0,251.0 812.0,251.0,812.0,251.0,812.0,252.0 812.0,252.0,812.0,252.0,814.0,252.0 814.0,252.0,814.0,252.0,814.0,253.0 814.0,253.0,814.0,253.0,815.0,253.0 815.0,253.0,815.0,253.0,815.0,254.0 815.0,254.0,815.0,254.0,817.0,254.0 817.0,254.0,817.0,254.0,817.0,255.0 817.0,255.0,817.0,255.0,819.0,255.0 819.0,255.0,819.0,255.0,819.0,256.0 819.0,256.0,819.0,256.0,821.0,256.0 821.0,256.0,821.0,256.0,821.0,257.0 821.0,257.0,821.0,257.0,822.0,257.0 822.0,257.0,822.0,257.0,822.0,258.0 822.0,258.0,822.0,258.0,824.0,258.0 824.0,258.0,824.0,258.0,824.0,259.0 824.0,259.0,824.0,259.0,825.0,259.0 825.0,259.0,825.0,259.0,825.0,260.0 825.0,260.0,825.0,260.0,827.0,260.0 827.0,260.0,827.0,260.0,827.0,261.0 827.0,261.0,827.0,261.0,829.0,261.0 829.0,261.0,829.0,261.0,829.0,262.0 829.0,262.0,829.0,262.0,830.0,262.0 830.0,262.0,830.0,262.0,830.0,263.0 830.0,263.0,830.0,263.0,832.0,263.0 832.0,263.0,832.0,263.0,832.0,264.0 832.0,264.0,832.0,264.0,834.0,264.0 834.0,264.0,834.0,264.0,834.0,265.0 834.0,265.0,834.0,265.0,835.0,265.0 835.0,265.0,835.0,265.0,835.0,266.0 835.0,266.0,835.0,266.0,837.0,266.0 837.0,266.0,837.0,266.0,837.0,267.0 837.0,267.0,837.0,267.0,839.0,267.0 839.0,267.0,839.0,267.0,839.0,268.0 839.0,268.0,839.0,268.0,840.0,268.0 840.0,268.0,840.0,268.0,840.0,269.0 840.0,269.0,840.0,269.0,842.0,269.0 842.0,269.0,842.0,269.0,842.0,270.0 842.0,270.0,842.0,270.0,843.0,270.0 843.0,270.0,843.0,270.0,843.0,271.0 843.0,271.0,843.0,271.0,845.0,271.0 845.0,271.0,845.0,271.0,845.0,272.0 845.0,272.0,845.0,272.0,847.0,272.0 847.0,272.0,847.0,272.0,847.0,273.0 847.0,273.0,847.0,273.0,848.0,273.0 848.0,273.0,848.0,273.0,848.0,274.0 848.0,274.0,848.0,274.0,850.0,274.0 850.0,274.0,850.0,274.0,850.0,275.0 850.0,275.0,850.0,275.0,851.0,275.0 851.0,275.0,851.0,275.0,851.0,276.0 851.0,276.0,851.0,276.0,853.0,276.0 853.0,276.0,853.0,276.0,853.0,277.0 853.0,277.0,853.0,277.0,854.0,277.0 854.0,277.0,854.0,277.0,854.0,278.0 854.0,278.0,854.0,278.0,856.0,278.0 856.0,278.0,856.0,278.0,856.0,279.0 856.0,279.0,856.0,279.0,858.0,279.0 858.0,279.0,858.0,279.0,858.0,280.0 858.0,280.0,858.0,280.0,859.0,280.0 859.0,280.0,859.0,280.0,859.0,281.0 859.0,281.0,859.0,281.0,861.0,281.0 861.0,281.0,861.0,281.0,861.0,282.0 861.0,282.0,861.0,282.0,862.0,282.0 862.0,282.0,862.0,282.0,862.0,283.0 862.0,283.0,862.0,283.0,864.0,283.0 864.0,283.0,864.0,283.0,864.0,284.0 864.0,284.0,864.0,284.0,865.0,284.0 865.0,284.0,865.0,284.0,865.0,285.0 865.0,285.0,865.0,285.0,867.0,285.0 867.0,285.0,867.0,285.0,867.0,286.0 867.0,286.0,867.0,286.0,868.0,286.0 868.0,286.0,868.0,286.0,868.0,287.0 868.0,287.0,868.0,287.0,870.0,287.0 870.0,287.0,870.0,287.0,870.0,288.0 870.0,288.0,870.0,288.0,871.0,288.0 871.0,288.0,871.0,288.0,871.0,289.0 871.0,289.0,871.0,289.0,873.0,289.0 873.0,289.0,873.0,289.0,873.0,290.0 873.0,290.0,873.0,290.0,874.0,290.0 874.0,290.0,874.0,290.0,874.0,291.0 874.0,291.0,874.0,291.0,876.0,291.0 876.0,291.0,876.0,291.0,876.0,292.0 876.0,292.0,876.0,292.0,877.0,292.0 877.0,292.0,877.0,292.0,877.0,293.0 877.0,293.0,877.0,293.0,879.0,293.0 879.0,293.0,879.0,293.0,879.0,294.0 879.0,294.0,879.0,294.0,880.0,294.0 880.0,294.0,880.0,294.0,880.0,295.0 880.0,295.0,880.0,295.0,881.0,295.0 881.0,295.0,881.0,295.0,881.0,296.0 881.0,296.0,881.0,296.0,883.0,296.0 883.0,296.0,883.0,296.0,883.0,297.0 883.0,297.0,883.0,297.0,884.0,297.0 884.0,297.0,884.0,297.0,884.0,298.0 884.0,298.0,884.0,298.0,886.0,298.0 886.0,298.0,886.0,298.0,886.0,299.0 886.0,299.0,886.0,299.0,887.0,299.0 887.0,299.0,887.0,299.0,887.0,300.0 887.0,300.0,887.0,300.0,889.0,300.0 889.0,300.0,889.0,300.0,889.0,301.0 889.0,301.0,889.0,301.0,890.0,301.0 890.0,301.0,890.0,301.0,890.0,302.0 890.0,302.0,890.0,302.0,892.0,302.0 892.0,302.0,892.0,302.0,892.0,303.0 892.0,303.0,892.0,303.0,893.0,303.0 893.0,303.0,893.0,303.0,893.0,304.0 893.0,304.0,893.0,304.0,894.0,304.0 894.0,304.0,894.0,304.0,894.0,305.0 894.0,305.0,894.0,305.0,896.0,305.0 896.0,305.0,896.0,305.0,896.0,306.0 896.0,306.0,896.0,306.0,897.0,306.0 897.0,306.0,897.0,306.0,897.0,307.0 897.0,307.0,897.0,307.0,899.0,307.0 899.0,307.0,899.0,307.0,899.0,308.0 899.0,308.0,899.0,308.0,900.0,308.0 900.0,308.0,900.0,308.0,900.0,309.0 900.0,309.0,900.0,309.0,901.0,309.0 901.0,309.0,901.0,309.0,901.0,310.0 901.0,310.0,901.0,310.0,903.0,310.0 903.0,310.0,903.0,310.0,903.0,311.0 903.0,311.0,903.0,311.0,904.0,311.0 904.0,311.0,904.0,311.0,904.0,312.0 904.0,312.0,904.0,312.0,905.0,312.0 905.0,312.0,905.0,312.0,905.0,313.0 905.0,313.0,905.0,313.0,907.0,313.0 907.0,313.0,907.0,313.0,907.0,314.0 907.0,314.0,907.0,314.0,908.0,314.0 908.0,314.0,908.0,314.0,908.0,315.0 908.0,315.0,908.0,315.0,910.0,315.0 910.0,315.0,910.0,315.0,910.0,316.0 910.0,316.0,910.0,316.0,911.0,316.0 911.0,316.0,911.0,316.0,911.0,317.0 911.0,317.0,911.0,317.0,912.0,317.0 912.0,317.0,912.0,317.0,912.0,318.0 912.0,318.0,912.0,318.0,914.0,318.0 914.0,318.0,914.0,318.0,914.0,319.0 914.0,319.0,914.0,319.0,915.0,319.0 915.0,319.0,915.0,319.0,915.0,320.0 915.0,320.0,915.0,320.0,916.0,320.0 916.0,320.0,916.0,320.0,916.0,321.0 916.0,321.0,916.0,321.0,917.0,321.0 917.0,321.0,917.0,321.0,917.0,322.0 917.0,322.0,917.0,322.0,919.0,322.0 919.0,322.0,919.0,322.0,919.0,323.0 919.0,323.0,919.0,323.0,920.0,323.0 920.0,323.0,920.0,323.0,920.0,324.0 920.0,324.0,920.0,324.0,921.0,324.0 921.0,324.0,921.0,324.0,921.0,325.0 921.0,325.0,921.0,325.0,923.0,325.0 923.0,325.0,923.0,325.0,923.0,326.0 923.0,326.0,923.0,326.0,924.0,326.0 924.0,326.0,924.0,326.0,924.0,327.0 924.0,327.0,924.0,327.0,925.0,327.0 925.0,327.0,925.0,327.0,925.0,328.0 925.0,328.0,925.0,328.0,927.0,328.0 927.0,328.0,927.0,328.0,927.0,329.0 927.0,329.0,927.0,329.0,928.0,329.0 928.0,329.0,928.0,329.0,928.0,330.0 928.0,330.0,928.0,330.0,929.0,330.0 929.0,330.0,929.0,330.0,929.0,331.0 929.0,331.0,929.0,331.0,931.0,331.0 931.0,331.0,931.0,331.0,931.0,332.0 931.0,332.0,931.0,332.0,932.0,332.0 932.0,332.0,932.0,332.0,932.0,333.0 932.0,333.0,932.0,333.0,933.0,333.0 933.0,333.0,933.0,333.0,933.0,334.0 933.0,334.0,933.0,334.0,934.0,334.0 934.0,334.0,934.0,334.0,934.0,335.0 934.0,335.0,934.0,335.0,936.0,335.0 936.0,335.0,936.0,335.0,936.0,336.0 936.0,336.0,936.0,336.0,937.0,336.0 937.0,336.0,937.0,336.0,937.0,337.0 937.0,337.0,937.0,337.0,938.0,337.0 938.0,337.0,938.0,337.0,938.0,338.0 938.0,338.0,938.0,338.0,939.0,338.0 939.0,338.0,939.0,338.0,939.0,339.0 939.0,339.0,939.0,339.0,940.0,339.0 940.0,339.0,940.0,339.0,940.0,340.0 940.0,340.0,940.0,340.0,942.0,340.0 942.0,340.0,942.0,340.0,942.0,341.0 942.0,341.0,942.0,341.0,943.0,341.0 943.0,341.0,943.0,341.0,943.0,342.0 943.0,342.0,943.0,342.0,944.0,342.0 944.0,342.0,944.0,342.0,944.0,343.0 944.0,343.0,944.0,343.0,945.0,343.0 945.0,343.0,945.0,343.0,945.0,344.0 945.0,344.0,945.0,344.0,947.0,344.0 947.0,344.0,947.0,344.0,947.0,345.0 947.0,345.0,947.0,345.0,948.0,345.0 948.0,345.0,948.0,345.0,948.0,346.0 948.0,346.0,948.0,346.0,949.0,346.0 949.0,346.0,949.0,346.0,949.0,347.0 949.0,347.0,949.0,347.0,950.0,347.0 950.0,347.0,950.0,347.0,950.0,348.0 950.0,348.0,950.0,348.0,951.0,348.0 951.0,348.0,951.0,348.0,951.0,349.0 951.0,349.0,951.0,349.0,953.0,349.0 953.0,349.0,953.0,349.0,953.0,350.0 953.0,350.0,953.0,350.0,954.0,350.0 954.0,350.0,954.0,350.0,954.0,351.0 954.0,351.0,954.0,351.0,955.0,351.0 955.0,351.0,955.0,351.0,955.0,352.0 955.0,352.0,955.0,352.0,956.0,352.0 956.0,352.0,956.0,352.0,956.0,353.0 956.0,353.0,956.0,353.0,957.0,353.0 957.0,353.0,957.0,353.0,957.0,354.0 957.0,354.0,957.0,354.0,958.0,354.0 958.0,354.0,958.0,354.0,958.0,355.0 958.0,355.0,958.0,355.0,960.0,355.0 960.0,355.0,960.0,355.0,960.0,356.0 960.0,356.0,960.0,356.0,961.0,356.0 961.0,356.0,961.0,356.0,961.0,357.0 961.0,357.0,961.0,357.0,962.0,357.0 962.0,357.0,962.0,357.0,962.0,358.0 962.0,358.0,962.0,358.0,963.0,358.0 963.0,358.0,963.0,358.0,963.0,359.0 963.0,359.0,963.0,359.0,964.0,359.0 964.0,359.0,964.0,359.0,964.0,360.0 964.0,360.0,964.0,360.0,965.0,360.0 965.0,360.0,965.0,360.0,965.0,361.0 965.0,361.0,965.0,361.0,967.0,361.0 967.0,361.0,967.0,361.0,967.0,362.0 967.0,362.0,967.0,362.0,968.0,362.0 968.0,362.0,968.0,362.0,968.0,363.0 968.0,363.0,968.0,363.0,969.0,363.0 969.0,363.0,969.0,363.0,969.0,364.0 969.0,364.0,969.0,364.0,970.0,364.0 970.0,364.0,970.0,364.0,970.0,365.0 970.0,365.0,970.0,365.0,971.0,365.0 971.0,365.0,971.0,365.0,971.0,366.0 971.0,366.0,971.0,366.0,972.0,366.0 972.0,366.0,972.0,366.0,972.0,367.0 972.0,367.0,972.0,367.0,973.0,367.0 973.0,367.0,973.0,367.0,973.0,368.0 973.0,368.0,973.0,368.0,974.0,368.0 974.0,368.0,974.0,368.0,974.0,369.0 974.0,369.0,974.0,369.0,975.0,369.0 975.0,369.0,975.0,369.0,975.0,370.0 975.0,370.0,975.0,370.0,977.0,370.0 977.0,370.0,977.0,370.0,977.0,371.0 977.0,371.0,977.0,371.0,978.0,371.0 978.0,371.0,978.0,371.0,978.0,372.0 978.0,372.0,978.0,372.0,979.0,372.0 979.0,372.0,979.0,372.0,979.0,373.0 979.0,373.0,979.0,373.0,980.0,373.0 980.0,373.0,980.0,373.0,980.0,374.0 980.0,374.0,980.0,374.0,981.0,374.0 981.0,374.0,981.0,374.0,981.0,375.0 981.0,375.0,981.0,375.0,982.0,375.0 982.0,375.0,982.0,375.0,982.0,376.0 982.0,376.0,982.0,376.0,983.0,376.0 983.0,376.0,983.0,376.0,983.0,377.0 983.0,377.0,983.0,377.0,984.0,377.0 984.0,377.0,984.0,377.0,984.0,378.0 984.0,378.0,984.0,378.0,985.0,378.0 985.0,378.0,985.0,378.0,985.0,379.0 985.0,379.0,985.0,379.0,986.0,379.0 986.0,379.0,986.0,379.0,986.0,380.0 986.0,380.0,986.0,380.0,987.0,380.0 987.0,380.0,987.0,380.0,987.0,381.0 987.0,381.0,987.0,381.0,988.0,381.0 988.0,381.0,988.0,381.0,988.0,382.0 988.0,382.0,988.0,382.0,989.0,382.0 989.0,382.0,989.0,382.0,989.0,383.0 989.0,383.0,989.0,383.0,990.0,383.0 990.0,383.0,990.0,383.0,990.0,384.0 990.0,384.0,990.0,384.0,991.0,384.0 991.0,384.0,991.0,384.0,991.0,385.0 991.0,385.0,991.0,385.0,992.0,385.0 992.0,385.0,992.0,385.0,992.0,386.0 992.0,386.0,992.0,386.0,994.0,386.0 994.0,386.0,994.0,386.0,994.0,387.0 994.0,387.0,994.0,387.0,995.0,387.0 995.0,387.0,995.0,387.0,995.0,388.0 995.0,388.0,995.0,388.0,996.0,388.0 996.0,388.0,996.0,388.0,996.0,389.0 996.0,389.0,996.0,389.0,997.0,389.0 997.0,389.0,997.0,389.0,997.0,390.0 997.0,390.0,997.0,390.0,998.0,390.0 998.0,390.0,998.0,390.0,998.0,391.0 998.0,391.0,998.0,391.0,999.0,391.0 999.0,391.0,999.0,391.0,999.0,392.0 999.0,392.0,999.0,392.0,1000.0,392.0 1000.0,392.0,1000.0,392.0,1000.0,394.0 1000.0,394.0,1000.0,394.0,1001.0,394.0 1001.0,394.0,1001.0,394.0,1001.0,395.0 1001.0,395.0,1001.0,395.0,1002.0,395.0 1002.0,395.0,1002.0,395.0,1002.0,396.0 1002.0,396.0,1002.0,396.0,1003.0,396.0 1003.0,396.0,1003.0,396.0,1003.0,397.0 1003.0,397.0,1003.0,397.0,1004.0,397.0 1004.0,397.0,1004.0,397.0,1004.0,398.0 1004.0,398.0,1004.0,398.0,1005.0,398.0 1005.0,398.0,1005.0,398.0,1005.0,399.0 1005.0,399.0,1005.0,399.0,1006.0,399.0 1006.0,399.0,1006.0,399.0,1006.0,400.0 1006.0,400.0,1006.0,400.0,1007.0,400.0 1007.0,400.0,1007.0,400.0,1007.0,401.0 1007.0,401.0,1007.0,401.0,1008.0,401.0 1008.0,401.0,1008.0,401.0,1008.0,402.0 1008.0,402.0,1008.0,402.0,1009.0,402.0 1009.0,402.0,1009.0,402.0,1009.0,403.0 1009.0,403.0,1009.0,403.0,1010.0,403.0 1010.0,403.0,1010.0,403.0,1010.0,404.0 1010.0,404.0,1010.0,404.0,1011.0,404.0 1011.0,404.0,1011.0,404.0,1011.0,405.0 1011.0,405.0,1011.0,405.0,1012.0,405.0 1012.0,405.0,1012.0,405.0,1012.0,406.0 1012.0,406.0,1012.0,406.0,1013.0,406.0 1013.0,406.0,1013.0,406.0,1013.0,407.0 1013.0,407.0,1013.0,407.0,1014.0,407.0 1014.0,407.0,1014.0,407.0,1014.0,408.0 1014.0,408.0,1014.0,408.0,1015.0,408.0 1015.0,408.0,1015.0,408.0,1015.0,409.0 1015.0,409.0,1015.0,409.0,1016.0,409.0 1016.0,409.0,1016.0,409.0,1016.0,410.0 1016.0,410.0,1016.0,410.0,1017.0,410.0 1017.0,410.0,1017.0,410.0,1017.0,411.0 1017.0,411.0,1017.0,411.0,1018.0,411.0 1018.0,411.0,1018.0,411.0,1018.0,413.0 1018.0,413.0,1018.0,413.0,1019.0,413.0 1019.0,413.0,1019.0,413.0,1019.0,414.0 1019.0,414.0,1019.0,414.0,1020.0,414.0 1020.0,414.0,1020.0,414.0,1020.0,415.0 1020.0,415.0,1020.0,415.0,1021.0,415.0 1021.0,415.0,1021.0,415.0,1021.0,416.0 1021.0,416.0,1021.0,416.0,1022.0,416.0 1022.0,416.0,1022.0,416.0,1022.0,417.0 1022.0,417.0,1022.0,417.0,1023.0,417.0 1023.0,417.0,1023.0,417.0,1023.0,418.0 1023.0,418.0,1023.0,418.0,1024.0,418.0 1024.0,418.0,1024.0,418.0,1024.0,740.0 1024.0,740.0,1024.0,740.0,1022.0,740.0 1022.0,740.0,1022.0,740.0,1022.0,741.0 1022.0,741.0,1022.0,741.0,1021.0,741.0 1021.0,741.0,1021.0,741.0,1021.0,742.0 1021.0,742.0,1021.0,742.0,1020.0,742.0 1020.0,742.0,1020.0,742.0,1020.0,743.0 1020.0,743.0,1020.0,743.0,1018.0,743.0 1018.0,743.0,1018.0,743.0,1018.0,744.0 1018.0,744.0,1018.0,744.0,1017.0,744.0 1017.0,744.0,1017.0,744.0,1017.0,745.0 1017.0,745.0,1017.0,745.0,1016.0,745.0 1016.0,745.0,1016.0,745.0,1016.0,746.0 1016.0,746.0,1016.0,746.0,1015.0,746.0 1015.0,746.0,1015.0,746.0,1015.0,747.0 1015.0,747.0,1015.0,747.0,1013.0,747.0 1013.0,747.0,1013.0,747.0,1013.0,748.0 1013.0,748.0,1013.0,748.0,1012.0,748.0 1012.0,748.0,1012.0,748.0,1012.0,749.0 1012.0,749.0,1012.0,749.0,1011.0,749.0 1011.0,749.0,1011.0,749.0,1011.0,750.0 1011.0,750.0,1011.0,750.0,1009.0,750.0 1009.0,750.0,1009.0,750.0,1009.0,751.0 1009.0,751.0,1009.0,751.0,1008.0,751.0 1008.0,751.0,1008.0,751.0,1008.0,752.0 1008.0,752.0,1008.0,752.0,1006.0,752.0 1006.0,752.0,1006.0,752.0,1006.0,753.0 1006.0,753.0,1006.0,753.0,1005.0,753.0 1005.0,753.0,1005.0,753.0,1005.0,754.0 1005.0,754.0,1005.0,754.0,1003.0,754.0 1003.0,754.0,1003.0,754.0,1003.0,755.0 1003.0,755.0,1003.0,755.0,1002.0,755.0 1002.0,755.0,1002.0,755.0,1002.0,756.0 1002.0,756.0,1002.0,756.0,1001.0,756.0 1001.0,756.0,1001.0,756.0,1001.0,757.0 1001.0,757.0,1001.0,757.0,999.0,757.0 999.0,757.0,999.0,757.0,999.0,758.0 999.0,758.0,999.0,758.0,998.0,758.0 998.0,758.0,998.0,758.0,998.0,759.0 998.0,759.0,998.0,759.0,996.0,759.0 996.0,759.0,996.0,759.0,996.0,760.0 996.0,760.0,996.0,760.0,995.0,760.0 995.0,760.0,995.0,760.0,995.0,761.0 995.0,761.0,995.0,761.0,993.0,761.0 993.0,761.0,993.0,761.0,993.0,762.0 993.0,762.0,993.0,762.0,992.0,762.0 992.0,762.0,992.0,762.0,992.0,763.0 992.0,763.0,992.0,763.0,990.0,763.0 990.0,763.0,990.0,763.0,990.0,764.0 990.0,764.0,990.0,764.0,988.0,764.0 988.0,764.0,988.0,764.0,988.0,765.0 988.0,765.0,988.0,765.0,987.0,765.0 987.0,765.0,987.0,765.0,987.0,766.0 987.0,766.0,987.0,766.0,985.0,766.0 985.0,766.0,985.0,766.0,985.0,767.0 985.0,767.0,985.0,767.0,983.0,767.0 983.0,767.0,983.0,767.0,983.0,768.0 983.0,768.0,983.0,768.0,982.0,768.0 982.0,768.0,982.0,768.0,982.0,769.0 982.0,769.0,982.0,769.0,980.0,769.0 980.0,769.0,980.0,769.0,980.0,770.0 980.0,770.0,980.0,770.0,401.0,770.0 401.0,770.0,401.0,770.0,401.0,769.0 401.0,769.0,401.0,769.0,400.0,769.0 400.0,769.0,400.0,769.0,400.0,768.0 400.0,768.0,400.0,768.0,399.0,768.0 399.0,768.0,399.0,768.0,399.0,767.0 399.0,767.0,399.0,767.0,398.0,767.0 398.0,767.0,398.0,767.0,398.0,766.0 398.0,766.0,398.0,766.0,396.0,766.0 396.0,766.0,396.0,766.0,396.0,765.0 396.0,765.0,396.0,765.0,395.0,765.0 395.0,765.0,395.0,765.0,395.0,764.0 395.0,764.0,395.0,764.0,394.0,764.0 394.0,764.0,394.0,764.0,394.0,763.0 394.0,763.0,394.0,763.0,393.0,763.0 393.0,763.0,393.0,763.0,393.0,762.0 393.0,762.0,393.0,762.0,392.0,762.0 392.0,762.0,392.0,762.0,392.0,761.0 392.0,761.0,392.0,761.0,391.0,761.0 391.0,761.0,391.0,761.0,391.0,760.0 391.0,760.0,391.0,760.0,390.0,760.0 390.0,760.0,390.0,760.0,390.0,759.0 390.0,759.0,390.0,759.0,389.0,759.0 389.0,759.0,389.0,759.0,389.0,758.0 389.0,758.0,389.0,758.0,388.0,758.0 388.0,758.0,388.0,758.0,388.0,757.0 388.0,757.0,388.0,757.0,386.0,757.0 386.0,757.0,386.0,757.0,386.0,756.0 386.0,756.0,386.0,756.0,385.0,756.0 385.0,756.0,385.0,756.0,385.0,755.0 385.0,755.0,385.0,755.0,384.0,755.0 384.0,755.0,384.0,755.0,384.0,754.0 384.0,754.0,384.0,754.0,383.0,754.0 383.0,754.0,383.0,754.0,383.0,753.0 383.0,753.0,383.0,753.0,382.0,753.0 382.0,753.0,382.0,753.0,382.0,752.0 382.0,752.0,382.0,752.0,381.0,752.0 381.0,752.0,381.0,752.0,381.0,751.0 381.0,751.0,381.0,751.0,380.0,751.0 380.0,751.0,380.0,751.0,380.0,750.0 380.0,750.0,380.0,750.0,379.0,750.0 379.0,750.0,379.0,750.0,379.0,749.0 379.0,749.0,379.0,749.0,378.0,749.0 378.0,749.0,378.0,749.0,378.0,748.0 378.0,748.0,378.0,748.0,377.0,748.0 377.0,748.0,377.0,748.0,377.0,747.0 377.0,747.0,377.0,747.0,376.0,747.0 376.0,747.0,376.0,747.0,376.0,746.0 376.0,746.0,376.0,746.0,375.0,746.0 375.0,746.0,375.0,746.0,375.0,745.0 375.0,745.0,375.0,745.0,374.0,745.0 374.0,745.0,374.0,745.0,374.0,744.0 374.0,744.0,374.0,744.0,373.0,744.0 373.0,744.0,373.0,744.0,373.0,743.0 373.0,743.0,373.0,743.0,372.0,743.0 372.0,743.0,372.0,743.0,372.0,742.0 372.0,742.0,372.0,742.0,371.0,742.0 371.0,742.0,371.0,742.0,371.0,741.0 371.0,741.0,371.0,741.0,370.0,741.0 370.0,741.0,370.0,741.0,370.0,740.0 370.0,740.0,370.0,740.0,369.0,740.0 369.0,740.0,369.0,740.0,369.0,739.0 369.0,739.0,369.0,739.0,368.0,739.0 368.0,739.0,368.0,739.0,368.0,738.0 368.0,738.0,368.0,738.0,367.0,738.0 367.0,738.0,367.0,738.0,367.0,737.0 367.0,737.0,367.0,737.0,366.0,737.0 366.0,737.0,366.0,737.0,366.0,736.0 366.0,736.0,366.0,736.0,365.0,736.0 365.0,736.0,365.0,736.0,365.0,735.0 365.0,735.0,365.0,735.0,364.0,735.0 364.0,735.0,364.0,735.0,364.0,733.0 364.0,733.0,364.0,733.0,363.0,733.0 363.0,733.0,363.0,733.0,363.0,732.0 363.0,732.0,363.0,732.0,362.0,732.0 362.0,732.0,362.0,732.0,362.0,731.0 362.0,731.0,362.0,731.0,361.0,731.0 361.0,731.0,361.0,731.0,361.0,730.0 361.0,730.0,361.0,730.0,360.0,730.0 360.0,730.0,360.0,730.0,360.0,729.0 360.0,729.0,360.0,729.0,359.0,729.0 359.0,729.0,359.0,729.0,359.0,728.0 359.0,728.0,359.0,728.0,358.0,728.0 358.0,728.0,358.0,728.0,358.0,727.0 358.0,727.0,358.0,727.0,357.0,727.0 357.0,727.0,357.0,727.0,357.0,726.0 357.0,726.0,357.0,726.0,356.0,726.0 356.0,726.0,356.0,726.0,356.0,724.0 356.0,724.0,356.0,724.0,355.0,724.0 355.0,724.0,355.0,724.0,355.0,723.0 355.0,723.0,355.0,723.0,354.0,723.0 354.0,723.0,354.0,723.0,354.0,722.0 354.0,722.0,354.0,722.0,353.0,722.0 353.0,722.0,353.0,722.0,353.0,721.0 353.0,721.0,353.0,721.0,352.0,721.0 352.0,721.0,352.0,721.0,352.0,720.0 352.0,720.0,352.0,720.0,351.0,720.0 351.0,720.0,351.0,720.0,351.0,719.0 351.0,719.0,351.0,719.0,350.0,719.0 350.0,719.0,350.0,719.0,350.0,717.0 350.0,717.0,350.0,717.0,349.0,717.0 349.0,717.0,349.0,717.0,349.0,716.0 349.0,716.0,349.0,716.0,348.0,716.0 348.0,716.0,348.0,716.0,348.0,715.0 348.0,715.0,348.0,715.0,347.0,715.0 347.0,715.0,347.0,715.0,347.0,714.0 347.0,714.0,347.0,714.0,346.0,714.0 346.0,714.0,346.0,714.0,346.0,713.0 346.0,713.0,346.0,713.0,345.0,713.0 345.0,713.0,345.0,713.0,345.0,711.0 345.0,711.0,345.0,711.0,344.0,711.0 344.0,711.0,344.0,711.0,344.0,710.0 344.0,710.0,344.0,710.0,343.0,710.0 343.0,710.0,343.0,710.0,343.0,709.0 343.0,709.0,343.0,709.0,342.0,709.0 342.0,709.0,342.0,709.0,342.0,708.0 342.0,708.0,342.0,708.0,341.0,708.0 341.0,708.0,341.0,708.0,341.0,706.0 341.0,706.0,341.0,706.0,340.0,706.0 340.0,706.0,340.0,706.0,340.0,705.0 340.0,705.0,340.0,705.0,339.0,705.0 339.0,705.0,339.0,705.0,339.0,704.0 339.0,704.0,339.0,704.0,338.0,704.0 338.0,704.0,338.0,704.0,338.0,703.0 338.0,703.0,338.0,703.0,337.0,703.0 337.0,703.0,337.0,703.0,337.0,701.0 337.0,701.0,337.0,701.0,336.0,701.0 336.0,701.0,336.0,701.0,336.0,700.0 336.0,700.0,336.0,700.0,335.0,700.0 335.0,700.0,335.0,700.0,335.0,699.0 335.0,699.0,335.0,699.0,334.0,699.0 334.0,699.0,334.0,699.0,334.0,698.0 334.0,698.0,334.0,698.0,333.0,698.0 333.0,698.0,333.0,698.0,333.0,696.0 333.0,696.0,333.0,696.0,332.0,696.0 332.0,696.0,332.0,696.0,332.0,695.0 332.0,695.0,332.0,695.0,331.0,695.0 331.0,695.0,331.0,695.0,331.0,693.0 331.0,693.0,331.0,693.0,330.0,693.0 330.0,693.0,330.0,693.0,330.0,692.0 330.0,692.0,330.0,692.0,329.0,692.0 329.0,692.0,329.0,692.0,329.0,691.0 329.0,691.0,329.0,691.0,328.0,691.0 328.0,691.0,328.0,691.0,328.0,689.0 328.0,689.0,328.0,689.0,327.0,689.0 327.0,689.0,327.0,689.0,327.0,688.0 327.0,688.0,327.0,688.0,326.0,688.0 326.0,688.0,326.0,688.0,326.0,687.0 326.0,687.0,326.0,687.0,325.0,687.0 325.0,687.0,325.0,687.0,325.0,685.0 325.0,685.0,325.0,685.0,324.0,685.0 324.0,685.0,324.0,685.0,324.0,684.0 324.0,684.0,324.0,684.0,323.0,684.0 323.0,684.0,323.0,684.0,323.0,682.0 323.0,682.0,323.0,682.0,322.0,682.0 322.0,682.0,322.0,682.0,322.0,681.0 322.0,681.0,322.0,681.0,321.0,681.0 321.0,681.0,321.0,681.0,321.0,680.0 321.0,680.0,321.0,680.0,320.0,680.0 320.0,680.0,320.0,680.0,320.0,678.0 320.0,678.0,320.0,678.0,319.0,678.0 319.0,678.0,319.0,678.0,319.0,677.0 319.0,677.0,319.0,677.0,318.0,677.0 318.0,677.0,318.0,677.0,318.0,675.0 318.0,675.0,318.0,675.0,317.0,675.0 317.0,675.0,317.0,675.0,317.0,674.0 317.0,674.0,317.0,674.0,316.0,674.0 316.0,674.0,316.0,674.0,316.0,672.0 316.0,672.0,316.0,672.0,315.0,672.0 315.0,672.0,315.0,672.0,315.0,671.0 315.0,671.0,315.0,671.0,314.0,671.0 314.0,671.0,314.0,671.0,314.0,669.0 314.0,669.0,314.0,669.0,313.0,669.0 313.0,669.0,313.0,669.0,313.0,668.0 313.0,668.0,313.0,668.0,312.0,668.0 312.0,668.0,312.0,668.0,312.0,666.0 312.0,666.0,312.0,666.0,311.0,666.0 311.0,666.0,311.0,666.0,311.0,665.0 311.0,665.0,311.0,665.0,310.0,665.0 310.0,665.0,310.0,665.0,310.0,663.0 310.0,663.0,310.0,663.0,309.0,663.0 309.0,663.0,309.0,663.0,309.0,662.0 309.0,662.0,309.0,662.0,308.0,662.0 308.0,662.0,308.0,662.0,308.0,660.0 308.0,660.0,308.0,660.0,307.0,660.0 307.0,660.0,307.0,660.0,307.0,659.0 307.0,659.0,307.0,659.0,306.0,659.0 306.0,659.0,306.0,659.0,306.0,657.0 306.0,657.0,306.0,657.0,305.0,657.0 305.0,657.0,305.0,657.0,305.0,656.0 305.0,656.0,305.0,656.0,304.0,656.0 304.0,656.0,304.0,656.0,304.0,654.0 304.0,654.0,304.0,654.0,303.0,654.0 303.0,654.0,303.0,654.0,303.0,652.0 303.0,652.0,303.0,652.0,302.0,652.0 302.0,652.0,302.0,652.0,302.0,651.0 302.0,651.0,302.0,651.0,301.0,651.0 301.0,651.0,301.0,651.0,301.0,649.0 301.0,649.0,301.0,649.0,300.0,649.0 300.0,649.0,300.0,649.0,300.0,648.0 300.0,648.0,300.0,648.0,299.0,648.0 299.0,648.0,299.0,648.0,299.0,646.0 299.0,646.0,299.0,646.0,298.0,646.0 298.0,646.0,298.0,646.0,298.0,644.0 298.0,644.0,298.0,644.0,297.0,644.0 297.0,644.0,297.0,644.0,297.0,643.0 297.0,643.0,297.0,643.0,296.0,643.0 296.0,643.0,296.0,643.0,296.0,641.0 296.0,641.0,296.0,641.0,295.0,641.0 295.0,641.0,295.0,641.0,295.0,639.0 295.0,639.0,295.0,639.0,294.0,639.0 294.0,639.0,294.0,639.0,294.0,638.0 294.0,638.0,294.0,638.0,293.0,638.0 293.0,638.0,293.0,638.0,293.0,636.0 293.0,636.0,293.0,636.0,292.0,636.0 292.0,636.0,292.0,636.0,292.0,634.0 292.0,634.0,292.0,634.0,291.0,634.0 291.0,634.0,291.0,634.0,291.0,633.0 291.0,633.0,291.0,633.0,290.0,633.0 290.0,633.0,290.0,633.0,290.0,631.0 290.0,631.0,290.0,631.0,289.0,631.0 289.0,631.0,289.0,631.0,289.0,629.0 289.0,629.0,289.0,629.0,288.0,629.0 288.0,629.0,288.0,629.0,288.0,627.0 288.0,627.0,288.0,627.0,287.0,627.0 287.0,627.0,287.0,627.0,287.0,626.0 287.0,626.0,287.0,626.0,286.0,626.0 286.0,626.0,286.0,626.0,286.0,624.0 286.0,624.0,286.0,624.0,285.0,624.0 285.0,624.0,285.0,624.0,285.0,622.0 285.0,622.0,285.0,622.0,284.0,622.0 284.0,622.0,284.0,622.0,284.0,620.0 284.0,620.0,284.0,620.0,283.0,620.0 283.0,620.0,283.0,620.0,283.0,619.0 283.0,619.0,283.0,619.0,282.0,619.0 282.0,619.0,282.0,619.0,282.0,617.0 282.0,617.0,282.0,617.0,281.0,617.0 281.0,617.0,281.0,617.0,281.0,615.0 281.0,615.0,281.0,615.0,280.0,615.0 280.0,615.0,280.0,615.0,280.0,613.0 280.0,613.0,280.0,613.0,279.0,613.0 279.0,613.0,279.0,613.0,279.0,611.0 279.0,611.0,279.0,611.0,278.0,611.0 278.0,611.0,278.0,611.0,278.0,609.0 278.0,609.0,278.0,609.0,277.0,609.0 277.0,609.0,277.0,609.0,277.0,607.0 277.0,607.0,277.0,607.0,276.0,607.0 276.0,607.0,276.0,607.0,276.0,605.0 276.0,605.0,276.0,605.0,275.0,605.0 275.0,605.0,275.0,605.0,275.0,604.0 275.0,604.0,275.0,604.0,274.0,604.0 274.0,604.0,274.0,604.0,274.0,602.0 274.0,602.0,274.0,602.0,273.0,602.0 273.0,602.0,273.0,602.0,273.0,600.0 273.0,600.0,273.0,600.0,272.0,600.0 272.0,600.0,272.0,600.0,272.0,598.0 272.0,598.0,272.0,598.0,271.0,598.0 271.0,598.0,271.0,598.0,271.0,596.0 271.0,596.0,271.0,596.0,270.0,596.0 270.0,596.0,270.0,596.0,270.0,594.0 270.0,594.0,270.0,594.0,269.0,594.0 269.0,594.0,269.0,594.0,269.0,592.0 269.0,592.0,269.0,592.0,268.0,592.0 268.0,592.0,268.0,592.0,268.0,590.0 268.0,590.0,268.0,590.0,267.0,590.0 267.0,590.0,267.0,590.0,267.0,588.0 267.0,588.0,267.0,588.0,266.0,588.0 266.0,588.0,266.0,588.0,266.0,586.0 266.0,586.0,266.0,586.0,265.0,586.0 265.0,586.0,265.0,586.0,265.0,584.0 265.0,584.0,265.0,584.0,264.0,584.0 264.0,584.0,264.0,584.0,264.0,582.0 264.0,582.0,264.0,582.0,263.0,582.0 263.0,582.0,263.0,582.0,263.0,579.0 263.0,579.0,263.0,579.0,262.0,579.0 262.0,579.0,262.0,579.0,262.0,577.0 262.0,577.0,262.0,577.0,261.0,577.0 261.0,577.0,261.0,577.0,261.0,575.0 261.0,575.0,261.0,575.0,260.0,575.0 260.0,575.0,260.0,575.0,260.0,573.0 260.0,573.0,260.0,573.0,259.0,573.0 259.0,573.0,259.0,573.0,259.0,571.0 259.0,571.0,259.0,571.0,258.0,571.0 258.0,571.0,258.0,571.0,258.0,569.0 258.0,569.0,258.0,569.0,257.0,569.0 257.0,569.0,257.0,569.0,257.0,567.0 257.0,567.0,257.0,567.0,256.0,567.0 256.0,567.0,256.0,567.0,256.0,564.0 256.0,564.0,256.0,564.0,255.0,564.0 255.0,564.0,255.0,564.0,255.0,562.0 255.0,562.0,255.0,562.0,254.0,562.0 254.0,562.0,254.0,562.0,254.0,560.0 254.0,560.0,254.0,560.0,253.0,560.0 253.0,560.0,253.0,560.0,253.0,558.0 253.0,558.0,253.0,558.0,252.0,558.0 252.0,558.0,252.0,558.0,252.0,555.0 252.0,555.0,252.0,555.0,251.0,555.0 251.0,555.0,251.0,555.0,251.0,553.0 251.0,553.0,251.0,553.0,250.0,553.0 250.0,553.0,250.0,553.0,250.0,551.0 250.0,551.0,250.0,551.0,249.0,551.0 249.0,551.0,249.0,551.0,249.0,549.0 249.0,549.0,249.0,549.0,248.0,549.0 248.0,549.0,248.0,549.0,248.0,546.0 248.0,546.0,248.0,546.0,247.0,546.0 247.0,546.0,247.0,546.0,247.0,544.0 247.0,544.0,247.0,544.0,246.0,544.0 246.0,544.0,246.0,544.0,246.0,541.0 246.0,541.0,246.0,541.0,245.0,541.0 245.0,541.0,245.0,541.0,245.0,539.0 245.0,539.0,245.0,539.0,244.0,539.0 244.0,539.0,244.0,539.0,244.0,536.0 244.0,536.0,244.0,536.0,243.0,536.0 243.0,536.0,243.0,536.0,243.0,535.0 243.0,535.0,243.0,535.0,193.0,535.0 193.0,535.0,193.0,535.0,193.0,534.0 193.0,534.0,193.0,534.0,192.0,534.0 192.0,534.0,192.0,534.0,192.0,533.0 192.0,533.0,192.0,533.0,191.0,533.0 191.0,533.0,191.0,533.0,191.0,531.0 191.0,531.0,191.0,531.0,190.0,531.0 190.0,531.0,190.0,531.0,190.0,496.0 190.0,496.0,190.0,496.0,191.0,496.0 191.0,496.0,191.0,496.0,191.0,494.0 191.0,494.0,191.0,494.0,192.0,494.0 192.0,494.0,192.0,494.0,192.0,493.0 192.0,493.0,192.0,493.0,193.0,493.0 193.0,493.0,193.0,493.0,193.0,492.0 193.0,492.0,193.0,492.0,197.0,492.0 197.0,492.0,197.0,492.0,197.0,491.0 197.0,491.0,197.0,491.0,227.0,491.0 227.0,491.0,227.0,491.0,227.0,490.0 227.0,490.0,227.0,490.0,226.0,490.0 226.0,490.0,226.0,490.0,226.0,487.0 226.0,487.0,226.0,487.0,225.0,487.0 225.0,487.0,225.0,487.0,225.0,484.0 225.0,484.0,225.0,484.0,224.0,484.0 224.0,484.0,224.0,484.0,224.0,481.0 224.0,481.0,224.0,481.0,223.0,481.0 223.0,481.0,223.0,481.0,223.0,478.0 223.0,478.0,223.0,478.0,222.0,478.0 222.0,478.0,222.0,478.0,222.0,475.0 222.0,475.0,222.0,475.0,221.0,475.0 221.0,475.0,221.0,475.0,221.0,472.0 221.0,472.0,221.0,472.0,220.0,472.0 220.0,472.0,220.0,472.0,220.0,468.0 220.0,468.0,220.0,468.0,219.0,468.0 219.0,468.0,219.0,468.0,219.0,465.0 219.0,465.0,219.0,465.0,218.0,465.0 218.0,465.0,218.0,465.0,218.0,461.0 218.0,461.0,218.0,461.0,217.0,461.0 217.0,461.0,217.0,461.0,217.0,458.0 217.0,458.0,217.0,458.0,216.0,458.0 216.0,458.0,216.0,458.0,216.0,454.0 216.0,454.0,216.0,454.0,215.0,454.0 215.0,454.0,215.0,454.0,215.0,451.0 215.0,451.0,215.0,451.0,214.0,451.0 214.0,451.0,214.0,451.0,214.0,447.0 214.0,447.0,214.0,447.0,213.0,447.0 213.0,447.0,213.0,447.0,213.0,443.0 213.0,443.0,213.0,443.0,212.0,443.0 212.0,443.0,212.0,443.0,212.0,439.0 212.0,439.0,212.0,439.0,211.0,439.0 211.0,439.0,211.0,439.0,211.0,435.0 211.0,435.0,211.0,435.0,210.0,435.0 210.0,435.0,210.0,435.0,210.0,431.0 210.0,431.0,210.0,431.0,209.0,431.0 209.0,431.0,209.0,431.0,209.0,430.0 209.0,430.0,209.0,430.0,25.0,430.0 25.0,430.0,25.0,430.0,25.0,429.0 25.0,429.0,25.0,429.0,21.0,429.0 21.0,429.0,21.0,429.0,21.0,428.0 21.0,428.0,21.0,428.0,19.0,428.0 19.0,428.0,19.0,428.0,19.0,427.0 19.0,427.0,19.0,427.0,17.0,427.0 17.0,427.0,17.0,427.0,17.0,426.0 17.0,426.0,17.0,426.0,15.0,426.0 15.0,426.0,15.0,426.0,15.0,425.0 15.0,425.0,15.0,425.0,14.0,425.0 14.0,425.0,14.0,425.0,14.0,424.0 14.0,424.0,14.0,424.0,12.0,424.0 12.0,424.0,12.0,424.0,12.0,423.0 12.0,423.0,12.0,423.0,11.0,423.0 11.0,423.0,11.0,423.0,11.0,422.0 11.0,422.0,11.0,422.0,10.0,422.0 10.0,422.0,10.0,422.0,10.0,421.0 10.0,421.0,10.0,421.0,9.0,421.0 9.0,421.0,9.0,421.0,9.0,420.0 9.0,420.0,9.0,420.0,8.0,420.0 8.0,420.0,8.0,420.0,8.0,419.0 8.0,419.0,8.0,419.0,7.0,419.0 7.0,419.0,7.0,419.0,7.0,418.0 7.0,418.0,7.0,418.0,6.0,418.0 6.0,418.0,6.0,418.0,6.0,416.0 6.0,416.0,6.0,416.0,5.0,416.0 5.0,416.0,5.0,416.0,5.0,415.0 5.0,415.0,5.0,415.0,4.0,415.0 4.0,415.0,4.0,415.0,4.0,413.0 4.0,413.0,4.0,413.0,3.0,413.0 3.0,413.0,3.0,413.0,3.0,410.0 3.0,410.0,3.0,410.0,2.0,410.0 2.0,410.0,2.0,410.0,2.0,407.0 2.0,407.0,2.0,407.0,1.0,407.0 1.0,407.0,1.0,407.0,1.0,400.0 1.0,400.0,1.0,400.0,0.0,400.0 0.0,400.0,0.0,400.0,0.0,23.0 0.0,23.0,0.0,23.0,1.0,23.0 1.0,23.0,1.0,23.0,1.0,18.0 1.0,18.0,1.0,18.0,2.0,18.0 2.0,18.0,2.0,18.0,2.0,17.0 2.0,17.0,2.0,17.0,3.0,17.0 3.0,17.0,3.0,17.0,3.0,16.0 3.0,16.0,3.0,16.0,4.0,16.0 4.0,16.0,4.0,16.0,4.0,15.0 4.0,15.0,4.0,15.0,5.0,15.0 5.0,15.0,5.0,15.0,5.0,14.0 5.0,14.0,5.0,14.0,8.0,14.0 8.0,14.0,8.0,14.0,8.0,13.0 8.0,13.0,8.0,13.0,9.0,13.0 9.0,13.0,9.0,13.0,9.0,12.0 9.0,12.0,9.0,12.0,10.0,12.0 10.0,12.0,10.0,12.0,10.0,11.0 10.0,11.0,10.0,11.0,11.0,11.0 11.0,11.0,11.0,11.0,11.0,10.0 11.0,10.0,11.0,10.0,12.0,10.0 12.0,10.0,12.0,10.0,12.0,9.0 12.0,9.0,12.0,9.0,14.0,9.0 14.0,9.0,14.0,9.0,14.0,8.0 14.0,8.0,14.0,8.0,15.0,8.0 15.0,8.0,15.0,8.0,15.0,7.0 15.0,7.0,15.0,7.0,17.0,7.0 17.0,7.0,17.0,7.0,17.0,6.0 17.0,6.0,17.0,6.0,19.0,6.0 19.0,6.0,19.0,6.0,19.0,5.0 19.0,5.0,19.0,5.0,21.0,5.0 21.0,5.0,21.0,5.0,21.0,4.0 21.0,4.0,21.0,4.0,25.0,4.0 25.0,4.0,25.0,4.0,25.0,3.0 25.0,3.0,25.0,3.0,33.0,3.0 33.0,3.0,33.0,3.0,33.0,2.0 33.0,2.0," stroke="rgb(255,255,255)" stroke-linecap="round" stroke-opacity="0.000" stroke-width="0"/><g height="333.8" width="439.5" x="332.5" y="291.8"><text dy="98px" fill="rgb(196,8,8)" fill-opacity="1.000" font-family="Bernard MT Condensed" font-size="100" height="131.3" width="357.4" x="382.7" y="291.8"><tspan x="382.7">TECHTIP </tspan></text><text dy="98px" fill="rgb(196,8,8)" fill-opacity="1.000" font-family="Bernard MT Condensed" font-size="100" height="131.3" width="393.7" x="365.1" y="410.5"><tspan x="365.1">MANAGED </tspan></text><text dy="98px" fill="rgb(196,8,8)" fill-opacity="1.000" font-family="Bernard MT Condensed" font-size="100" height="131.3" width="373.4" x="387.2" y="529.3"><tspan x="387.2">SERVICES</tspan></text></g><ellipse cx="232" cy="158" fill="rgb(23,23,23)" fill-opacity="1.000" nch:colorstroke="rgba(196,8,8,255)" rx="179" ry="156" stroke="rgb(196,8,8)" stroke-opacity="1.000" stroke-width="1"/><ellipse cx="318" cy="393" fill="rgb(23,23,23)" fill-opacity="1.000" nch:colorstroke="rgba(196,8,8,255)" rx="47" ry="45" stroke="rgb(196,8,8)" stroke-opacity="1.000" stroke-width="1"/><ellipse cx="535" cy="254" fill="rgb(23,23,23)" fill-opacity="1.000" nch:colorstroke="rgba(196,8,8,255)" rx="23" ry="22" stroke="rgb(196,8,8)" stroke-opacity="1.000" stroke-width="1"/><ellipse cx="761" cy="470" fill="rgb(23,23,23)" fill-opacity="1.000" nch:colorstroke="rgba(196,8,8,255)" rx="25" ry="24" stroke="rgb(196,8,8)" stroke-opacity="1.000" stroke-width="1"/><ellipse cx="847" cy="665" fill="rgb(23,23,23)" fill-opacity="1.000" nch:colorstroke="rgba(196,8,8,255)" rx="86" ry="59" stroke="rgb(196,8,8)" stroke-opacity="1.000" stroke-width="1"/></g></svg>