<?xml version="1.0" standalone="no"?>
<!DOCTYPE svg PUBLIC "-//W3C//DTD SVG 1.1//EN"
"http://www.w3.org/Graphics/SVG/1.1/DTD/svg11.dtd">

<svg height="79" transform="translate(0.5,0.5)" version="1.1" width="97" xmlns="http://www.w3.org/2000/svg" xmlns:nch="http://www.nchsoftware.com/drawpad/" xmlns:xlink="http://www.w3.org/1999/xlink"><rect fill="rgb(255,255,255)" fill-opacity="1.000" height="79" id="background" width="97" x="0" y="0"/><g class="Layer"><path d=" M14.0,8.0 L30.0,8.0 L30.0,17.0 L31.0,17.0 L31.0,18.0 L32.0,18.0 L32.0,19.0 L40.0,19.0 L40.0,20.0 L41.0,20.0 L41.0,37.0 L40.0,37.0 L40.0,38.0 L38.0,38.0 L38.0,39.0 L37.0,39.0 L37.0,40.0 L35.0,40.0 L35.0,41.0 L34.0,41.0 L34.0,42.0 L32.0,42.0 L32.0,43.0 L30.0,43.0 L30.0,44.0 L29.0,44.0 L29.0,45.0 L27.0,45.0 L27.0,46.0 L26.0,46.0 L26.0,45.0 L24.0,45.0 L24.0,44.0 L23.0,44.0 L23.0,43.0 L21.0,43.0 L21.0,42.0 L20.0,42.0 L20.0,41.0 L18.0,41.0 L18.0,40.0 L16.0,40.0 L16.0,39.0 L15.0,39.0 L15.0,38.0 L13.0,38.0 L13.0,37.0 L12.0,37.0 L12.0,11.0 L13.0,11.0 L13.0,9.0 L14.0,9.0 Z" fill="rgb(23,23,23)" fill-opacity="1.000" nch:path="14.0,8.0,14.0,8.0,30.0,8.0 30.0,8.0,30.0,8.0,30.0,17.0 30.0,17.0,30.0,17.0,31.0,17.0 31.0,17.0,31.0,17.0,31.0,18.0 31.0,18.0,31.0,18.0,32.0,18.0 32.0,18.0,32.0,18.0,32.0,19.0 32.0,19.0,32.0,19.0,40.0,19.0 40.0,19.0,40.0,19.0,40.0,20.0 40.0,20.0,40.0,20.0,41.0,20.0 41.0,20.0,41.0,20.0,41.0,37.0 41.0,37.0,41.0,37.0,40.0,37.0 40.0,37.0,40.0,37.0,40.0,38.0 40.0,38.0,40.0,38.0,38.0,38.0 38.0,38.0,38.0,38.0,38.0,39.0 38.0,39.0,38.0,39.0,37.0,39.0 37.0,39.0,37.0,39.0,37.0,40.0 37.0,40.0,37.0,40.0,35.0,40.0 35.0,40.0,35.0,40.0,35.0,41.0 35.0,41.0,35.0,41.0,34.0,41.0 34.0,41.0,34.0,41.0,34.0,42.0 34.0,42.0,34.0,42.0,32.0,42.0 32.0,42.0,32.0,42.0,32.0,43.0 32.0,43.0,32.0,43.0,30.0,43.0 30.0,43.0,30.0,43.0,30.0,44.0 30.0,44.0,30.0,44.0,29.0,44.0 29.0,44.0,29.0,44.0,29.0,45.0 29.0,45.0,29.0,45.0,27.0,45.0 27.0,45.0,27.0,45.0,27.0,46.0 27.0,46.0,27.0,46.0,26.0,46.0 26.0,46.0,26.0,46.0,26.0,45.0 26.0,45.0,26.0,45.0,24.0,45.0 24.0,45.0,24.0,45.0,24.0,44.0 24.0,44.0,24.0,44.0,23.0,44.0 23.0,44.0,23.0,44.0,23.0,43.0 23.0,43.0,23.0,43.0,21.0,43.0 21.0,43.0,21.0,43.0,21.0,42.0 21.0,42.0,21.0,42.0,20.0,42.0 20.0,42.0,20.0,42.0,20.0,41.0 20.0,41.0,20.0,41.0,18.0,41.0 18.0,41.0,18.0,41.0,18.0,40.0 18.0,40.0,18.0,40.0,16.0,40.0 16.0,40.0,16.0,40.0,16.0,39.0 16.0,39.0,16.0,39.0,15.0,39.0 15.0,39.0,15.0,39.0,15.0,38.0 15.0,38.0,15.0,38.0,13.0,38.0 13.0,38.0,13.0,38.0,13.0,37.0 13.0,37.0,13.0,37.0,12.0,37.0 12.0,37.0,12.0,37.0,12.0,11.0 12.0,11.0,12.0,11.0,13.0,11.0 13.0,11.0,13.0,11.0,13.0,9.0 13.0,9.0,13.0,9.0,14.0,9.0 14.0,9.0,14.0,9.0,14.0,8.0 14.0,8.0," stroke="rgb(255,255,255)" stroke-linecap="round" stroke-opacity="0.000" stroke-width="0"/><path d=" M8.0,24.0 L10.0,24.0 L10.0,34.0 L8.0,34.0 L8.0,33.0 L7.0,33.0 L7.0,32.0 L5.0,32.0 L5.0,31.0 L3.0,31.0 L3.0,30.0 L2.0,30.0 L2.0,28.0 L3.0,28.0 L3.0,27.0 L5.0,27.0 L5.0,26.0 L6.0,26.0 L6.0,25.0 L8.0,25.0 Z" fill="rgb(23,23,23)" fill-opacity="1.000" nch:path="8.0,24.0,8.0,24.0,10.0,24.0 10.0,24.0,10.0,24.0,10.0,34.0 10.0,34.0,10.0,34.0,8.0,34.0 8.0,34.0,8.0,34.0,8.0,33.0 8.0,33.0,8.0,33.0,7.0,33.0 7.0,33.0,7.0,33.0,7.0,32.0 7.0,32.0,7.0,32.0,5.0,32.0 5.0,32.0,5.0,32.0,5.0,31.0 5.0,31.0,5.0,31.0,3.0,31.0 3.0,31.0,3.0,31.0,3.0,30.0 3.0,30.0,3.0,30.0,2.0,30.0 2.0,30.0,2.0,30.0,2.0,28.0 2.0,28.0,2.0,28.0,3.0,28.0 3.0,28.0,3.0,28.0,3.0,27.0 3.0,27.0,3.0,27.0,5.0,27.0 5.0,27.0,5.0,27.0,5.0,26.0 5.0,26.0,5.0,26.0,6.0,26.0 6.0,26.0,6.0,26.0,6.0,25.0 6.0,25.0,6.0,25.0,8.0,25.0 8.0,25.0,8.0,25.0,8.0,24.0 8.0,24.0," stroke="rgb(255,255,255)" stroke-linecap="round" stroke-opacity="0.000" stroke-width="0"/><path d=" M2.0,34.0 L3.0,34.0 L3.0,35.0 L5.0,35.0 L5.0,36.0 L6.0,36.0 L6.0,37.0 L8.0,37.0 L8.0,38.0 L10.0,38.0 L10.0,39.0 L11.0,39.0 L11.0,40.0 L13.0,40.0 L13.0,41.0 L15.0,41.0 L15.0,42.0 L16.0,42.0 L16.0,43.0 L18.0,43.0 L18.0,44.0 L20.0,44.0 L20.0,45.0 L21.0,45.0 L21.0,46.0 L23.0,46.0 L23.0,47.0 L24.0,47.0 L24.0,48.0 L29.0,48.0 L29.0,47.0 L30.0,47.0 L30.0,46.0 L32.0,46.0 L32.0,45.0 L34.0,45.0 L34.0,44.0 L35.0,44.0 L35.0,43.0 L37.0,43.0 L37.0,42.0 L38.0,42.0 L38.0,41.0 L40.0,41.0 L40.0,40.0 L42.0,40.0 L42.0,39.0 L43.0,39.0 L43.0,38.0 L45.0,38.0 L45.0,37.0 L47.0,37.0 L47.0,36.0 L48.0,36.0 L48.0,35.0 L50.0,35.0 L50.0,34.0 L51.0,34.0 L51.0,57.0 L50.0,57.0 L50.0,58.0 L49.0,58.0 L49.0,59.0 L5.0,59.0 L5.0,58.0 L3.0,58.0 L3.0,56.0 L2.0,56.0 Z" fill="rgb(23,23,23)" fill-opacity="1.000" nch:path="2.0,34.0,2.0,34.0,3.0,34.0 3.0,34.0,3.0,34.0,3.0,35.0 3.0,35.0,3.0,35.0,5.0,35.0 5.0,35.0,5.0,35.0,5.0,36.0 5.0,36.0,5.0,36.0,6.0,36.0 6.0,36.0,6.0,36.0,6.0,37.0 6.0,37.0,6.0,37.0,8.0,37.0 8.0,37.0,8.0,37.0,8.0,38.0 8.0,38.0,8.0,38.0,10.0,38.0 10.0,38.0,10.0,38.0,10.0,39.0 10.0,39.0,10.0,39.0,11.0,39.0 11.0,39.0,11.0,39.0,11.0,40.0 11.0,40.0,11.0,40.0,13.0,40.0 13.0,40.0,13.0,40.0,13.0,41.0 13.0,41.0,13.0,41.0,15.0,41.0 15.0,41.0,15.0,41.0,15.0,42.0 15.0,42.0,15.0,42.0,16.0,42.0 16.0,42.0,16.0,42.0,16.0,43.0 16.0,43.0,16.0,43.0,18.0,43.0 18.0,43.0,18.0,43.0,18.0,44.0 18.0,44.0,18.0,44.0,20.0,44.0 20.0,44.0,20.0,44.0,20.0,45.0 20.0,45.0,20.0,45.0,21.0,45.0 21.0,45.0,21.0,45.0,21.0,46.0 21.0,46.0,21.0,46.0,23.0,46.0 23.0,46.0,23.0,46.0,23.0,47.0 23.0,47.0,23.0,47.0,24.0,47.0 24.0,47.0,24.0,47.0,24.0,48.0 24.0,48.0,24.0,48.0,29.0,48.0 29.0,48.0,29.0,48.0,29.0,47.0 29.0,47.0,29.0,47.0,30.0,47.0 30.0,47.0,30.0,47.0,30.0,46.0 30.0,46.0,30.0,46.0,32.0,46.0 32.0,46.0,32.0,46.0,32.0,45.0 32.0,45.0,32.0,45.0,34.0,45.0 34.0,45.0,34.0,45.0,34.0,44.0 34.0,44.0,34.0,44.0,35.0,44.0 35.0,44.0,35.0,44.0,35.0,43.0 35.0,43.0,35.0,43.0,37.0,43.0 37.0,43.0,37.0,43.0,37.0,42.0 37.0,42.0,37.0,42.0,38.0,42.0 38.0,42.0,38.0,42.0,38.0,41.0 38.0,41.0,38.0,41.0,40.0,41.0 40.0,41.0,40.0,41.0,40.0,40.0 40.0,40.0,40.0,40.0,42.0,40.0 42.0,40.0,42.0,40.0,42.0,39.0 42.0,39.0,42.0,39.0,43.0,39.0 43.0,39.0,43.0,39.0,43.0,38.0 43.0,38.0,43.0,38.0,45.0,38.0 45.0,38.0,45.0,38.0,45.0,37.0 45.0,37.0,45.0,37.0,47.0,37.0 47.0,37.0,47.0,37.0,47.0,36.0 47.0,36.0,47.0,36.0,48.0,36.0 48.0,36.0,48.0,36.0,48.0,35.0 48.0,35.0,48.0,35.0,50.0,35.0 50.0,35.0,50.0,35.0,50.0,34.0 50.0,34.0,50.0,34.0,51.0,34.0 51.0,34.0,51.0,34.0,51.0,57.0 51.0,57.0,51.0,57.0,50.0,57.0 50.0,57.0,50.0,57.0,50.0,58.0 50.0,58.0,50.0,58.0,49.0,58.0 49.0,58.0,49.0,58.0,49.0,59.0 49.0,59.0,49.0,59.0,5.0,59.0 5.0,59.0,5.0,59.0,5.0,58.0 5.0,58.0,5.0,58.0,3.0,58.0 3.0,58.0,3.0,58.0,3.0,56.0 3.0,56.0,3.0,56.0,2.0,56.0 2.0,56.0,2.0,56.0,2.0,34.0 2.0,34.0," stroke="rgb(255,255,255)" stroke-linecap="round" stroke-opacity="0.000" stroke-width="0"/><path d=" M43.0,24.0 L44.0,24.0 L44.0,25.0 L45.0,25.0 L45.0,26.0 L47.0,26.0 L47.0,27.0 L49.0,27.0 L49.0,28.0 L50.0,28.0 L50.0,29.0 L51.0,29.0 L51.0,31.0 L50.0,31.0 L50.0,32.0 L48.0,32.0 L48.0,33.0 L47.0,33.0 L47.0,34.0 L45.0,34.0 L45.0,35.0 L43.0,35.0 Z" fill="rgb(23,23,23)" fill-opacity="1.000" nch:path="43.0,24.0,43.0,24.0,44.0,24.0 44.0,24.0,44.0,24.0,44.0,25.0 44.0,25.0,44.0,25.0,45.0,25.0 45.0,25.0,45.0,25.0,45.0,26.0 45.0,26.0,45.0,26.0,47.0,26.0 47.0,26.0,47.0,26.0,47.0,27.0 47.0,27.0,47.0,27.0,49.0,27.0 49.0,27.0,49.0,27.0,49.0,28.0 49.0,28.0,49.0,28.0,50.0,28.0 50.0,28.0,50.0,28.0,50.0,29.0 50.0,29.0,50.0,29.0,51.0,29.0 51.0,29.0,51.0,29.0,51.0,31.0 51.0,31.0,51.0,31.0,50.0,31.0 50.0,31.0,50.0,31.0,50.0,32.0 50.0,32.0,50.0,32.0,48.0,32.0 48.0,32.0,48.0,32.0,48.0,33.0 48.0,33.0,48.0,33.0,47.0,33.0 47.0,33.0,47.0,33.0,47.0,34.0 47.0,34.0,47.0,34.0,45.0,34.0 45.0,34.0,45.0,34.0,45.0,35.0 45.0,35.0,45.0,35.0,43.0,35.0 43.0,35.0,43.0,35.0,43.0,24.0 43.0,24.0," stroke="rgb(255,255,255)" stroke-linecap="round" stroke-opacity="0.000" stroke-width="0"/><path d=" M32.0,8.0 L33.3,8.0 L33.3,9.3 L34.7,9.3 L34.7,10.6 L36.0,10.6 L36.0,11.9 L37.3,11.9 L37.3,13.1 L38.7,13.1 L38.7,15.7 L40.0,15.7 L40.0,17.0 L33.3,17.0 L33.3,15.7 L32.0,15.7 Z" fill="rgb(23,23,23)" fill-opacity="1.000" nch:path="32.0,8.0,32.0,8.0,33.3,8.0 33.3,8.0,33.3,8.0,33.3,9.3 33.3,9.3,33.3,9.3,34.7,9.3 34.7,9.3,34.7,9.3,34.7,10.6 34.7,10.6,34.7,10.6,36.0,10.6 36.0,10.6,36.0,10.6,36.0,11.9 36.0,11.9,36.0,11.9,37.3,11.9 37.3,11.9,37.3,11.9,37.3,13.1 37.3,13.1,37.3,13.1,38.7,13.1 38.7,13.1,38.7,13.1,38.7,15.7 38.7,15.7,38.7,15.7,40.0,15.7 40.0,15.7,40.0,15.7,40.0,17.0 40.0,17.0,40.0,17.0,33.3,17.0 33.3,17.0,33.3,17.0,33.3,15.7 33.3,15.7,33.3,15.7,32.0,15.7 32.0,15.7,32.0,15.7,32.0,8.0 32.0,8.0," stroke="rgb(255,255,255)" stroke-linecap="round" stroke-opacity="0.000" stroke-width="0"/><g height="32.4" width="82.3" x="26.3" y="57.4"><text dy="8px" fill="rgb(196,8,8)" fill-opacity="1.000" font-family="Arial Black" font-size="8" height="32.4" width="54.3" x="54.3" y="57.4"><tspan x="54.3">BEST 
</tspan></text><text dy="8px" fill="rgb(196,8,8)" fill-opacity="1.000" font-family="Arial Black" font-size="8" height="21.1" width="67.4" x="41.2" y="68.6"><tspan x="41.2">SOLUTIONS</tspan></text></g></g></svg>