<?xml version="1.0" standalone="no"?>
<!DOCTYPE svg PUBLIC "-//W3C//DTD SVG 1.1//EN"
"http://www.w3.org/Graphics/SVG/1.1/DTD/svg11.dtd">

<svg height="80" transform="translate(0.5,0.5)" version="1.1" width="100" xmlns="http://www.w3.org/2000/svg" xmlns:nch="http://www.nchsoftware.com/drawpad/" xmlns:xlink="http://www.w3.org/1999/xlink"><rect fill="rgb(255,255,255)" fill-opacity="1.000" height="80" id="background" width="100" x="0" y="0"/><g class="Layer"><ellipse cx="56" cy="38" fill="rgb(5,5,5)" fill-opacity="1.000" nch:colorstroke="rgba(255,255,255,0)" rx="21" ry="22" stroke="rgb(255,255,255)" stroke-opacity="0.000" stroke-width="1"/><ellipse cx="36" cy="31" fill="rgb(5,5,5)" fill-opacity="1.000" nch:colorstroke="rgba(255,255,255,0)" rx="9" ry="9" stroke="rgb(255,255,255)" stroke-opacity="0.000" stroke-width="1"/><ellipse cx="76" cy="33" fill="rgb(5,5,5)" fill-opacity="1.000" nch:colorstroke="rgba(255,255,255,0)" rx="9" ry="9" stroke="rgb(255,255,255)" stroke-opacity="0.000" stroke-width="1"/><ellipse cx="25" cy="39" fill="rgb(5,5,5)" fill-opacity="1.000" nch:colorstroke="rgba(255,255,255,0)" rx="10" ry="10" stroke="rgb(255,255,255)" stroke-opacity="0.000" stroke-width="1"/><ellipse cx="87" cy="36" fill="rgb(5,5,5)" fill-opacity="1.000" nch:colorstroke="rgba(255,255,255,0)" rx="7" ry="7" stroke="rgb(255,255,255)" stroke-opacity="0.000" stroke-width="1"/><ellipse cx="23" cy="44" fill="rgb(5,5,5)" fill-opacity="1.000" nch:colorstroke="rgba(255,255,255,0)" rx="12" ry="12" stroke="rgb(255,255,255)" stroke-opacity="0.000" stroke-width="1"/><ellipse cx="77" cy="44" fill="rgb(5,5,5)" fill-opacity="1.000" nch:colorstroke="rgba(255,255,255,0)" rx="8" ry="8" stroke="rgb(255,255,255)" stroke-opacity="0.000" stroke-width="1"/><ellipse cx="35" cy="49" fill="rgb(5,5,5)" fill-opacity="1.000" nch:colorstroke="rgba(255,255,255,0)" rx="10" ry="10" stroke="rgb(255,255,255)" stroke-opacity="0.000" stroke-width="1"/><ellipse cx="84" cy="46" fill="rgb(5,5,5)" fill-opacity="1.000" nch:colorstroke="rgba(255,255,255,0)" rx="10" ry="10" stroke="rgb(255,255,255)" stroke-opacity="0.000" stroke-width="1"/><ellipse cx="53" cy="47" fill="rgb(5,5,5)" fill-opacity="1.000" nch:colorstroke="rgba(255,255,255,0)" rx="28" ry="12" stroke="rgb(255,255,255)" stroke-opacity="0.000" stroke-width="1"/><g height="20.7" width="47.4" x="29.4" y="29.7"><text dy="7px" fill="rgb(255,255,255)" fill-opacity="1.000" font-family="Arial Black" font-size="6" font-weight="bold" height="20.7" width="36.4" x="40.4" y="29.7"><tspan x="40.4">CLOUD </tspan></text><text dy="7px" fill="rgb(255,255,255)" fill-opacity="1.000" font-family="Arial Black" font-size="6" font-weight="bold" height="12.2" width="43.4" x="33.4" y="38.1"><tspan x="33.4">SOLUTIONS</tspan></text></g><g height="26.2" width="67.5" x="-8.9" y="67.1"><text dy="7px" fill="rgb(196,8,8)" fill-opacity="1.000" font-family="Arial Black" font-size="6" font-weight="bold" height="26.2" transform="rotate(2.00,24.88,80.20)" width="51.9" x="6.7" y="67.1"><tspan x="6.7">BUSINESS </tspan></text></g><g height="26.7" width="60.4" x="-7.9" y="15.0"><text dy="7px" fill="rgb(196,8,8)" fill-opacity="1.000" font-family="Arial Black" font-size="6" font-weight="bold" height="26.7" transform="rotate(-51.00,22.32,28.33)" width="49.5" x="3.0" y="15.0"><tspan x="3.0">ANALYTICS</tspan></text></g><g height="26.7" width="45.4" x="54.8" y="60.8"><text dy="7px" fill="rgb(196,8,8)" fill-opacity="1.000" font-family="Arial Black" font-size="6" font-weight="bold" height="26.7" transform="rotate(25.00,77.49,74.17)" width="39.9" x="60.3" y="60.8"><tspan x="60.3">SECURITY</tspan></text></g><g height="26.7" width="45.4" x="53.3" y="5.3"><text dy="7px" fill="rgb(196,8,8)" fill-opacity="1.000" font-family="Arial Black" font-size="6" font-weight="bold" height="26.7" transform="rotate(19.00,75.98,18.63)" width="43.7" x="55.0" y="5.3"><tspan x="55.0">ACTIVATION</tspan></text></g></g></svg>